<?xml version="1.0" encoding="UTF-8" standalone="no"?>
<svg
   width="800"
   height="800"
   version="1.1"
   id="svg20"
   sodipodi:docname="404.svg"
   inkscape:version="1.3.2 (091e20e, 2023-11-25)"
   xmlns:inkscape="http://www.inkscape.org/namespaces/inkscape"
   xmlns:sodipodi="http://sodipodi.sourceforge.net/DTD/sodipodi-0.dtd"
   xmlns="http://www.w3.org/2000/svg"
   xmlns:svg="http://www.w3.org/2000/svg">
  <sodipodi:namedview
     id="namedview20"
     pagecolor="#ffffff"
     bordercolor="#000000"
     borderopacity="0.25"
     inkscape:showpageshadow="2"
     inkscape:pageopacity="0.0"
     inkscape:pagecheckerboard="0"
     inkscape:deskcolor="#d1d1d1"
     inkscape:zoom="1.08375"
     inkscape:cx="400"
     inkscape:cy="400"
     inkscape:window-width="1920"
     inkscape:window-height="1080"
     inkscape:window-x="1440"
     inkscape:window-y="0"
     inkscape:window-maximized="0"
     inkscape:current-layer="svg20" />
  <defs
     id="defs20">
    <linearGradient
       gradientUnits="userSpaceOnUse"
       id="linearGradient-3"
       spreadMethod="pad"
       x1="162.22324"
       x2="121.5607"
       y1="528.63709"
       y2="522.49935"
       gradientTransform="scale(1.2283345,0.81411049)">
      <stop
         offset="0"
         stop-color="#9eb384"
         id="stop1" />
      <stop
         offset="1"
         stop-color="#a6cf98"
         id="stop2" />
    </linearGradient>
    <linearGradient
       gradientUnits="userSpaceOnUse"
       id="linearGradient-4"
       spreadMethod="pad"
       x1="556.80835"
       x2="524.9619"
       y1="414.49114"
       y2="409.68413"
       gradientTransform="scale(1.2290378,0.81364464)">
      <stop
         offset="0"
         stop-color="#9eb384"
         id="stop3" />
      <stop
         offset="1"
         stop-color="#a6cf98"
         id="stop4" />
    </linearGradient>
    <linearGradient
       gradientUnits="userSpaceOnUse"
       id="linearGradient-5"
       spreadMethod="pad"
       x1="138.29092"
       x2="138.29092"
       y1="765.57407"
       y2="848.8032"
       gradientTransform="scale(1.3828537,0.7231423)">
      <stop
         offset="0"
         stop-color="#d6efd8"
         id="stop5" />
      <stop
         offset="1"
         stop-color="#f0fff1"
         id="stop6" />
    </linearGradient>
    <linearGradient
       gradientUnits="userSpaceOnUse"
       id="linearGradient-6"
       spreadMethod="pad"
       x1="285.25786"
       x2="285.25786"
       y1="1173.0509"
       y2="1209.0176"
       gradientTransform="scale(2.0538424,0.48689227)">
      <stop
         offset="0"
         stop-color="#d6efd8"
         id="stop7" />
      <stop
         offset="1"
         stop-color="#f0fff1"
         id="stop8" />
    </linearGradient>
    <linearGradient
       gradientUnits="userSpaceOnUse"
       id="linearGradient-7"
       spreadMethod="pad"
       x1="8.3718005"
       x2="335.6195"
       y1="1514.7607"
       y2="1525.9168"
       gradientTransform="scale(2.1405192,0.46717638)">
      <stop
         offset="0"
         stop-color="#a6cf98"
         id="stop9" />
      <stop
         offset="1"
         stop-color="#f0fff1"
         id="stop10" />
    </linearGradient>
    <linearGradient
       gradientUnits="userSpaceOnUse"
       id="linearGradient1"
       spreadMethod="pad"
       x1="266.99114"
       x2="208.79368"
       y1="699.10256"
       y2="700.5948"
       gradientTransform="scale(1.084006,0.92250413)">
      <stop
         offset="0"
         stop-color="#d6efd8"
         id="stop11" />
      <stop
         offset="1"
         stop-color="#9eb384"
         id="stop12" />
    </linearGradient>
    <linearGradient
       gradientUnits="userSpaceOnUse"
       id="linearGradient-8"
       spreadMethod="pad"
       x1="622.09988"
       x2="563.90242"
       y1="699.10256"
       y2="700.5948"
       gradientTransform="scale(1.084006,0.92250413)">
      <stop
         offset="0"
         stop-color="#d6efd8"
         id="stop13" />
      <stop
         offset="1"
         stop-color="#9eb384"
         id="stop14" />
    </linearGradient>
    <linearGradient
       gradientUnits="userSpaceOnUse"
       id="linearGradient-16"
       spreadMethod="pad"
       x1="438.74031"
       x2="421.16986"
       y1="319.42115"
       y2="350.79695"
       gradientTransform="scale(1.0968643,0.91168979)">
      <stop
         offset="0"
         stop-color="#d6efd8"
         id="stop15" />
      <stop
         offset="1"
         stop-color="#9eb384"
         id="stop16" />
    </linearGradient>
    <linearGradient
       gradientUnits="userSpaceOnUse"
       id="linearGradient-17"
       spreadMethod="pad"
       x1="419.22823"
       x2="372.55922"
       y1="394.85346"
       y2="579.07326"
       gradientTransform="scale(1.0256227,0.9750174)">
      <stop
         offset="0"
         stop-color="#d6efd8"
         id="stop17" />
      <stop
         offset="0.4"
         stop-color="#f0fff1"
         id="stop18" />
      <stop
         offset="1"
         stop-color="#ffffff"
         stop-opacity="0"
         id="stop19" />
    </linearGradient>
    <filter
       height="2.2619126"
       id="filter-9"
       width="1.9039548"
       x="-0.4519774"
       y="-0.63095629">
      <feGaussianBlur
         color-interpolation-filters="linearRGB"
         in="SourceGraphic"
         result="result1"
         stdDeviation="8 8"
         id="feGaussianBlur19" />
    </filter>
    <filter
       height="2.2619126"
       id="filter-10"
       width="1.9039548"
       x="-0.4519774"
       y="-0.63095629">
      <feGaussianBlur
         color-interpolation-filters="linearRGB"
         in="SourceGraphic"
         result="result1"
         stdDeviation="8 8"
         id="feGaussianBlur20" />
    </filter>
    <mask
       height="132"
       id="mask-2"
       maskUnits="userSpaceOnUse"
       width="199.2"
       x="288.43"
       y="734">
      <path
         d="m1464,800l-0.2,17.7l-0.7,17.5l-1.2,17.5l-1.6,17.3l-2.1,17.3l-2.5,17.2l-2.9,17.2l-3.4,17l-3.9,16.9l-4.3,16.7l-4.7,16.7l-5.1,16.5l-5.6,16.4l-5.9,16.2l-6.4,16l-6.9,15.9l-7.2,15.6l-7.6,15.6l-8.1,15.3l-8.4,15.1l-8.8,14.8l-9.3,14.7l-9.6,14.4l-10,14.3l-10.4,13.9l-10.8,13.7l-11.1,13.4l-11.6,13.2l-11.9,12.9l-12.3,12.6l-12.6,12.3l-12.9,11.9l-13.2,11.6l-13.4,11.1l-13.7,10.8l-13.9,10.4l-14.3,10l-14.4,9.6l-14.7,9.3l-14.8,8.8l-15.1,8.4l-15.3,8.1l-15.6,7.6l-15.6,7.2l-15.9,6.9l-16,6.4l-16.2,5.9l-16.4,5.6l-16.5,5.1l-16.7,4.7l-16.7,4.3l-16.9,3.9l-17,3.4l-17.2,2.9l-17.2,2.5l-17.3,2.1l-17.3,1.6l-17.5,1.2l-17.5,0.7l-17.7,0.2l-17.7,-0.2l-17.5,-0.7l-17.5,-1.2l-17.3,-1.6l-17.3,-2.1l-17.2,-2.5l-17.2,-2.9l-17,-3.4l-16.9,-3.9l-16.7,-4.3l-16.7,-4.7l-16.5,-5.1l-16.4,-5.6l-16.2,-5.9l-16,-6.4l-15.9,-6.9l-15.6,-7.2l-15.6,-7.6l-15.3,-8.1l-15.1,-8.4l-14.8,-8.8l-14.7,-9.3l-14.4,-9.6l-14.3,-10l-13.9,-10.4l-13.7,-10.8l-13.4,-11.1l-13.2,-11.6l-12.9,-11.9l-12.6,-12.3l-12.3,-12.6l-11.9,-12.9l-11.6,-13.2l-11.1,-13.4l-10.8,-13.7l-10.4,-13.9l-10,-14.3l-9.6,-14.4l-9.3,-14.7l-8.8,-14.8l-8.4,-15.1l-8.1,-15.3l-7.6,-15.6l-7.2,-15.6l-6.9,-15.9l-6.4,-16l-5.9,-16.2l-5.6,-16.4l-5.1,-16.5l-4.7,-16.7l-4.3,-16.7l-3.9,-16.9l-3.4,-17l-2.9,-17.2l-2.5,-17.2l-2.1,-17.3l-1.6,-17.3l-1.2,-17.5l-0.7,-17.5l-0.2,-17.7l0.2,-17.7l0.7,-17.5l1.2,-17.5l1.6,-17.3l2.1,-17.3l2.5,-17.2l2.9,-17.2l3.4,-17l3.9,-16.9l4.3,-16.7l4.7,-16.7l5.1,-16.5l5.6,-16.4l5.9,-16.2l6.4,-16l6.9,-15.9l7.2,-15.6l7.6,-15.6l8.1,-15.3l8.4,-15.1l8.8,-14.8l9.3,-14.7l9.6,-14.4l10,-14.3l10.4,-13.9l10.8,-13.7l11.1,-13.4l11.6,-13.2l11.9,-12.9l12.3,-12.6l12.6,-12.3l12.9,-11.9l13.2,-11.6l13.4,-11.1l13.7,-10.8l13.9,-10.4l14.3,-10l14.4,-9.6l14.7,-9.3l14.8,-8.8l15.1,-8.4l15.3,-8.1l15.6,-7.6l15.6,-7.2l15.9,-6.9l16,-6.4l16.2,-5.9l16.4,-5.6l16.5,-5.1l16.7,-4.7l16.7,-4.3l16.9,-3.9l17,-3.4l17.2,-2.9l17.2,-2.5l17.3,-2.1l17.3,-1.6l17.5,-1.2l17.5,-0.7l17.7,-0.2l17.7,0.2l17.5,0.7l17.5,1.2l17.3,1.6l17.3,2.1l17.2,2.5l17.2,2.9l17,3.4l16.9,3.9l16.7,4.3l16.7,4.7l16.5,5.1l16.4,5.6l16.2,5.9l16,6.4l15.9,6.9l15.6,7.2l15.6,7.6l15.3,8.1l15.1,8.4l14.8,8.8l14.7,9.3l14.4,9.6l14.3,10l13.9,10.4l13.7,10.8l13.4,11.1l13.2,11.6l12.9,11.9l12.6,12.3l12.3,12.6l11.9,12.9l11.6,13.2l11.1,13.4l10.8,13.7l10.4,13.9l10,14.3l9.6,14.4l9.3,14.7l8.8,14.8l8.4,15.1l8.1,15.3l7.6,15.6l7.2,15.6l6.9,15.9l6.4,16l5.9,16.2l5.6,16.4l5.1,16.5l4.7,16.7l4.3,16.7l3.9,16.9l3.4,17l2.9,17.2l2.5,17.2l2.1,17.3l1.6,17.3l1.2,17.5l0.7,17.5l0.2,17.7z"
         fill="#ffffff"
         fill-rule="evenodd"
         id="svg_15" />
    </mask>
    <mask
       height="103.37"
       id="mask1"
       maskUnits="userSpaceOnUse"
       width="156"
       x="1175.45"
       y="587.88">
      <path
         d="m1464,800l-0.2,17.7l-0.7,17.5l-1.2,17.5l-1.6,17.3l-2.1,17.3l-2.5,17.2l-2.9,17.2l-3.4,17l-3.9,16.9l-4.3,16.7l-4.7,16.7l-5.1,16.5l-5.6,16.4l-5.9,16.2l-6.4,16l-6.9,15.9l-7.2,15.6l-7.6,15.6l-8.1,15.3l-8.4,15.1l-8.8,14.8l-9.3,14.7l-9.6,14.4l-10,14.3l-10.4,13.9l-10.8,13.7l-11.1,13.4l-11.6,13.2l-11.9,12.9l-12.3,12.6l-12.6,12.3l-12.9,11.9l-13.2,11.6l-13.4,11.1l-13.7,10.8l-13.9,10.4l-14.3,10l-14.4,9.6l-14.7,9.3l-14.8,8.8l-15.1,8.4l-15.3,8.1l-15.6,7.6l-15.6,7.2l-15.9,6.9l-16,6.4l-16.2,5.9l-16.4,5.6l-16.5,5.1l-16.7,4.7l-16.7,4.3l-16.9,3.9l-17,3.4l-17.2,2.9l-17.2,2.5l-17.3,2.1l-17.3,1.6l-17.5,1.2l-17.5,0.7l-17.7,0.2l-17.7,-0.2l-17.5,-0.7l-17.5,-1.2l-17.3,-1.6l-17.3,-2.1l-17.2,-2.5l-17.2,-2.9l-17,-3.4l-16.9,-3.9l-16.7,-4.3l-16.7,-4.7l-16.5,-5.1l-16.4,-5.6l-16.2,-5.9l-16,-6.4l-15.9,-6.9l-15.6,-7.2l-15.6,-7.6l-15.3,-8.1l-15.1,-8.4l-14.8,-8.8l-14.7,-9.3l-14.4,-9.6l-14.3,-10l-13.9,-10.4l-13.7,-10.8l-13.4,-11.1l-13.2,-11.6l-12.9,-11.9l-12.6,-12.3l-12.3,-12.6l-11.9,-12.9l-11.6,-13.2l-11.1,-13.4l-10.8,-13.7l-10.4,-13.9l-10,-14.3l-9.6,-14.4l-9.3,-14.7l-8.8,-14.8l-8.4,-15.1l-8.1,-15.3l-7.6,-15.6l-7.2,-15.6l-6.9,-15.9l-6.4,-16l-5.9,-16.2l-5.6,-16.4l-5.1,-16.5l-4.7,-16.7l-4.3,-16.7l-3.9,-16.9l-3.4,-17l-2.9,-17.2l-2.5,-17.2l-2.1,-17.3l-1.6,-17.3l-1.2,-17.5l-0.7,-17.5l-0.2,-17.7l0.2,-17.7l0.7,-17.5l1.2,-17.5l1.6,-17.3l2.1,-17.3l2.5,-17.2l2.9,-17.2l3.4,-17l3.9,-16.9l4.3,-16.7l4.7,-16.7l5.1,-16.5l5.6,-16.4l5.9,-16.2l6.4,-16l6.9,-15.9l7.2,-15.6l7.6,-15.6l8.1,-15.3l8.4,-15.1l8.8,-14.8l9.3,-14.7l9.6,-14.4l10,-14.3l10.4,-13.9l10.8,-13.7l11.1,-13.4l11.6,-13.2l11.9,-12.9l12.3,-12.6l12.6,-12.3l12.9,-11.9l13.2,-11.6l13.4,-11.1l13.7,-10.8l13.9,-10.4l14.3,-10l14.4,-9.6l14.7,-9.3l14.8,-8.8l15.1,-8.4l15.3,-8.1l15.6,-7.6l15.6,-7.2l15.9,-6.9l16,-6.4l16.2,-5.9l16.4,-5.6l16.5,-5.1l16.7,-4.7l16.7,-4.3l16.9,-3.9l17,-3.4l17.2,-2.9l17.2,-2.5l17.3,-2.1l17.3,-1.6l17.5,-1.2l17.5,-0.7l17.7,-0.2l17.7,0.2l17.5,0.7l17.5,1.2l17.3,1.6l17.3,2.1l17.2,2.5l17.2,2.9l17,3.4l16.9,3.9l16.7,4.3l16.7,4.7l16.5,5.1l16.4,5.6l16.2,5.9l16,6.4l15.9,6.9l15.6,7.2l15.6,7.6l15.3,8.1l15.1,8.4l14.8,8.8l14.7,9.3l14.4,9.6l14.3,10l13.9,10.4l13.7,10.8l13.4,11.1l13.2,11.6l12.9,11.9l12.6,12.3l12.3,12.6l11.9,12.9l11.6,13.2l11.1,13.4l10.8,13.7l10.4,13.9l10,14.3l9.6,14.4l9.3,14.7l8.8,14.8l8.4,15.1l8.1,15.3l7.6,15.6l7.2,15.6l6.9,15.9l6.4,16l5.9,16.2l5.6,16.4l5.1,16.5l4.7,16.7l4.3,16.7l3.9,16.9l3.4,17l2.9,17.2l2.5,17.2l2.1,17.3l1.6,17.3l1.2,17.5l0.7,17.5l0.2,17.7z"
         fill="#ffffff"
         fill-rule="evenodd"
         id="svg_16" />
    </mask>
    <mask
       height="410.4"
       id="mask2"
       maskUnits="userSpaceOnUse"
       width="784.72"
       x="78.68"
       y="978.81">
      <path
         d="m1464,800l-0.2,17.7l-0.7,17.5l-1.2,17.5l-1.6,17.3l-2.1,17.3l-2.5,17.2l-2.9,17.2l-3.4,17l-3.9,16.9l-4.3,16.7l-4.7,16.7l-5.1,16.5l-5.6,16.4l-5.9,16.2l-6.4,16l-6.9,15.9l-7.2,15.6l-7.6,15.6l-8.1,15.3l-8.4,15.1l-8.8,14.8l-9.3,14.7l-9.6,14.4l-10,14.3l-10.4,13.9l-10.8,13.7l-11.1,13.4l-11.6,13.2l-11.9,12.9l-12.3,12.6l-12.6,12.3l-12.9,11.9l-13.2,11.6l-13.4,11.1l-13.7,10.8l-13.9,10.4l-14.3,10l-14.4,9.6l-14.7,9.3l-14.8,8.8l-15.1,8.4l-15.3,8.1l-15.6,7.6l-15.6,7.2l-15.9,6.9l-16,6.4l-16.2,5.9l-16.4,5.6l-16.5,5.1l-16.7,4.7l-16.7,4.3l-16.9,3.9l-17,3.4l-17.2,2.9l-17.2,2.5l-17.3,2.1l-17.3,1.6l-17.5,1.2l-17.5,0.7l-17.7,0.2l-17.7,-0.2l-17.5,-0.7l-17.5,-1.2l-17.3,-1.6l-17.3,-2.1l-17.2,-2.5l-17.2,-2.9l-17,-3.4l-16.9,-3.9l-16.7,-4.3l-16.7,-4.7l-16.5,-5.1l-16.4,-5.6l-16.2,-5.9l-16,-6.4l-15.9,-6.9l-15.6,-7.2l-15.6,-7.6l-15.3,-8.1l-15.1,-8.4l-14.8,-8.8l-14.7,-9.3l-14.4,-9.6l-14.3,-10l-13.9,-10.4l-13.7,-10.8l-13.4,-11.1l-13.2,-11.6l-12.9,-11.9l-12.6,-12.3l-12.3,-12.6l-11.9,-12.9l-11.6,-13.2l-11.1,-13.4l-10.8,-13.7l-10.4,-13.9l-10,-14.3l-9.6,-14.4l-9.3,-14.7l-8.8,-14.8l-8.4,-15.1l-8.1,-15.3l-7.6,-15.6l-7.2,-15.6l-6.9,-15.9l-6.4,-16l-5.9,-16.2l-5.6,-16.4l-5.1,-16.5l-4.7,-16.7l-4.3,-16.7l-3.9,-16.9l-3.4,-17l-2.9,-17.2l-2.5,-17.2l-2.1,-17.3l-1.6,-17.3l-1.2,-17.5l-0.7,-17.5l-0.2,-17.7l0.2,-17.7l0.7,-17.5l1.2,-17.5l1.6,-17.3l2.1,-17.3l2.5,-17.2l2.9,-17.2l3.4,-17l3.9,-16.9l4.3,-16.7l4.7,-16.7l5.1,-16.5l5.6,-16.4l5.9,-16.2l6.4,-16l6.9,-15.9l7.2,-15.6l7.6,-15.6l8.1,-15.3l8.4,-15.1l8.8,-14.8l9.3,-14.7l9.6,-14.4l10,-14.3l10.4,-13.9l10.8,-13.7l11.1,-13.4l11.6,-13.2l11.9,-12.9l12.3,-12.6l12.6,-12.3l12.9,-11.9l13.2,-11.6l13.4,-11.1l13.7,-10.8l13.9,-10.4l14.3,-10l14.4,-9.6l14.7,-9.3l14.8,-8.8l15.1,-8.4l15.3,-8.1l15.6,-7.6l15.6,-7.2l15.9,-6.9l16,-6.4l16.2,-5.9l16.4,-5.6l16.5,-5.1l16.7,-4.7l16.7,-4.3l16.9,-3.9l17,-3.4l17.2,-2.9l17.2,-2.5l17.3,-2.1l17.3,-1.6l17.5,-1.2l17.5,-0.7l17.7,-0.2l17.7,0.2l17.5,0.7l17.5,1.2l17.3,1.6l17.3,2.1l17.2,2.5l17.2,2.9l17,3.4l16.9,3.9l16.7,4.3l16.7,4.7l16.5,5.1l16.4,5.6l16.2,5.9l16,6.4l15.9,6.9l15.6,7.2l15.6,7.6l15.3,8.1l15.1,8.4l14.8,8.8l14.7,9.3l14.4,9.6l14.3,10l13.9,10.4l13.7,10.8l13.4,11.1l13.2,11.6l12.9,11.9l12.6,12.3l12.3,12.6l11.9,12.9l11.6,13.2l11.1,13.4l10.8,13.7l10.4,13.9l10,14.3l9.6,14.4l9.3,14.7l8.8,14.8l8.4,15.1l8.1,15.3l7.6,15.6l7.2,15.6l6.9,15.9l6.4,16l5.9,16.2l5.6,16.4l5.1,16.5l4.7,16.7l4.3,16.7l3.9,16.9l3.4,17l2.9,17.2l2.5,17.2l2.1,17.3l1.6,17.3l1.2,17.5l0.7,17.5l0.2,17.7z"
         fill="#ffffff"
         fill-rule="evenodd"
         id="svg_17" />
    </mask>
    <mask
       height="119.39"
       id="mask3"
       maskUnits="userSpaceOnUse"
       width="503.75"
       x="897.88"
       y="1048.56">
      <path
         d="m1464,800l-0.2,17.7l-0.7,17.5l-1.2,17.5l-1.6,17.3l-2.1,17.3l-2.5,17.2l-2.9,17.2l-3.4,17l-3.9,16.9l-4.3,16.7l-4.7,16.7l-5.1,16.5l-5.6,16.4l-5.9,16.2l-6.4,16l-6.9,15.9l-7.2,15.6l-7.6,15.6l-8.1,15.3l-8.4,15.1l-8.8,14.8l-9.3,14.7l-9.6,14.4l-10,14.3l-10.4,13.9l-10.8,13.7l-11.1,13.4l-11.6,13.2l-11.9,12.9l-12.3,12.6l-12.6,12.3l-12.9,11.9l-13.2,11.6l-13.4,11.1l-13.7,10.8l-13.9,10.4l-14.3,10l-14.4,9.6l-14.7,9.3l-14.8,8.8l-15.1,8.4l-15.3,8.1l-15.6,7.6l-15.6,7.2l-15.9,6.9l-16,6.4l-16.2,5.9l-16.4,5.6l-16.5,5.1l-16.7,4.7l-16.7,4.3l-16.9,3.9l-17,3.4l-17.2,2.9l-17.2,2.5l-17.3,2.1l-17.3,1.6l-17.5,1.2l-17.5,0.7l-17.7,0.2l-17.7,-0.2l-17.5,-0.7l-17.5,-1.2l-17.3,-1.6l-17.3,-2.1l-17.2,-2.5l-17.2,-2.9l-17,-3.4l-16.9,-3.9l-16.7,-4.3l-16.7,-4.7l-16.5,-5.1l-16.4,-5.6l-16.2,-5.9l-16,-6.4l-15.9,-6.9l-15.6,-7.2l-15.6,-7.6l-15.3,-8.1l-15.1,-8.4l-14.8,-8.8l-14.7,-9.3l-14.4,-9.6l-14.3,-10l-13.9,-10.4l-13.7,-10.8l-13.4,-11.1l-13.2,-11.6l-12.9,-11.9l-12.6,-12.3l-12.3,-12.6l-11.9,-12.9l-11.6,-13.2l-11.1,-13.4l-10.8,-13.7l-10.4,-13.9l-10,-14.3l-9.6,-14.4l-9.3,-14.7l-8.8,-14.8l-8.4,-15.1l-8.1,-15.3l-7.6,-15.6l-7.2,-15.6l-6.9,-15.9l-6.4,-16l-5.9,-16.2l-5.6,-16.4l-5.1,-16.5l-4.7,-16.7l-4.3,-16.7l-3.9,-16.9l-3.4,-17l-2.9,-17.2l-2.5,-17.2l-2.1,-17.3l-1.6,-17.3l-1.2,-17.5l-0.7,-17.5l-0.2,-17.7l0.2,-17.7l0.7,-17.5l1.2,-17.5l1.6,-17.3l2.1,-17.3l2.5,-17.2l2.9,-17.2l3.4,-17l3.9,-16.9l4.3,-16.7l4.7,-16.7l5.1,-16.5l5.6,-16.4l5.9,-16.2l6.4,-16l6.9,-15.9l7.2,-15.6l7.6,-15.6l8.1,-15.3l8.4,-15.1l8.8,-14.8l9.3,-14.7l9.6,-14.4l10,-14.3l10.4,-13.9l10.8,-13.7l11.1,-13.4l11.6,-13.2l11.9,-12.9l12.3,-12.6l12.6,-12.3l12.9,-11.9l13.2,-11.6l13.4,-11.1l13.7,-10.8l13.9,-10.4l14.3,-10l14.4,-9.6l14.7,-9.3l14.8,-8.8l15.1,-8.4l15.3,-8.1l15.6,-7.6l15.6,-7.2l15.9,-6.9l16,-6.4l16.2,-5.9l16.4,-5.6l16.5,-5.1l16.7,-4.7l16.7,-4.3l16.9,-3.9l17,-3.4l17.2,-2.9l17.2,-2.5l17.3,-2.1l17.3,-1.6l17.5,-1.2l17.5,-0.7l17.7,-0.2l17.7,0.2l17.5,0.7l17.5,1.2l17.3,1.6l17.3,2.1l17.2,2.5l17.2,2.9l17,3.4l16.9,3.9l16.7,4.3l16.7,4.7l16.5,5.1l16.4,5.6l16.2,5.9l16,6.4l15.9,6.9l15.6,7.2l15.6,7.6l15.3,8.1l15.1,8.4l14.8,8.8l14.7,9.3l14.4,9.6l14.3,10l13.9,10.4l13.7,10.8l13.4,11.1l13.2,11.6l12.9,11.9l12.6,12.3l12.3,12.6l11.9,12.9l11.6,13.2l11.1,13.4l10.8,13.7l10.4,13.9l10,14.3l9.6,14.4l9.3,14.7l8.8,14.8l8.4,15.1l8.1,15.3l7.6,15.6l7.2,15.6l6.9,15.9l6.4,16l5.9,16.2l5.6,16.4l5.1,16.5l4.7,16.7l4.3,16.7l3.9,16.9l3.4,17l2.9,17.2l2.5,17.2l2.1,17.3l1.6,17.3l1.2,17.5l0.7,17.5l0.2,17.7z"
         fill="#ffffff"
         fill-rule="evenodd"
         id="svg_18" />
    </mask>
    <mask
       height="367.2"
       id="mask4"
       maskUnits="userSpaceOnUse"
       width="1682.4"
       x="-48.2"
       y="1127.4">
      <path
         d="m1464,800l-0.2,17.7l-0.7,17.5l-1.2,17.5l-1.6,17.3l-2.1,17.3l-2.5,17.2l-2.9,17.2l-3.4,17l-3.9,16.9l-4.3,16.7l-4.7,16.7l-5.1,16.5l-5.6,16.4l-5.9,16.2l-6.4,16l-6.9,15.9l-7.2,15.6l-7.6,15.6l-8.1,15.3l-8.4,15.1l-8.8,14.8l-9.3,14.7l-9.6,14.4l-10,14.3l-10.4,13.9l-10.8,13.7l-11.1,13.4l-11.6,13.2l-11.9,12.9l-12.3,12.6l-12.6,12.3l-12.9,11.9l-13.2,11.6l-13.4,11.1l-13.7,10.8l-13.9,10.4l-14.3,10l-14.4,9.6l-14.7,9.3l-14.8,8.8l-15.1,8.4l-15.3,8.1l-15.6,7.6l-15.6,7.2l-15.9,6.9l-16,6.4l-16.2,5.9l-16.4,5.6l-16.5,5.1l-16.7,4.7l-16.7,4.3l-16.9,3.9l-17,3.4l-17.2,2.9l-17.2,2.5l-17.3,2.1l-17.3,1.6l-17.5,1.2l-17.5,0.7l-17.7,0.2l-17.7,-0.2l-17.5,-0.7l-17.5,-1.2l-17.3,-1.6l-17.3,-2.1l-17.2,-2.5l-17.2,-2.9l-17,-3.4l-16.9,-3.9l-16.7,-4.3l-16.7,-4.7l-16.5,-5.1l-16.4,-5.6l-16.2,-5.9l-16,-6.4l-15.9,-6.9l-15.6,-7.2l-15.6,-7.6l-15.3,-8.1l-15.1,-8.4l-14.8,-8.8l-14.7,-9.3l-14.4,-9.6l-14.3,-10l-13.9,-10.4l-13.7,-10.8l-13.4,-11.1l-13.2,-11.6l-12.9,-11.9l-12.6,-12.3l-12.3,-12.6l-11.9,-12.9l-11.6,-13.2l-11.1,-13.4l-10.8,-13.7l-10.4,-13.9l-10,-14.3l-9.6,-14.4l-9.3,-14.7l-8.8,-14.8l-8.4,-15.1l-8.1,-15.3l-7.6,-15.6l-7.2,-15.6l-6.9,-15.9l-6.4,-16l-5.9,-16.2l-5.6,-16.4l-5.1,-16.5l-4.7,-16.7l-4.3,-16.7l-3.9,-16.9l-3.4,-17l-2.9,-17.2l-2.5,-17.2l-2.1,-17.3l-1.6,-17.3l-1.2,-17.5l-0.7,-17.5l-0.2,-17.7l0.2,-17.7l0.7,-17.5l1.2,-17.5l1.6,-17.3l2.1,-17.3l2.5,-17.2l2.9,-17.2l3.4,-17l3.9,-16.9l4.3,-16.7l4.7,-16.7l5.1,-16.5l5.6,-16.4l5.9,-16.2l6.4,-16l6.9,-15.9l7.2,-15.6l7.6,-15.6l8.1,-15.3l8.4,-15.1l8.8,-14.8l9.3,-14.7l9.6,-14.4l10,-14.3l10.4,-13.9l10.8,-13.7l11.1,-13.4l11.6,-13.2l11.9,-12.9l12.3,-12.6l12.6,-12.3l12.9,-11.9l13.2,-11.6l13.4,-11.1l13.7,-10.8l13.9,-10.4l14.3,-10l14.4,-9.6l14.7,-9.3l14.8,-8.8l15.1,-8.4l15.3,-8.1l15.6,-7.6l15.6,-7.2l15.9,-6.9l16,-6.4l16.2,-5.9l16.4,-5.6l16.5,-5.1l16.7,-4.7l16.7,-4.3l16.9,-3.9l17,-3.4l17.2,-2.9l17.2,-2.5l17.3,-2.1l17.3,-1.6l17.5,-1.2l17.5,-0.7l17.7,-0.2l17.7,0.2l17.5,0.7l17.5,1.2l17.3,1.6l17.3,2.1l17.2,2.5l17.2,2.9l17,3.4l16.9,3.9l16.7,4.3l16.7,4.7l16.5,5.1l16.4,5.6l16.2,5.9l16,6.4l15.9,6.9l15.6,7.2l15.6,7.6l15.3,8.1l15.1,8.4l14.8,8.8l14.7,9.3l14.4,9.6l14.3,10l13.9,10.4l13.7,10.8l13.4,11.1l13.2,11.6l12.9,11.9l12.6,12.3l12.3,12.6l11.9,12.9l11.6,13.2l11.1,13.4l10.8,13.7l10.4,13.9l10,14.3l9.6,14.4l9.3,14.7l8.8,14.8l8.4,15.1l8.1,15.3l7.6,15.6l7.2,15.6l6.9,15.9l6.4,16l5.9,16.2l5.6,16.4l5.1,16.5l4.7,16.7l4.3,16.7l3.9,16.9l3.4,17l2.9,17.2l2.5,17.2l2.1,17.3l1.6,17.3l1.2,17.5l0.7,17.5l0.2,17.7z"
         fill="#ffffff"
         fill-rule="evenodd"
         id="svg_19" />
    </mask>
    <mask
       height="16527.59"
       id="mask5"
       maskUnits="userSpaceOnUse"
       width="16527.59"
       x="-30327.2"
       y="5827.87">
      <path
         d="m-21624.2,13564.8l11.9,13.1l11.4,13.3l11.1,13.5l20.9,27.9l19.4,28.8l9.2,14.8l8.7,15l8.3,15.1l7.9,15.4l7.5,15.6l7.1,15.8l6.7,15.9l6.2,16.1l5.9,16.2l5.4,16.4l9.5,33.3l4.1,16.8l3.7,16.9l3.3,17l2.8,17.1l2.4,17.3l1.9,17.3l1.4,17.3l1,17.4l0.6,17.5l0,17.6l-0.3,17.6l-0.9,17.6l-1.3,17.6l-1.8,17.4l-2.2,17.3l-2.6,17.1l-3.1,17.2l-3.6,17l-8.4,33.6l-4.9,16.6l-5.3,16.5l-5.7,16.3l-6.1,16.2l-6.6,16l-6.9,15.8l-7.4,15.6l-7.7,15.4l-16.8,30.3l-9,14.8l-9.3,14.5l-9.7,14.4l-10.2,14.1l-10.5,13.8l-10.9,13.6l-11.2,13.3l-11.6,13l-12,12.8l-12.3,12.4l-12.8,12.3l-13,11.8l-13.4,11.5l-13.5,11l-13.8,10.7l-14,10.3l-14.3,9.9l-14.6,9.5l-14.8,9.1l-15,8.7l-30.5,16.2l-31.4,14.7l-32,12.9l-16.2,5.8l-16.4,5.4l-16.6,5l-16.7,4.6l-16.8,4.1l-16.9,3.7l-17,3.2l-17.1,2.8l-17.3,2.4l-17.2,1.9l-34.8,2.5l-52.7,0.2l-17.6,-0.8l-17.5,-1.3l-17.4,-1.8l-17.3,-2.2l-17.2,-2.7l-17.1,-3.1l-17.1,-3.6l-16.9,-3.9l-16.7,-4.5l-16.6,-4.8l-16.5,-5.3l-16.3,-5.7l-16.2,-6.2l-16,-6.5l-15.8,-7l-15.6,-7.3l-30.7,-16l-15,-8.5l-14.8,-9l-14.5,-9.3l-14.3,-9.8l-28,-20.6l-13.6,-10.9l-13.3,-11.2l-13,-11.6l-25.2,-24.4l-35.6,-39.1l-21.7,-27.4l-20.2,-28.3l-9.5,-14.6l-9.1,-14.7l-8.7,-15l-8.3,-15.2l-7.9,-15.3l-7.5,-15.6l-7.1,-15.8l-6.7,-15.9l-6.3,-16.1l-5.8,-16.3l-10.4,-32.9l-4.6,-16.7l-4.1,-16.8l-6.9,-33.9l-5.2,-34.4l-1.9,-17.3l-1.5,-17.3l-1.5,-34.9l-0.1,-17.6l0.4,-17.6l0.8,-17.7l1.3,-17.5l1.8,-17.4l4.9,-34.5l3.1,-17.1l3.6,-17l4,-16.9l4.4,-16.8l4.8,-16.6l5.3,-16.4l11.9,-32.5l6.5,-16l7,-15.8l7.3,-15.6l7.8,-15.5l8.2,-15.2l8.5,-15l18.4,-29.4l9.7,-14.3l10.1,-14.1l10.5,-13.9l10.9,-13.5l22.8,-26.3l12,-12.8l12.4,-12.5l12.7,-12.2l13.1,-11.9l26.9,-22.5l13.8,-10.6l14,-10.3l28.9,-19.4l14.7,-9.2l15,-8.7l15.2,-8.3l15.4,-7.9l15.5,-7.5l15.8,-7.1l16,-6.7l16,-6.2l16.3,-5.9l16.4,-5.4l16.6,-5l16.6,-4.5l16.8,-4.1l16.9,-3.7l34.2,-6.1l17.2,-2.3l17.3,-2l17.3,-1.4l17.5,-1l17.4,-0.6l17.6,0l17.6,0.3l52.6,4l34.5,4.8l34.1,6.7l33.7,8.4l33,10.2l16.4,5.7l16.2,6.1l15.9,6.6l15.8,6.9l15.6,7.4l15.5,7.7l15.2,8.2l15,8.6l14.8,9l14.6,9.3l14.3,9.7l14.1,10.2l13.9,10.5l13.5,10.9l13.3,11.2l13.1,11.6l12.7,12l24.7,25.1z"
         fill="#ffffff"
         fill-rule="evenodd"
         id="svg_20" />
    </mask>
    <clipPath
       clipPathUnits="userSpaceOnUse"
       id="clipPath134">
      <ellipse
         style="fill:#000000;stroke-width:1.05847"
         id="ellipse134"
         ry="358.57812"
         rx="372.10059"
         cy="407.38641"
         cx="404.46133" />
    </clipPath>
  </defs>
  <g
     class="layer"
     id="g20"
     clip-path="url(#clipPath134)">
    <title
       id="title20">Layer 1</title>
    <g
       id="svg_21">
      <g
         id="svg_22">
        <path
           d="m 780.97,421.01 -0.11,10.05 -0.4,9.94 -0.68,9.94 -0.91,9.82 -1.19,9.82 -1.42,9.77 -1.65,9.77 -1.93,9.65 -2.21,9.6 -2.44,9.48 -2.67,9.48 -2.9,9.37 -3.18,9.31 -3.35,9.2 -3.63,9.08 -3.92,9.03 -4.09,8.86 -4.31,8.86 -4.6,8.69 -4.77,8.57 -5,8.4 -5.28,8.35 -5.45,8.18 -5.68,8.12 -5.9,7.89 -6.13,7.78 -6.3,7.61 -6.59,7.49 -6.76,7.32 -6.98,7.15 -7.15,6.98 -7.32,6.76 -7.49,6.59 -7.61,6.3 -7.78,6.13 -7.89,5.9 -8.12,5.68 -8.18,5.45 -8.35,5.28 -8.4,5 -8.57,4.77 -8.69,4.6 -8.86,4.31 -8.86,4.09 -9.03,3.92 -9.08,3.63 -9.2,3.35 -9.31,3.18 -9.37,2.9 -9.48,2.67 -9.48,2.44 -9.6,2.21 -9.65,1.93 -9.77,1.65 -9.77,1.42 -9.82,1.19 -9.82,0.91 -9.94,0.68 -9.94,0.4 -10.05,0.11 -10.05,-0.11 -9.94,-0.4 -9.94,-0.68 -9.82,-0.91 -9.82,-1.19 -9.77,-1.42 -9.77,-1.65 -9.65,-1.93 -9.6,-2.21 -9.48,-2.44 -9.48,-2.67 -9.37,-2.9 -9.31,-3.18 -9.2,-3.35 -9.08,-3.63 -9.03,-3.92 -8.86,-4.09 -8.86,-4.31 -8.69,-4.6 -8.57,-4.77 -8.4,-5 -8.35,-5.28 -8.18,-5.45 -8.12,-5.68 -7.89,-5.9 -7.78,-6.13 -7.61,-6.3 -7.49,-6.59 -7.32,-6.76 -7.15,-6.98 -6.98,-7.15 -6.76,-7.32 -6.59,-7.49 -6.3,-7.61 -6.13,-7.78 -5.9,-7.89 -5.68,-8.12 -5.45,-8.18 -5.28,-8.35 -5,-8.4 -4.77,-8.57 -4.6,-8.69 -4.31,-8.86 -4.09,-8.86 -3.92,-9.03 -3.63,-9.08 -3.35,-9.2 -3.18,-9.31 -2.9,-9.37 -2.67,-9.48 -2.44,-9.48 -2.21,-9.6 -1.93,-9.65 -1.65,-9.77 -1.42,-9.77 -1.19,-9.82 -0.91,-9.82 -0.68,-9.94 -0.4,-9.94 -0.11,-10.05 0.11,-10.05 0.4,-9.94 0.68,-9.94 0.91,-9.82 1.19,-9.82 1.42,-9.77 1.65,-9.77 1.93,-9.65 2.21,-9.6 2.44,-9.48 2.67,-9.48 2.9,-9.37 3.18,-9.31 3.35,-9.2 3.63,-9.08 3.92,-9.03 4.09,-8.86 4.31,-8.86 4.6,-8.69 4.77,-8.57 5,-8.4 5.28,-8.35 5.45,-8.18 5.68,-8.12 5.9,-7.89 6.13,-7.78 6.3,-7.61 6.59,-7.49 6.76,-7.32 6.98,-7.15 7.15,-6.98 7.32,-6.76 7.49,-6.59 7.61,-6.3 7.78,-6.13 7.89,-5.9 8.12,-5.68 8.18,-5.45 8.35,-5.28 8.4,-5 8.57,-4.77 8.69,-4.6 8.86,-4.31 8.86,-4.09 9.03,-3.92 9.08,-3.63 9.2,-3.35 9.31,-3.18 9.37,-2.9 9.48,-2.67 9.48,-2.44 9.6,-2.21 9.65,-1.93 9.77,-1.65 9.77,-1.42 9.82,-1.19 9.82,-0.91 9.94,-0.68 9.94,-0.4 10.05,-0.11 10.05,0.11 9.94,0.4 9.94,0.68 9.82,0.91 9.82,1.19 9.77,1.42 9.77,1.65 9.65,1.93 9.6,2.21 9.48,2.44 9.48,2.67 9.37,2.9 9.31,3.18 9.2,3.35 9.08,3.63 9.03,3.92 8.86,4.09 8.86,4.31 8.69,4.6 8.57,4.77 8.4,5 8.35,5.28 8.18,5.45 8.12,5.68 7.89,5.9 7.78,6.13 7.61,6.3 7.49,6.59 7.32,6.76 7.15,6.98 6.98,7.15 6.76,7.32 6.59,7.49 6.3,7.61 6.13,7.78 5.9,7.89 5.68,8.12 5.45,8.18 5.28,8.35 5,8.4 4.77,8.57 4.6,8.69 4.31,8.86 4.09,8.86 3.92,9.03 3.63,9.08 3.35,9.2 3.18,9.31 2.9,9.37 2.67,9.48 2.44,9.48 2.21,9.6 1.93,9.65 1.65,9.77 1.42,9.77 1.19,9.82 0.91,9.82 0.68,9.94 0.4,9.94 z"
           fill="#f0fff1"
           fill-rule="nonzero"
           id="svg_23" />
      </g>
      <g
         id="svg_24">
        <path
           d="m 170.45,389.78 2.5,0.11 4.54,0.91 4.26,1.7 3.86,2.38 1.7,1.48 3.01,3.35 2.38,3.86 1.65,4.26 0.85,4.66 4.83,0.17 2.61,0.57 2.44,0.85 2.27,1.14 2.1,1.42 1.93,1.7 1.65,1.87 1.42,2.1 1.19,2.33 0.85,2.44 0.51,2.55 0.17,2.73 -0.17,2.73 -0.51,2.55 -0.85,2.44 -1.19,2.33 -1.42,2.1 -1.65,1.87 -1.93,1.7 -2.1,1.42 -2.27,1.14 -2.44,0.85 -2.61,0.57 -2.73,0.17 h -54.5 l -2.73,-0.17 -2.55,-0.57 -2.44,-0.85 -2.33,-1.14 -2.04,-1.42 -1.93,-1.7 -1.7,-1.87 -1.42,-2.1 -1.14,-2.33 -0.85,-2.44 -0.51,-2.55 -0.23,-2.73 0.23,-2.73 0.51,-2.55 0.85,-2.44 1.14,-2.33 1.42,-2.1 1.7,-1.87 1.93,-1.7 2.04,-1.42 2.33,-1.14 2.44,-0.85 2.55,-0.57 5.68,-0.17 0.85,-4.66 1.65,-4.26 2.38,-3.86 3.01,-3.35 3.58,-2.73 4.03,-2.1 4.43,-1.31 4.77,-0.45 z"
           fill="url(#linearGradient-3)"
           fill-opacity="0.33"
           fill-rule="evenodd"
           id="形状结合"
           style="fill:url(#linearGradient-3)" />
      </g>
      <g
         id="svg_25">
        <path
           d="m 661.74,305.47 2.55,0.17 2.38,0.45 2.27,0.74 2.16,1.02 1.99,1.25 1.82,1.53 1.65,1.7 1.42,1.87 1.19,2.04 0.91,2.21 0.68,2.33 0.34,2.44 3.8,0.17 2.04,0.4 1.87,0.68 1.82,0.91 1.65,1.08 1.48,1.31 1.31,1.53 1.14,1.65 0.91,1.82 0.68,1.87 0.4,2.04 0.17,2.1 -0.17,2.16 -0.4,1.99 -0.68,1.93 -0.91,1.82 -1.14,1.65 -1.31,1.48 -1.48,1.31 -1.65,1.14 -1.82,0.91 -1.87,0.68 -2.04,0.4 -2.16,0.11 H 640.1 l -2.16,-0.11 -1.99,-0.4 -1.93,-0.68 -1.82,-0.91 -1.65,-1.14 -1.48,-1.31 -1.31,-1.48 -1.14,-1.65 -0.91,-1.82 -0.68,-1.93 -0.4,-1.99 -0.11,-2.16 0.11,-2.1 0.4,-2.04 0.68,-1.87 0.91,-1.82 1.14,-1.65 1.31,-1.53 1.48,-1.31 1.65,-1.08 1.82,-0.91 1.93,-0.68 1.99,-0.4 4.43,-0.17 0.4,-2.44 0.62,-2.33 0.91,-2.21 1.19,-2.04 1.42,-1.87 1.65,-1.7 1.82,-1.53 1.99,-1.25 2.16,-1.02 2.27,-0.74 2.38,-0.45 2.55,-0.17 z"
           fill="url(#linearGradient-4)"
           fill-opacity="0.33"
           fill-rule="evenodd"
           id="形状结合备份"
           style="fill:url(#linearGradient-4)" />
      </g>
      <g
         id="svg_26">
        <path
           d="m 201.85,736.11 10.5,-0.17 10.56,-0.51 10.62,-0.85 10.62,-1.19 10.56,-1.53 10.45,-1.82 10.45,-2.1 10.16,-2.38 9.99,-2.67 9.94,-3.01 9.54,-3.18 9.14,-3.41 13.4,-5.68 12.21,-6.02 5.96,-3.29 5.62,-3.35 5.17,-3.46 4.88,-3.46 4.83,-3.75 4.37,-3.75 3.92,-3.8 3.58,-3.8 2.73,-3.29 2.44,-3.29 2.16,-3.29 1.82,-3.24 1.59,-3.35 1.36,-3.41 1.08,-3.46 0.74,-3.52 0.45,-3.46 0.17,-3.58 -0.17,-3.52 -0.45,-3.52 -0.74,-3.46 -1.08,-3.46 -1.36,-3.46 -1.59,-3.29 -1.82,-3.29 -2.16,-3.29 -2.44,-3.29 -2.73,-3.29 -3.58,-3.8 -3.92,-3.8 -4.37,-3.75 -4.83,-3.75 -4.88,-3.46 -5.17,-3.41 -5.62,-3.41 -5.96,-3.29 -12.21,-6.02 -13.4,-5.68 -9.14,-3.41 -9.54,-3.18 -9.94,-2.95 -9.99,-2.67 -10.16,-2.44 -10.45,-2.1 -10.45,-1.82 -10.56,-1.48 -10.62,-1.19 -10.62,-0.91 -10.56,-0.51 -10.5,-0.17 -10.11,0.17 -9.88,0.51 -9.65,0.79 -9.37,1.08 -9.48,1.42 -9.08,1.7 -8.8,1.99 -8.52,2.21 -8.46,2.55 -8.12,2.78 -7.72,2.95 -7.32,3.18 -5.85,2.78 -5.56,2.95 -5.28,3.01 -4.94,3.07 -4.71,3.24 -4.71,3.46 -4.31,3.52 -4.03,3.63 -3.69,3.63 -3.35,3.75 -3.29,4.03 -2.9,4.03 -2.5,4.09 -2.27,4.09 -1.87,4.2 -1.59,4.37 -1.31,4.37 -0.85,4.43 -0.57,4.49 -0.17,4.6 0.17,4.6 0.57,4.49 0.85,4.43 1.31,4.43 1.59,4.31 1.87,4.2 2.27,4.14 2.5,4.09 2.9,4.03 3.29,3.97 3.35,3.75 3.69,3.69 4.03,3.58 4.31,3.52 4.71,3.52 4.71,3.18 4.94,3.12 5.28,3.01 5.56,2.9 5.85,2.78 7.32,3.18 7.72,3.01 8.12,2.73 8.46,2.55 8.52,2.21 8.8,1.99 9.08,1.7 9.48,1.42 9.37,1.08 9.65,0.79 9.88,0.51 10.11,0.17 z"
           fill="url(#linearGradient-5)"
           fill-rule="evenodd"
           id="椭圆形"
           style="fill:url(#linearGradient-5)" />
      </g>
      <g
         id="svg_27">
        <path
           d="m 592.75,567.77 8.18,0.17 8.23,0.51 8.29,0.79 8.29,1.08 8.18,1.42 8.06,1.7 7.95,1.93 7.72,2.21 7.44,2.44 7.32,2.73 6.93,2.9 6.42,3.07 4.77,2.55 4.43,2.55 4.09,2.67 3.8,2.73 3.69,2.95 3.29,2.95 2.84,3.01 2.55,3.01 1.82,2.61 1.59,2.61 1.31,2.61 1.02,2.61 0.74,2.67 H 483.41 l 0.68,-3.12 0.91,-3.07 1.19,-3.01 1.48,-3.01 1.76,-3.01 2.44,-3.46 2.78,-3.41 3.18,-3.35 3.63,-3.29 3.8,-3.01 4.09,-2.9 4.49,-2.84 4.88,-2.67 4.94,-2.38 5.22,-2.27 5.51,-2.16 5.85,-1.93 5.9,-1.7 6.08,-1.48 6.36,-1.36 6.64,-1.08 6.59,-0.85 6.81,-0.62 6.98,-0.4 7.15,-0.11 z"
           fill="url(#linearGradient-6)"
           fill-opacity="0.55"
           fill-rule="evenodd"
           id="svg_1"
           style="fill:url(#linearGradient-6)" />
      </g>
      <g
         id="svg_28">
        <path
           d="M 2,624.27 H 798 V 798 H 2 Z"
           fill="url(#linearGradient-7)"
           fill-rule="evenodd"
           id="矩形"
           style="fill:url(#linearGradient-7)" />
      </g>
      <g
         id="svg_29">
        <g
           id="svg_30">
          <g
             id="svg_31">
            <g
               id="svg_32">
              <g
                 id="svg_33">
                <path
                   d="m 231.15,647.03 28.56,-16.47 2.27,-0.85 h 2.33 l 2.16,0.79 1.82,1.48 1.53,2.67 0.4,2.33 -0.45,2.27 -1.14,2.04 -1.82,1.53 -28.56,16.47 -2.27,0.85 -2.33,-0.06 -2.16,-0.79 -1.82,-1.48 -0.74,-1.02 -0.79,-1.65 -0.4,-2.27 0.4,-2.27 1.19,-2.04 z"
                   fill="url(#linearGradient1)"
                   fill-rule="evenodd"
                   filter="url(#filter-9)"
                   id="svg_9"
                   style="fill:url(#linearGradient1)" />
              </g>
              <g
                 id="svg_34">
                <path
                   d="m 616.09,647.03 28.56,-16.47 2.27,-0.85 h 2.33 l 2.16,0.79 1.82,1.48 0.68,1.02 0.85,1.65 0.4,2.33 -0.45,2.27 -1.14,2.04 -1.82,1.53 -28.56,16.47 -2.27,0.85 -2.33,-0.06 -2.16,-0.79 -0.97,-0.62 -0.85,-0.85 -1.02,-1.53 -0.51,-1.14 -0.4,-2.27 0.4,-2.27 1.19,-2.04 1.82,-1.53 z"
                   fill="url(#linearGradient-8)"
                   fill-rule="evenodd"
                   filter="url(#filter-10)"
                   id="矩形备份-11"
                   style="fill:url(#linearGradient-8)" />
              </g>
              <g
                 id="svg_35">
                <path
                   d="m 234.33,660.43 h -18.11 l -0.97,-0.11 -0.79,-0.34 -1.25,-1.25 -0.28,-0.79 -0.17,-0.97 v -123.2 l 0.17,-0.91 0.28,-0.79 0.57,-0.74 0.68,-0.51 0.79,-0.34 0.97,-0.11 h 18.11 l 0.91,0.11 0.79,0.34 1.25,1.25 0.34,0.79 0.11,0.91 v 123.2 l -0.11,0.97 -0.34,0.79 -0.51,0.68 -0.74,0.57 -0.79,0.34 z"
                   fill="#a6cf98"
                   fill-rule="nonzero"
                   id="矩形备份-7" />
              </g>
              <g
                 id="svg_36">
                <path
                   d="m 277.36,592.81 v 18.05 l -0.11,0.97 -0.34,0.79 -0.51,0.68 -0.74,0.57 -1.7,0.45 H 137.81 l -0.91,-0.11 -0.85,-0.34 -1.19,-1.25 -0.34,-0.79 -0.17,-0.97 v -18.05 l 0.17,-0.97 0.34,-0.79 1.19,-1.25 0.85,-0.34 0.91,-0.11 h 136.15 l 0.91,0.11 1.53,0.91 0.51,0.68 0.34,0.79 z"
                   fill="#a6cf98"
                   fill-rule="nonzero"
                   id="矩形备份-6" />
              </g>
              <g
                 id="svg_37">
                <path
                   d="m 224.96,503.22 15.22,15.22 0.4,0.62 0.11,0.62 -0.11,0.62 -0.4,0.57 -91.07,91.07 -1.31,1.14 -2.84,1.65 -1.48,0.51 -2.16,0.34 h -2.1 l -2.1,-0.34 -3.01,-1.19 -2.67,-2.1 -1.14,-1.31 -0.91,-1.36 -1.19,-2.95 -0.4,-2.16 v -2.1 l 0.4,-2.1 1.19,-2.95 0.91,-1.42 1.14,-1.31 91.07,-91.07 0.57,-0.4 0.68,-0.11 0.62,0.11 0.57,0.4 z"
                   fill="#a6cf98"
                   fill-rule="nonzero"
                   id="svg_10" />
              </g>
              <path
                 d="m 145.3,601.84 -0.34,1.93 -0.4,0.85 -0.85,1.08 -1.14,0.85 -0.85,0.4 -1.87,0.34 -1.93,-0.34 -0.85,-0.4 -1.08,-0.85 -0.91,-1.08 -0.62,-1.76 -0.11,-1.02 0.34,-1.93 0.4,-0.79 0.91,-1.14 1.08,-0.85 0.85,-0.4 1.93,-0.34 1.87,0.34 0.85,0.4 1.14,0.85 0.85,1.14 0.4,0.79 0.34,1.93 z"
                 fill="#faf1e4"
                 fill-rule="nonzero"
                 id="svg_2" />
            </g>
            <g
               id="svg_38">
              <g
                 id="svg_39">
                <path
                   d="m 623.47,660.43 h -18.11 l -0.91,-0.11 -0.85,-0.34 -0.68,-0.57 -0.51,-0.68 -0.51,-1.76 v -123.2 l 0.17,-0.91 0.34,-0.79 0.51,-0.74 1.53,-0.85 0.91,-0.11 h 18.11 l 0.91,0.11 0.79,0.34 1.25,1.25 0.45,1.7 v 123.2 l -0.11,0.97 -0.34,0.79 -0.51,0.68 -0.74,0.57 -0.79,0.34 z"
                   fill="#a6cf98"
                   fill-rule="nonzero"
                   id="svg_13" />
              </g>
              <g
                 id="svg_40">
                <path
                   d="m 666.56,592.81 v 18.05 l -0.17,0.97 -0.34,0.79 -1.25,1.25 -0.79,0.34 -0.91,0.11 H 526.95 l -0.91,-0.11 -0.79,-0.34 -0.74,-0.57 -0.51,-0.68 -0.34,-0.79 -0.17,-0.97 v -18.05 l 0.17,-0.97 0.34,-0.79 0.51,-0.68 0.74,-0.57 1.7,-0.45 H 663.1 l 0.91,0.11 0.79,0.34 0.74,0.57 0.51,0.68 0.34,0.79 z"
                   fill="#a6cf98"
                   fill-rule="nonzero"
                   id="svg_14" />
              </g>
              <g
                 id="svg_41">
                <path
                   d="m 614.1,503.22 15.27,15.22 0.34,0.62 0.11,0.62 -0.11,0.62 -0.34,0.57 -91.13,91.07 -1.31,1.14 -2.78,1.65 -1.53,0.51 -2.16,0.34 h -2.1 l -2.1,-0.34 -2.95,-1.19 -2.73,-2.1 -1.14,-1.31 -0.91,-1.36 -0.68,-1.42 -0.51,-1.53 -0.34,-2.16 v -2.1 l 0.34,-2.1 1.19,-2.95 0.91,-1.42 1.14,-1.31 91.07,-91.07 0.62,-0.4 0.62,-0.11 0.62,0.11 0.57,0.4 z"
                   fill="#a6cf98"
                   fill-rule="nonzero"
                   id="svg_11" />
              </g>
              <path
                 d="m 534.45,601.84 -0.34,1.93 -0.4,0.85 -0.85,1.08 -1.14,0.85 -0.85,0.4 -1.87,0.34 -1.93,-0.34 -0.85,-0.4 -1.08,-0.85 -0.85,-1.08 -0.68,-1.76 -0.11,-1.02 0.4,-1.93 1.25,-1.93 1.08,-0.85 0.85,-0.4 1.93,-0.34 1.87,0.34 1.99,1.25 0.85,1.14 0.4,0.79 0.34,1.93 z"
                 fill="#faf1e4"
                 fill-rule="nonzero"
                 id="svg_3" />
            </g>
            <path
               d="m 332.1,553.18 h 137 l 1.76,0.45 0.68,0.57 0.57,0.68 0.34,0.79 0.11,0.91 v 78.41 l -0.45,1.76 -0.57,0.68 -0.68,0.57 -0.79,0.34 -0.97,0.11 h -137 l -1.7,-0.45 -0.74,-0.57 -0.51,-0.68 -0.45,-1.76 v -78.41 l 0.11,-0.91 0.85,-1.48 0.74,-0.57 0.79,-0.34 0.91,-0.11 z"
               fill="#a6cf98"
               fill-rule="nonzero"
               id="矩形备份-8" />
            <g
               id="svg_42">
              <g
                 id="svg_43">
                <g
                   id="svg_44">
                  <path
                     d="m 348.73,567.15 0.51,0.11 0.4,0.34 0.34,1.14 -1.02,7.32 h -9.14 l -0.57,-0.11 -0.4,-0.28 -0.28,-1.02 1.02,-7.49 h 9.14 z m -5.28,1.99 -0.79,4.88 h 2.38 l 0.85,-4.88 z"
                     fill="#ffffff"
                     fill-rule="nonzero"
                     id="svg_45" />
                </g>
                <path
                   d="m 348.73,567.15 0.51,0.11 0.4,0.34 0.34,1.14 -1.02,7.32 h -9.14 l -0.57,-0.11 -0.4,-0.28 -0.28,-1.02 1.02,-7.49 h 9.14 z m -5.28,1.99 -0.79,4.88 h 2.38 l 0.85,-4.88 z"
                   fill="#ffffff"
                   fill-opacity="0.71"
                   fill-rule="nonzero"
                   id="svg_46" />
              </g>
              <g
                 id="svg_47">
                <g
                   id="svg_48">
                  <path
                     d="m 363.95,567.15 0.57,0.11 0.34,0.34 0.34,1.14 -1.02,7.32 h -9.14 l -0.57,-0.11 -0.34,-0.28 -0.34,-1.02 1.02,-7.49 h 9.14 z m -5.28,1.99 -0.79,4.88 h 2.44 l 0.79,-4.88 z"
                     fill="#ffffff"
                     fill-rule="nonzero"
                     id="svg_49" />
                </g>
                <path
                   d="m 363.95,567.15 0.57,0.11 0.34,0.34 0.34,1.14 -1.02,7.32 h -9.14 l -0.57,-0.11 -0.34,-0.28 -0.34,-1.02 1.02,-7.49 h 9.14 z m -5.28,1.99 -0.79,4.88 h 2.44 l 0.79,-4.88 z"
                   fill="#ffffff"
                   fill-opacity="0.71"
                   fill-rule="nonzero"
                   id="svg_50" />
              </g>
              <g
                 id="svg_51">
                <g
                   id="svg_52">
                  <path
                     d="m 381.49,567.15 -1.02,7.49 -0.23,0.57 -0.4,0.45 -1.02,0.4 h -5.05 l -0.68,4.43 H 369 l 1.87,-12.77 -0.57,-0.57 h 11.18 z m -6.7,1.99 -0.79,5.05 h 2.44 l 0.79,-5.05 z"
                     fill="#ffffff"
                     fill-rule="nonzero"
                     id="svg_53" />
                </g>
                <path
                   d="m 381.49,567.15 -1.02,7.49 -0.23,0.57 -0.4,0.45 -1.02,0.4 h -5.05 l -0.68,4.43 H 369 l 1.87,-12.77 -0.57,-0.57 h 11.18 z m -6.7,1.99 -0.79,5.05 h 2.44 l 0.79,-5.05 z"
                   fill="#ffffff"
                   fill-opacity="0.71"
                   fill-rule="nonzero"
                   id="svg_54" />
              </g>
              <g
                 id="svg_55">
                <g
                   id="svg_56">
                  <path
                     d="m 391.6,574.02 0.23,-1.42 h -6.13 l 0.85,-5.45 h 9.77 l -0.45,2.61 h -3.46 l 0.06,-0.62 h -2.44 l -0.23,1.42 h 5.9 l -0.4,4.09 -0.68,1.02 -1.14,0.4 h -8.18 l 0.4,-2.84 0.62,0.79 z"
                     fill="#ffffff"
                     fill-rule="nonzero"
                     id="svg_57" />
                </g>
                <path
                   d="m 391.6,574.02 0.23,-1.42 h -6.13 l 0.85,-5.45 h 9.77 l -0.45,2.61 h -3.46 l 0.06,-0.62 h -2.44 l -0.23,1.42 h 5.9 l -0.4,4.09 -0.68,1.02 -1.14,0.4 h -8.18 l 0.4,-2.84 0.62,0.79 z"
                   fill="#ffffff"
                   fill-opacity="0.71"
                   fill-rule="nonzero"
                   id="svg_58" />
              </g>
              <g
                 id="svg_59">
                <g
                   id="svg_60">
                  <path
                     d="m 408.35,571.12 3.35,-1.02 -0.4,2.61 -3.35,0.97 -4.49,-1.53 -3.46,0.97 0.4,-2.61 3.35,-0.97 4.6,1.59 z"
                     fill="#ffffff"
                     fill-rule="nonzero"
                     id="svg_61" />
                </g>
                <path
                   d="m 408.35,571.12 3.35,-1.02 -0.4,2.61 -3.35,0.97 -4.49,-1.53 -3.46,0.97 0.4,-2.61 3.35,-0.97 4.6,1.59 z"
                   fill="#ffffff"
                   fill-opacity="0.71"
                   fill-rule="nonzero"
                   id="svg_62" />
              </g>
            </g>
            <path
               d="M 320.68,518.04 H 480.5 l 0.97,0.17 0.79,0.34 1.25,1.19 0.34,0.85 0.11,0.91 v 27.59 l -0.11,0.91 -0.34,0.79 -1.25,1.25 -0.79,0.34 -0.97,0.11 H 320.68 l -0.91,-0.11 -0.79,-0.34 -0.74,-0.51 -0.51,-0.74 -0.34,-0.79 -0.17,-0.91 V 521.5 l 0.17,-0.91 0.34,-0.85 0.51,-0.68 0.74,-0.51 0.79,-0.34 z"
               fill="#d6efd8"
               fill-rule="nonzero"
               id="svg_12"
               stroke="#ffffff"
               stroke-width="2.26" />
            <path
               d="m 472.56,536.15 -0.4,2.04 -0.97,1.7 -1.53,1.25 -0.91,0.45 -2.04,0.34 -1.99,-0.34 -0.91,-0.45 -1.53,-1.25 -1.02,-1.7 -0.34,-2.04 0.34,-2.04 0.45,-0.91 1.25,-1.48 1.76,-1.02 1.99,-0.34 2.04,0.34 1.7,1.02 1.31,1.48 0.4,0.91 z"
               fill="#d6efd8"
               fill-rule="nonzero"
               id="svg_4" />
            <path
               d="M 320.68,589.58 H 480.5 l 0.97,0.11 0.79,0.34 0.68,0.57 0.57,0.68 0.45,1.76 v 27.54 l -0.45,1.76 -1.25,1.25 -0.79,0.34 -0.97,0.11 H 320.68 l -0.91,-0.11 -0.79,-0.34 -0.74,-0.57 -0.51,-0.68 -0.34,-0.79 -0.17,-0.97 v -27.54 l 0.17,-0.97 0.34,-0.79 0.51,-0.68 1.53,-0.91 z"
               fill="#d6efd8"
               fill-rule="nonzero"
               id="矩形备份-9"
               stroke="#ffffff"
               stroke-width="2.26" />
            <path
               d="M 320.68,630.91 H 480.5 l 0.97,0.17 0.79,0.28 1.25,1.25 0.45,1.76 v 27.59 l -0.11,0.91 -0.34,0.79 -0.57,0.74 -0.68,0.51 -0.79,0.34 -0.97,0.11 H 320.68 l -0.91,-0.11 -0.79,-0.34 -1.25,-1.25 -0.34,-0.79 -0.17,-0.91 v -27.59 l 0.17,-0.97 0.34,-0.79 0.51,-0.68 0.74,-0.57 0.79,-0.28 z"
               fill="#d6efd8"
               fill-rule="nonzero"
               id="矩形备份-10"
               stroke="#ffffff"
               stroke-width="2.26" />
            <path
               d="m 472.56,606.78 -0.4,2.04 -0.97,1.7 -1.53,1.31 -0.91,0.4 -2.04,0.4 -1.99,-0.4 -0.91,-0.4 -1.53,-1.31 -1.02,-1.7 -0.34,-2.04 0.34,-1.99 0.45,-0.91 1.25,-1.53 1.76,-1.02 1.99,-0.34 2.04,0.34 1.76,1.02 1.25,1.53 0.4,0.91 z"
               fill="#9eb384"
               fill-rule="nonzero"
               id="椭圆形备份-22" />
            <path
               d="m 472.56,648.17 -0.4,2.04 -0.4,0.85 -1.25,1.53 -1.76,1.02 -2.04,0.34 -1.99,-0.34 -1.76,-1.02 -1.25,-1.53 -0.68,-1.87 v -2.1 l 0.23,-0.97 1.02,-1.7 1.53,-1.31 0.91,-0.4 1.99,-0.4 2.04,0.4 1.7,1.02 1.31,1.48 0.4,0.91 0.4,2.04 z"
               fill="#9eb384"
               fill-rule="nonzero"
               id="椭圆形备份-23" />
          </g>
          <g
             id="svg_63">
            <path
               d="m 521.16,331.24 -0.17,3.97 -0.45,3.8 -0.79,3.75 -1.02,3.69 -1.36,3.58 -1.59,3.46 -1.87,3.35 -2.16,3.29 -2.33,3.07 -2.55,2.95 -2.84,2.84 -3.01,2.73 -3.18,2.44 -3.41,2.33 -3.58,2.16 -3.8,1.99 -3.86,1.76 -4.03,1.53 -4.14,1.36 -4.37,1.14 -4.37,0.85 -4.54,0.62 -4.6,0.4 -4.77,0.17 -4.77,-0.17 -4.66,-0.4 -4.49,-0.62 -4.43,-0.85 -4.37,-1.14 -4.14,-1.36 -4.03,-1.53 -3.86,-1.76 -3.8,-1.99 -3.58,-2.16 -3.35,-2.33 -3.24,-2.44 -3.01,-2.73 -2.84,-2.84 -2.55,-2.95 -2.33,-3.07 -2.16,-3.29 -1.87,-3.35 -1.59,-3.46 -1.31,-3.58 -1.08,-3.69 -0.79,-3.75 -0.45,-3.8 -0.17,-3.97 0.17,-3.92 0.45,-3.86 0.79,-3.75 1.08,-3.69 1.31,-3.58 1.59,-3.46 1.87,-3.35 2.16,-3.24 2.33,-3.12 2.55,-2.95 2.84,-2.84 3.01,-2.67 3.24,-2.5 3.35,-2.33 3.58,-2.16 3.8,-1.99 3.86,-1.76 4.03,-1.53 4.14,-1.31 4.37,-1.14 4.43,-0.91 4.49,-0.62 4.66,-0.4 4.77,-0.11 4.77,0.11 4.6,0.4 4.54,0.62 4.37,0.91 4.37,1.14 4.14,1.31 4.03,1.53 3.86,1.76 3.8,1.99 3.58,2.16 3.41,2.33 3.18,2.5 3.01,2.67 2.84,2.84 2.55,2.95 2.33,3.12 2.16,3.24 1.87,3.35 1.59,3.46 1.36,3.58 1.02,3.69 0.79,3.75 0.45,3.86 z"
               fill="url(#linearGradient-16)"
               fill-rule="evenodd"
               id="svg_5"
               style="fill:url(#linearGradient-16)" />
            <g
               id="svg_64">
              <path
                 d="m 617.96,376.1 -0.51,1.48 -0.79,1.36 -1.14,1.36 -1.59,1.36 -2.16,1.31 -2.61,1.25 -3.24,1.19 -3.97,1.14 -4.71,1.02 -6.25,0.97 -7.27,0.74 -8.46,0.51 -8.4,0.28 h -9.37 l -10.39,-0.28 -21.4,-1.31 -23.79,-2.27 -25.55,-3.41 -13,-1.99 -27.37,-4.94 -27.2,-5.68 -12.83,-3.01 -24.98,-6.47 -22.88,-6.76 -20.38,-6.81 -9.71,-3.63 -8.69,-3.52 -7.72,-3.41 -7.66,-3.63 -6.42,-3.46 -5.39,-3.18 -4.03,-2.73 -3.24,-2.5 -2.55,-2.33 -1.99,-2.16 -1.48,-1.99 -0.97,-1.87 -0.57,-1.7 -0.23,-1.59 0.11,-1.53 0.45,-1.42 0.79,-1.42 1.19,-1.36 1.59,-1.31 2.1,-1.36 2.67,-1.19 3.24,-1.19 3.92,-1.14 4.77,-1.02 6.19,-0.97 7.27,-0.74 8.46,-0.57 8.46,-0.23 h 9.37 l 10.33,0.28 10.33,0.51 11.13,0.74 23.79,2.33 25.49,3.35 13.06,2.04 27.37,4.88 27.2,5.73 12.83,3.01 24.92,6.42 22.94,6.76 20.33,6.87 9.71,3.63 8.69,3.52 7.78,3.35 7.61,3.69 6.47,3.41 5.39,3.24 4.03,2.73 3.24,2.5 2.55,2.33 1.99,2.16 1.48,1.99 0.97,1.82 0.57,1.7 0.23,1.59 -0.11,1.53 z"
                 fill="#d6efd8"
                 fill-rule="nonzero"
                 id="svg_6" />
            </g>
            <g
               id="svg_65">
              <path
                 d="m 317.62,301.21 -0.45,0.74 -2.16,1.02 -4.26,0.91 -2.61,0.28 -2.61,0.06 -4.31,-0.28 -1.48,-0.34 -1.25,-0.68 v -0.74 l 0.34,-0.4 2.16,-0.97 4.26,-0.91 2.61,-0.28 2.61,-0.11 4.31,0.28 2.27,0.74 z"
                 fill="#ffffff"
                 fill-opacity="0.41"
                 fill-rule="evenodd"
                 id="svg_7" />
            </g>
            <g
               id="svg_66">
              <path
                 d="m 372.41,303.76 -0.51,0.68 -2.27,0.68 -4.37,0.28 -2.61,-0.06 -2.61,-0.28 -4.26,-0.91 -1.36,-0.51 -1.14,-0.91 -0.11,-0.34 0.17,-0.34 0.4,-0.34 2.27,-0.74 4.31,-0.28 2.67,0.11 2.61,0.28 4.26,0.91 2.1,0.97 0.45,0.79 z"
                 fill="#ffffff"
                 fill-opacity="0.41"
                 fill-rule="evenodd"
                 id="椭圆形备份-24" />
            </g>
            <g
               id="svg_67">
              <path
                 d="m 422.88,311.43 -0.62,0.68 -2.33,0.45 -4.31,-0.06 -2.61,-0.34 -2.61,-0.51 -4.14,-1.25 -1.31,-0.62 -1.08,-0.97 -0.06,-0.4 0.17,-0.34 0.45,-0.28 2.33,-0.51 4.31,0.06 2.61,0.34 2.61,0.51 4.14,1.25 2.04,1.19 0.4,0.79 z"
                 fill="#ffffff"
                 fill-opacity="0.41"
                 fill-rule="evenodd"
                 id="椭圆形备份-25" />
            </g>
            <g
               id="svg_68">
              <path
                 d="m 470.52,321.37 -0.23,0.28 -0.45,0.28 -2.38,0.28 -4.31,-0.45 -2.55,-0.57 -2.5,-0.68 -4.03,-1.65 -1.25,-0.74 -1.02,-1.08 v -0.4 l 0.17,-0.28 0.51,-0.28 2.33,-0.28 4.31,0.45 2.55,0.57 2.55,0.68 4.03,1.65 1.93,1.36 0.34,0.85 z"
                 fill="#ffffff"
                 fill-opacity="0.41"
                 fill-rule="evenodd"
                 id="椭圆形备份-26" />
            </g>
            <g
               id="svg_69">
              <path
                 d="m 523.03,333.4 -0.62,0.62 -2.38,0.34 -4.31,-0.28 -2.55,-0.45 -2.61,-0.62 -4.03,-1.53 -1.31,-0.68 -1.02,-1.02 0.17,-0.68 0.45,-0.34 2.33,-0.34 4.31,0.28 2.61,0.45 2.55,0.68 4.09,1.48 1.99,1.25 0.34,0.85 z"
                 fill="#ffffff"
                 fill-opacity="0.41"
                 fill-rule="evenodd"
                 id="椭圆形备份-27" />
            </g>
            <g
               id="svg_70">
              <path
                 d="m 561.07,345.95 -0.74,0.45 -2.38,-0.11 -4.2,-1.08 -2.44,-0.97 -2.38,-1.14 -3.69,-2.21 -1.14,-0.97 -0.79,-1.19 0.28,-0.62 0.51,-0.23 2.33,0.11 4.2,1.14 2.44,0.91 2.44,1.14 3.69,2.21 1.7,1.65 z"
                 fill="#ffffff"
                 fill-opacity="0.41"
                 fill-rule="evenodd"
                 id="椭圆形备份-28" />
            </g>
            <g
               id="svg_71">
              <path
                 d="m 593.32,360.65 -0.79,0.4 -2.1,-0.17 -3.63,-1.31 -2.04,-1.08 -1.99,-1.19 -3.01,-2.38 -1.31,-1.65 -0.06,-0.85 0.79,-0.45 2.1,0.23 3.58,1.31 2.1,1.02 1.99,1.19 3.01,2.38 1.31,1.7 0.06,0.85 z"
                 fill="#ffffff"
                 fill-opacity="0.41"
                 fill-rule="evenodd"
                 id="椭圆形备份-29" />
            </g>
            <g
               id="svg_72">
              <path
                 d="m 491.13,379.11 -0.4,1.53 -0.74,1.36 -1.19,1.42 -1.59,1.31 -1.65,1.08 -4.49,1.99 -2.9,0.91 -3.86,0.91 -4.37,0.74 -5,0.51 -5,0.28 -5.45,0.11 -5.9,-0.17 -5.9,-0.4 -6.13,-0.62 -6.47,-0.91 -6.42,-1.14 -11.75,-2.78 -5.68,-1.65 -5.11,-1.76 -4.71,-1.82 -4.6,-2.04 -3.92,-2.04 -3.35,-2.04 -4.49,-3.41 -2.95,-3.18 -1.08,-1.76 -0.68,-1.65 -0.28,-1.59 0.06,-1.53 0.45,-1.48 0.74,-1.42 1.14,-1.36 1.59,-1.36 3.75,-2.1 2.44,-0.97 2.9,-0.91 3.8,-0.91 4.43,-0.74 5,-0.51 5,-0.28 5.45,-0.11 11.75,0.57 12.6,1.53 6.42,1.14 11.81,2.78 5.62,1.65 5.17,1.76 4.66,1.82 4.6,2.04 3.97,2.04 3.35,2.04 2.44,1.76 3.69,3.29 1.25,1.53 1.14,1.76 0.62,1.65 0.28,1.59 -0.06,1.53 z"
                 fill="#f0fff1"
                 fill-rule="nonzero"
                 id="svg_8" />
            </g>
            <path
               d="m 375.02,361.05 -133.99,222.11 251.92,17.37 -4.94,-217.17 -13.85,-0.74 -12.77,-1.02 -11.81,-1.19 -10.84,-1.48 -9.99,-1.59 -8.29,-1.65 -8.57,-2.1 -8.8,-2.44 -9.08,-2.9 -9.31,-3.41 -9.65,-3.8 z"
               fill="url(#linearGradient-17)"
               fill-rule="evenodd"
               id="路径-19"
               style="fill:url(#linearGradient-17)" />
          </g>
        </g>
      </g>
    </g>
  </g>
</svg>
