<?xml version="1.0" encoding="UTF-8" standalone="no"?>
<svg
   height="800"
   node-id="1"
   sillyvg="true"
   template-height="800"
   version="1.1"
   viewBox="0 0 800 800"
   width="800"
   id="svg45"
   sodipodi:docname="sign-up.svg"
   inkscape:version="1.3.2 (091e20e, 2023-11-25)"
   xmlns:inkscape="http://www.inkscape.org/namespaces/inkscape"
   xmlns:sodipodi="http://sodipodi.sourceforge.net/DTD/sodipodi-0.dtd"
   xmlns="http://www.w3.org/2000/svg"
   xmlns:svg="http://www.w3.org/2000/svg">
  <sodipodi:namedview
     id="namedview45"
     pagecolor="#ffffff"
     bordercolor="#000000"
     borderopacity="0.25"
     inkscape:showpageshadow="2"
     inkscape:pageopacity="0.0"
     inkscape:pagecheckerboard="0"
     inkscape:deskcolor="#d1d1d1"
     inkscape:zoom="0.66792169"
     inkscape:cx="795.00338"
     inkscape:cy="438.67418"
     inkscape:window-width="1920"
     inkscape:window-height="927"
     inkscape:window-x="1440"
     inkscape:window-y="25"
     inkscape:window-maximized="0"
     inkscape:current-layer="svg45" />
  <defs
     node-id="83"
     id="defs27">
    <linearGradient
       gradientUnits="userSpaceOnUse"
       id="linearGradient-3"
       node-id="6"
       spreadMethod="pad"
       x1="310.36582"
       x2="310.36582"
       y1="1428.6551"
       y2="1574.5839"
       gradientTransform="scale(1.3827467,0.72319828)">
      <stop
         offset="0"
         stop-color="#d6efd8"
         id="stop1" />
      <stop
         offset="1"
         stop-color="#e2ffd7"
         id="stop2" />
    </linearGradient>
    <linearGradient
       gradientUnits="userSpaceOnUse"
       id="linearGradient-4"
       node-id="9"
       spreadMethod="pad"
       x1="547.07293"
       x2="547.07293"
       y1="2186.0168"
       y2="2249.0767"
       gradientTransform="scale(2.053799,0.48690256)">
      <stop
         offset="0"
         stop-color="#d6efd8"
         id="stop3" />
      <stop
         offset="1"
         stop-color="#e2ffd7"
         id="stop4" />
    </linearGradient>
    <linearGradient
       gradientUnits="userSpaceOnUse"
       id="linearGradient-5"
       node-id="12"
       spreadMethod="pad"
       x1="55.639801"
       x2="632.98572"
       y1="2792.9953"
       y2="2814.0326"
       gradientTransform="scale(2.1404904,0.46718265)">
      <stop
         offset="0"
         stop-color="#a6cf98"
         id="stop5" />
      <stop
         offset="1"
         stop-color="#e2ffd7"
         id="stop6" />
    </linearGradient>
    <linearGradient
       gradientUnits="userSpaceOnUse"
       id="linearGradient-6"
       node-id="15"
       spreadMethod="pad"
       x1="738.01647"
       x2="738.01647"
       y1="1155.1335"
       y2="1604.3868"
       gradientTransform="scale(1.0976042,0.91107523)">
      <stop
         offset="0"
         stop-color="#a6cf98"
         id="stop7" />
      <stop
         offset="1"
         stop-color="#c6ebc5"
         id="stop8" />
    </linearGradient>
    <linearGradient
       gradientUnits="userSpaceOnUse"
       id="linearGradient-9"
       node-id="22"
       spreadMethod="pad"
       x1="505.80614"
       x2="477.81544"
       y1="1100.9972"
       y2="1089.1891"
       gradientTransform="scale(0.96667017,1.034479)">
      <stop
         offset="0"
         stop-color="#a6cf98"
         id="stop9" />
      <stop
         offset="1"
         stop-color="#c6ebc5"
         id="stop10" />
    </linearGradient>
    <linearGradient
       gradientUnits="userSpaceOnUse"
       id="linearGradient-11"
       node-id="27"
       spreadMethod="pad"
       x1="1282.6863"
       x2="1257.9822"
       y1="1106.6144"
       y2="1096.1927"
       gradientTransform="scale(0.96662795,1.0345242)">
      <stop
         offset="0"
         stop-color="#a6cf98"
         id="stop11" />
      <stop
         offset="1"
         stop-color="#c6ebc5"
         id="stop12" />
    </linearGradient>
    <linearGradient
       gradientUnits="userSpaceOnUse"
       id="linearGradient-13"
       node-id="32"
       spreadMethod="pad"
       x1="1170.1872"
       x2="1137.058"
       y1="1115.3703"
       y2="1101.3945"
       gradientTransform="scale(0.96595856,1.0352411)">
      <stop
         offset="0"
         stop-color="#a6cf98"
         id="stop13" />
      <stop
         offset="1"
         stop-color="#c6ebc5"
         id="stop14" />
    </linearGradient>
    <linearGradient
       gradientUnits="userSpaceOnUse"
       id="linearGradient-14"
       node-id="35"
       spreadMethod="pad"
       x1="569.58879"
       x2="602.72366"
       y1="859.16312"
       y2="905.50484"
       gradientTransform="scale(1.3520088,0.73964013)">
      <stop
         offset="0"
         stop-color="#edfae8"
         id="stop15" />
      <stop
         offset="1"
         stop-color="#a6cf98"
         id="stop16" />
    </linearGradient>
    <linearGradient
       gradientUnits="userSpaceOnUse"
       id="linearGradient-15"
       node-id="38"
       spreadMethod="pad"
       x1="1022.645"
       x2="1299.9094"
       y1="685.31791"
       y2="901.6755"
       gradientTransform="scale(0.99502639,1.0049985)">
      <stop
         offset="0"
         stop-color="#b7e2a8"
         id="stop17" />
      <stop
         offset="1"
         stop-color="#edfae8"
         id="stop18" />
    </linearGradient>
    <filter
       height="1.1492615"
       id="filter-7"
       node-id="18"
       width="1.1208307"
       x="-0.060415356"
       y="-0.074630733">
      <feGaussianBlur
         color-interpolation-filters="linearRGB"
         in="SourceGraphic"
         result="result1"
         stdDeviation="12 12"
         id="feGaussianBlur18" />
    </filter>
    <filter
       height="1.5962733"
       id="filter-8"
       node-id="20"
       width="1.4507042"
       x="-0.22535211"
       y="-0.29813665">
      <feGaussianBlur
         color-interpolation-filters="linearRGB"
         in="SourceGraphic"
         result="result1"
         stdDeviation="2 2"
         id="feGaussianBlur19" />
    </filter>
    <filter
       height="1.5962733"
       id="filter-10"
       node-id="25"
       width="1.4485981"
       x="-0.22429907"
       y="-0.29813665">
      <feGaussianBlur
         color-interpolation-filters="linearRGB"
         in="SourceGraphic"
         result="result1"
         stdDeviation="2 2"
         id="feGaussianBlur20" />
    </filter>
    <filter
       height="1.5925926"
       id="filter-12"
       node-id="30"
       width="1.4528302"
       x="-0.22641509"
       y="-0.2962963">
      <feGaussianBlur
         color-interpolation-filters="linearRGB"
         in="SourceGraphic"
         result="result1"
         stdDeviation="2 2"
         id="feGaussianBlur21" />
    </filter>
    <mask
       height="410.40002"
       id="mask-2"
       maskUnits="userSpaceOnUse"
       node-id="44"
       width="784.71655"
       x="80.676544"
       y="978.8097">
      <path
         d="M 1464.00 800.00 L 1463.80 817.70 L 1463.10 835.20 L 1461.90 852.70 L 1460.30 870.00 L 1458.20 887.30 L 1455.70 904.50 L 1452.80 921.70 L 1449.40 938.70 L 1445.50 955.60 L 1441.20 972.30 L 1436.50 989.00 L 1431.40 1005.50 L 1425.80 1021.90 L 1419.90 1038.10 L 1413.50 1054.10 L 1406.60 1070.00 L 1399.40 1085.60 L 1391.80 1101.20 L 1383.70 1116.50 L 1375.30 1131.60 L 1366.50 1146.40 L 1357.20 1161.10 L 1347.60 1175.50 L 1337.60 1189.80 L 1327.20 1203.70 L 1316.40 1217.40 L 1305.30 1230.80 L 1293.70 1244.00 L 1281.80 1256.90 L 1269.50 1269.50 L 1256.90 1281.80 L 1244.00 1293.70 L 1230.80 1305.30 L 1217.40 1316.40 L 1203.70 1327.20 L 1189.80 1337.60 L 1175.50 1347.60 L 1161.10 1357.20 L 1146.40 1366.50 L 1131.60 1375.30 L 1116.50 1383.70 L 1101.20 1391.80 L 1085.60 1399.40 L 1070.00 1406.60 L 1054.10 1413.50 L 1038.10 1419.90 L 1021.90 1425.80 L 1005.50 1431.40 L 989.00 1436.50 L 972.30 1441.20 L 955.60 1445.50 L 938.70 1449.40 L 921.70 1452.80 L 904.50 1455.70 L 887.30 1458.20 L 870.00 1460.30 L 852.70 1461.90 L 835.20 1463.10 L 817.70 1463.80 L 800.00 1464.00 L 782.30 1463.80 L 764.80 1463.10 L 747.30 1461.90 L 730.00 1460.30 L 712.70 1458.20 L 695.50 1455.70 L 678.30 1452.80 L 661.30 1449.40 L 644.40 1445.50 L 627.70 1441.20 L 611.00 1436.50 L 594.50 1431.40 L 578.10 1425.80 L 561.90 1419.90 L 545.90 1413.50 L 530.00 1406.60 L 514.40 1399.40 L 498.80 1391.80 L 483.50 1383.70 L 468.40 1375.30 L 453.60 1366.50 L 438.90 1357.20 L 424.50 1347.60 L 410.20 1337.60 L 396.30 1327.20 L 382.60 1316.40 L 369.20 1305.30 L 356.00 1293.70 L 343.10 1281.80 L 330.50 1269.50 L 318.20 1256.90 L 306.30 1244.00 L 294.70 1230.80 L 283.60 1217.40 L 272.80 1203.70 L 262.40 1189.80 L 252.40 1175.50 L 242.80 1161.10 L 233.50 1146.40 L 224.70 1131.60 L 216.30 1116.50 L 208.20 1101.20 L 200.60 1085.60 L 193.40 1070.00 L 186.50 1054.10 L 180.10 1038.10 L 174.20 1021.90 L 168.60 1005.50 L 163.50 989.00 L 158.80 972.30 L 154.50 955.60 L 150.60 938.70 L 147.20 921.70 L 144.30 904.50 L 141.80 887.30 L 139.70 870.00 L 138.10 852.70 L 136.90 835.20 L 136.20 817.70 L 136.00 800.00 L 136.20 782.30 L 136.90 764.80 L 138.10 747.30 L 139.70 730.00 L 141.80 712.70 L 144.30 695.50 L 147.20 678.30 L 150.60 661.30 L 154.50 644.40 L 158.80 627.70 L 163.50 611.00 L 168.60 594.50 L 174.20 578.10 L 180.10 561.90 L 186.50 545.90 L 193.40 530.00 L 200.60 514.40 L 208.20 498.80 L 216.30 483.50 L 224.70 468.40 L 233.50 453.60 L 242.80 438.90 L 252.40 424.50 L 262.40 410.20 L 272.80 396.30 L 283.60 382.60 L 294.70 369.20 L 306.30 356.00 L 318.20 343.10 L 330.50 330.50 L 343.10 318.20 L 356.00 306.30 L 369.20 294.70 L 382.60 283.60 L 396.30 272.80 L 410.20 262.40 L 424.50 252.40 L 438.90 242.80 L 453.60 233.50 L 468.40 224.70 L 483.50 216.30 L 498.80 208.20 L 514.40 200.60 L 530.00 193.40 L 545.90 186.50 L 561.90 180.10 L 578.10 174.20 L 594.50 168.60 L 611.00 163.50 L 627.70 158.80 L 644.40 154.50 L 661.30 150.60 L 678.30 147.20 L 695.50 144.30 L 712.70 141.80 L 730.00 139.70 L 747.30 138.10 L 764.80 136.90 L 782.30 136.20 L 800.00 136.00 L 817.70 136.20 L 835.20 136.90 L 852.70 138.10 L 870.00 139.70 L 887.30 141.80 L 904.50 144.30 L 921.70 147.20 L 938.70 150.60 L 955.60 154.50 L 972.30 158.80 L 989.00 163.50 L 1005.50 168.60 L 1021.90 174.20 L 1038.10 180.10 L 1054.10 186.50 L 1070.00 193.40 L 1085.60 200.60 L 1101.20 208.20 L 1116.50 216.30 L 1131.60 224.70 L 1146.40 233.50 L 1161.10 242.80 L 1175.50 252.40 L 1189.80 262.40 L 1203.70 272.80 L 1217.40 283.60 L 1230.80 294.70 L 1244.00 306.30 L 1256.90 318.20 L 1269.50 330.50 L 1281.80 343.10 L 1293.70 356.00 L 1305.30 369.20 L 1316.40 382.60 L 1327.20 396.30 L 1337.60 410.20 L 1347.60 424.50 L 1357.20 438.90 L 1366.50 453.60 L 1375.30 468.40 L 1383.70 483.50 L 1391.80 498.80 L 1399.40 514.40 L 1406.60 530.00 L 1413.50 545.90 L 1419.90 561.90 L 1425.80 578.10 L 1431.40 594.50 L 1436.50 611.00 L 1441.20 627.70 L 1445.50 644.40 L 1449.40 661.30 L 1452.80 678.30 L 1455.70 695.50 L 1458.20 712.70 L 1460.30 730.00 L 1461.90 747.30 L 1463.10 764.80 L 1463.80 782.30 L 1464.00 800.00 Z"
         fill="#ffffff"
         fill-rule="evenodd"
         node-id="158"
         stroke="none"
         target-height="1328"
         target-width="1328"
         target-x="136"
         target-y="136"
         id="path21" />
    </mask>
    <mask
       height="119.3949"
       id="mask1"
       maskUnits="userSpaceOnUse"
       node-id="162"
       width="503.7456"
       x="899.8817"
       y="1048.5553">
      <path
         d="M 1464.00 800.00 L 1463.80 817.70 L 1463.10 835.20 L 1461.90 852.70 L 1460.30 870.00 L 1458.20 887.30 L 1455.70 904.50 L 1452.80 921.70 L 1449.40 938.70 L 1445.50 955.60 L 1441.20 972.30 L 1436.50 989.00 L 1431.40 1005.50 L 1425.80 1021.90 L 1419.90 1038.10 L 1413.50 1054.10 L 1406.60 1070.00 L 1399.40 1085.60 L 1391.80 1101.20 L 1383.70 1116.50 L 1375.30 1131.60 L 1366.50 1146.40 L 1357.20 1161.10 L 1347.60 1175.50 L 1337.60 1189.80 L 1327.20 1203.70 L 1316.40 1217.40 L 1305.30 1230.80 L 1293.70 1244.00 L 1281.80 1256.90 L 1269.50 1269.50 L 1256.90 1281.80 L 1244.00 1293.70 L 1230.80 1305.30 L 1217.40 1316.40 L 1203.70 1327.20 L 1189.80 1337.60 L 1175.50 1347.60 L 1161.10 1357.20 L 1146.40 1366.50 L 1131.60 1375.30 L 1116.50 1383.70 L 1101.20 1391.80 L 1085.60 1399.40 L 1070.00 1406.60 L 1054.10 1413.50 L 1038.10 1419.90 L 1021.90 1425.80 L 1005.50 1431.40 L 989.00 1436.50 L 972.30 1441.20 L 955.60 1445.50 L 938.70 1449.40 L 921.70 1452.80 L 904.50 1455.70 L 887.30 1458.20 L 870.00 1460.30 L 852.70 1461.90 L 835.20 1463.10 L 817.70 1463.80 L 800.00 1464.00 L 782.30 1463.80 L 764.80 1463.10 L 747.30 1461.90 L 730.00 1460.30 L 712.70 1458.20 L 695.50 1455.70 L 678.30 1452.80 L 661.30 1449.40 L 644.40 1445.50 L 627.70 1441.20 L 611.00 1436.50 L 594.50 1431.40 L 578.10 1425.80 L 561.90 1419.90 L 545.90 1413.50 L 530.00 1406.60 L 514.40 1399.40 L 498.80 1391.80 L 483.50 1383.70 L 468.40 1375.30 L 453.60 1366.50 L 438.90 1357.20 L 424.50 1347.60 L 410.20 1337.60 L 396.30 1327.20 L 382.60 1316.40 L 369.20 1305.30 L 356.00 1293.70 L 343.10 1281.80 L 330.50 1269.50 L 318.20 1256.90 L 306.30 1244.00 L 294.70 1230.80 L 283.60 1217.40 L 272.80 1203.70 L 262.40 1189.80 L 252.40 1175.50 L 242.80 1161.10 L 233.50 1146.40 L 224.70 1131.60 L 216.30 1116.50 L 208.20 1101.20 L 200.60 1085.60 L 193.40 1070.00 L 186.50 1054.10 L 180.10 1038.10 L 174.20 1021.90 L 168.60 1005.50 L 163.50 989.00 L 158.80 972.30 L 154.50 955.60 L 150.60 938.70 L 147.20 921.70 L 144.30 904.50 L 141.80 887.30 L 139.70 870.00 L 138.10 852.70 L 136.90 835.20 L 136.20 817.70 L 136.00 800.00 L 136.20 782.30 L 136.90 764.80 L 138.10 747.30 L 139.70 730.00 L 141.80 712.70 L 144.30 695.50 L 147.20 678.30 L 150.60 661.30 L 154.50 644.40 L 158.80 627.70 L 163.50 611.00 L 168.60 594.50 L 174.20 578.10 L 180.10 561.90 L 186.50 545.90 L 193.40 530.00 L 200.60 514.40 L 208.20 498.80 L 216.30 483.50 L 224.70 468.40 L 233.50 453.60 L 242.80 438.90 L 252.40 424.50 L 262.40 410.20 L 272.80 396.30 L 283.60 382.60 L 294.70 369.20 L 306.30 356.00 L 318.20 343.10 L 330.50 330.50 L 343.10 318.20 L 356.00 306.30 L 369.20 294.70 L 382.60 283.60 L 396.30 272.80 L 410.20 262.40 L 424.50 252.40 L 438.90 242.80 L 453.60 233.50 L 468.40 224.70 L 483.50 216.30 L 498.80 208.20 L 514.40 200.60 L 530.00 193.40 L 545.90 186.50 L 561.90 180.10 L 578.10 174.20 L 594.50 168.60 L 611.00 163.50 L 627.70 158.80 L 644.40 154.50 L 661.30 150.60 L 678.30 147.20 L 695.50 144.30 L 712.70 141.80 L 730.00 139.70 L 747.30 138.10 L 764.80 136.90 L 782.30 136.20 L 800.00 136.00 L 817.70 136.20 L 835.20 136.90 L 852.70 138.10 L 870.00 139.70 L 887.30 141.80 L 904.50 144.30 L 921.70 147.20 L 938.70 150.60 L 955.60 154.50 L 972.30 158.80 L 989.00 163.50 L 1005.50 168.60 L 1021.90 174.20 L 1038.10 180.10 L 1054.10 186.50 L 1070.00 193.40 L 1085.60 200.60 L 1101.20 208.20 L 1116.50 216.30 L 1131.60 224.70 L 1146.40 233.50 L 1161.10 242.80 L 1175.50 252.40 L 1189.80 262.40 L 1203.70 272.80 L 1217.40 283.60 L 1230.80 294.70 L 1244.00 306.30 L 1256.90 318.20 L 1269.50 330.50 L 1281.80 343.10 L 1293.70 356.00 L 1305.30 369.20 L 1316.40 382.60 L 1327.20 396.30 L 1337.60 410.20 L 1347.60 424.50 L 1357.20 438.90 L 1366.50 453.60 L 1375.30 468.40 L 1383.70 483.50 L 1391.80 498.80 L 1399.40 514.40 L 1406.60 530.00 L 1413.50 545.90 L 1419.90 561.90 L 1425.80 578.10 L 1431.40 594.50 L 1436.50 611.00 L 1441.20 627.70 L 1445.50 644.40 L 1449.40 661.30 L 1452.80 678.30 L 1455.70 695.50 L 1458.20 712.70 L 1460.30 730.00 L 1461.90 747.30 L 1463.10 764.80 L 1463.80 782.30 L 1464.00 800.00 Z"
         fill="#ffffff"
         fill-rule="evenodd"
         node-id="166"
         stroke="none"
         target-height="1328"
         target-width="1328"
         target-x="136"
         target-y="136"
         id="path22" />
    </mask>
    <mask
       height="367.20007"
       id="mask2"
       maskUnits="userSpaceOnUse"
       node-id="170"
       width="1682.4"
       x="-46.199997"
       y="1127.4">
      <path
         d="M 1464.00 800.00 L 1463.80 817.70 L 1463.10 835.20 L 1461.90 852.70 L 1460.30 870.00 L 1458.20 887.30 L 1455.70 904.50 L 1452.80 921.70 L 1449.40 938.70 L 1445.50 955.60 L 1441.20 972.30 L 1436.50 989.00 L 1431.40 1005.50 L 1425.80 1021.90 L 1419.90 1038.10 L 1413.50 1054.10 L 1406.60 1070.00 L 1399.40 1085.60 L 1391.80 1101.20 L 1383.70 1116.50 L 1375.30 1131.60 L 1366.50 1146.40 L 1357.20 1161.10 L 1347.60 1175.50 L 1337.60 1189.80 L 1327.20 1203.70 L 1316.40 1217.40 L 1305.30 1230.80 L 1293.70 1244.00 L 1281.80 1256.90 L 1269.50 1269.50 L 1256.90 1281.80 L 1244.00 1293.70 L 1230.80 1305.30 L 1217.40 1316.40 L 1203.70 1327.20 L 1189.80 1337.60 L 1175.50 1347.60 L 1161.10 1357.20 L 1146.40 1366.50 L 1131.60 1375.30 L 1116.50 1383.70 L 1101.20 1391.80 L 1085.60 1399.40 L 1070.00 1406.60 L 1054.10 1413.50 L 1038.10 1419.90 L 1021.90 1425.80 L 1005.50 1431.40 L 989.00 1436.50 L 972.30 1441.20 L 955.60 1445.50 L 938.70 1449.40 L 921.70 1452.80 L 904.50 1455.70 L 887.30 1458.20 L 870.00 1460.30 L 852.70 1461.90 L 835.20 1463.10 L 817.70 1463.80 L 800.00 1464.00 L 782.30 1463.80 L 764.80 1463.10 L 747.30 1461.90 L 730.00 1460.30 L 712.70 1458.20 L 695.50 1455.70 L 678.30 1452.80 L 661.30 1449.40 L 644.40 1445.50 L 627.70 1441.20 L 611.00 1436.50 L 594.50 1431.40 L 578.10 1425.80 L 561.90 1419.90 L 545.90 1413.50 L 530.00 1406.60 L 514.40 1399.40 L 498.80 1391.80 L 483.50 1383.70 L 468.40 1375.30 L 453.60 1366.50 L 438.90 1357.20 L 424.50 1347.60 L 410.20 1337.60 L 396.30 1327.20 L 382.60 1316.40 L 369.20 1305.30 L 356.00 1293.70 L 343.10 1281.80 L 330.50 1269.50 L 318.20 1256.90 L 306.30 1244.00 L 294.70 1230.80 L 283.60 1217.40 L 272.80 1203.70 L 262.40 1189.80 L 252.40 1175.50 L 242.80 1161.10 L 233.50 1146.40 L 224.70 1131.60 L 216.30 1116.50 L 208.20 1101.20 L 200.60 1085.60 L 193.40 1070.00 L 186.50 1054.10 L 180.10 1038.10 L 174.20 1021.90 L 168.60 1005.50 L 163.50 989.00 L 158.80 972.30 L 154.50 955.60 L 150.60 938.70 L 147.20 921.70 L 144.30 904.50 L 141.80 887.30 L 139.70 870.00 L 138.10 852.70 L 136.90 835.20 L 136.20 817.70 L 136.00 800.00 L 136.20 782.30 L 136.90 764.80 L 138.10 747.30 L 139.70 730.00 L 141.80 712.70 L 144.30 695.50 L 147.20 678.30 L 150.60 661.30 L 154.50 644.40 L 158.80 627.70 L 163.50 611.00 L 168.60 594.50 L 174.20 578.10 L 180.10 561.90 L 186.50 545.90 L 193.40 530.00 L 200.60 514.40 L 208.20 498.80 L 216.30 483.50 L 224.70 468.40 L 233.50 453.60 L 242.80 438.90 L 252.40 424.50 L 262.40 410.20 L 272.80 396.30 L 283.60 382.60 L 294.70 369.20 L 306.30 356.00 L 318.20 343.10 L 330.50 330.50 L 343.10 318.20 L 356.00 306.30 L 369.20 294.70 L 382.60 283.60 L 396.30 272.80 L 410.20 262.40 L 424.50 252.40 L 438.90 242.80 L 453.60 233.50 L 468.40 224.70 L 483.50 216.30 L 498.80 208.20 L 514.40 200.60 L 530.00 193.40 L 545.90 186.50 L 561.90 180.10 L 578.10 174.20 L 594.50 168.60 L 611.00 163.50 L 627.70 158.80 L 644.40 154.50 L 661.30 150.60 L 678.30 147.20 L 695.50 144.30 L 712.70 141.80 L 730.00 139.70 L 747.30 138.10 L 764.80 136.90 L 782.30 136.20 L 800.00 136.00 L 817.70 136.20 L 835.20 136.90 L 852.70 138.10 L 870.00 139.70 L 887.30 141.80 L 904.50 144.30 L 921.70 147.20 L 938.70 150.60 L 955.60 154.50 L 972.30 158.80 L 989.00 163.50 L 1005.50 168.60 L 1021.90 174.20 L 1038.10 180.10 L 1054.10 186.50 L 1070.00 193.40 L 1085.60 200.60 L 1101.20 208.20 L 1116.50 216.30 L 1131.60 224.70 L 1146.40 233.50 L 1161.10 242.80 L 1175.50 252.40 L 1189.80 262.40 L 1203.70 272.80 L 1217.40 283.60 L 1230.80 294.70 L 1244.00 306.30 L 1256.90 318.20 L 1269.50 330.50 L 1281.80 343.10 L 1293.70 356.00 L 1305.30 369.20 L 1316.40 382.60 L 1327.20 396.30 L 1337.60 410.20 L 1347.60 424.50 L 1357.20 438.90 L 1366.50 453.60 L 1375.30 468.40 L 1383.70 483.50 L 1391.80 498.80 L 1399.40 514.40 L 1406.60 530.00 L 1413.50 545.90 L 1419.90 561.90 L 1425.80 578.10 L 1431.40 594.50 L 1436.50 611.00 L 1441.20 627.70 L 1445.50 644.40 L 1449.40 661.30 L 1452.80 678.30 L 1455.70 695.50 L 1458.20 712.70 L 1460.30 730.00 L 1461.90 747.30 L 1463.10 764.80 L 1463.80 782.30 L 1464.00 800.00 Z"
         fill="#ffffff"
         fill-rule="evenodd"
         node-id="174"
         stroke="none"
         target-height="1328"
         target-width="1328"
         target-x="136"
         target-y="136"
         id="path23" />
    </mask>
    <mask
       height="470.0891"
       id="mask3"
       maskUnits="userSpaceOnUse"
       node-id="178"
       width="579.01843"
       x="520.54004"
       y="958.0321">
      <path
         d="M 1477.40 1562.90 L 1462.00 1571.50 L 1446.50 1579.70 L 1430.80 1587.40 L 1415.00 1594.70 L 1399.00 1601.50 L 1382.80 1608.00 L 1366.50 1614.00 L 1350.00 1619.50 L 1333.50 1624.70 L 1316.80 1629.30 L 1300.10 1633.60 L 1283.20 1637.40 L 1266.20 1640.80 L 1249.20 1643.70 L 1232.10 1646.20 L 1215.00 1648.20 L 1197.80 1649.80 L 1180.50 1650.90 L 1163.20 1651.60 L 1145.90 1651.80 L 1128.60 1651.60 L 1111.30 1651.00 L 1094.00 1649.80 L 1076.70 1648.30 L 1059.40 1646.20 L 1042.20 1643.80 L 1025.00 1640.80 L 1007.80 1637.40 L 990.70 1633.50 L 973.60 1629.20 L 956.60 1624.40 L 939.80 1619.20 L 923.30 1613.60 L 906.90 1607.50 L 890.70 1601.10 L 874.80 1594.20 L 859.00 1586.90 L 843.40 1579.20 L 828.10 1571.10 L 813.00 1562.60 L 798.20 1553.80 L 783.50 1544.50 L 769.20 1534.90 L 755.00 1524.90 L 741.20 1514.60 L 727.70 1503.90 L 714.40 1492.90 L 701.40 1481.50 L 688.70 1469.80 L 676.30 1457.70 L 664.20 1445.30 L 652.40 1432.60 L 641.00 1419.60 L 629.80 1406.20 L 619.00 1392.60 L 608.60 1378.60 L 598.50 1364.40 L 588.80 1349.90 L 579.40 1335.00 L 570.40 1319.80 L 561.80 1304.40 L 553.60 1288.90 L 545.90 1273.20 L 538.60 1257.30 L 531.70 1241.40 L 525.30 1225.20 L 519.30 1208.80 L 513.70 1192.40 L 508.60 1175.90 L 503.90 1159.20 L 499.70 1142.50 L 495.90 1125.60 L 492.50 1108.60 L 489.60 1091.60 L 487.10 1074.50 L 485.10 1057.40 L 483.50 1040.20 L 482.40 1022.90 L 481.70 1005.60 L 481.40 988.30 L 481.60 971.00 L 482.30 953.70 L 483.40 936.40 L 485.00 919.10 L 487.00 901.80 L 489.50 884.60 L 492.50 867.40 L 495.90 850.20 L 499.70 833.10 L 504.10 816.00 L 508.90 799.00 L 514.10 782.20 L 519.70 765.70 L 525.80 749.30 L 532.20 733.10 L 539.10 717.20 L 546.40 701.40 L 554.10 685.80 L 562.20 670.50 L 570.60 655.40 L 579.50 640.60 L 588.70 625.90 L 598.40 611.50 L 608.30 597.40 L 618.70 583.60 L 629.30 570.10 L 640.40 556.80 L 651.80 543.80 L 663.50 531.10 L 675.60 518.70 L 687.90 506.60 L 700.70 494.80 L 713.70 483.40 L 727.10 472.20 L 740.70 461.40 L 754.60 451.00 L 768.90 440.90 L 783.40 431.20 L 798.30 421.80 L 813.40 412.80 L 828.80 404.20 L 844.40 396.00 L 860.10 388.30 L 875.90 381.00 L 891.90 374.10 L 908.10 367.70 L 924.40 361.70 L 940.90 356.10 L 957.40 351.00 L 974.10 346.30 L 990.80 342.10 L 1007.70 338.30 L 1024.70 334.90 L 1041.70 332.00 L 1058.80 329.50 L 1075.90 327.50 L 1093.10 325.90 L 1110.40 324.80 L 1127.70 324.10 L 1144.90 323.80 L 1162.20 324.00 L 1179.50 324.70 L 1196.90 325.80 L 1214.20 327.40 L 1231.50 329.40 L 1248.70 331.90 L 1265.90 334.90 L 1283.00 338.30 L 1300.20 342.10 L 1317.30 346.50 L 1334.30 351.30 L 1351.10 356.50 L 1367.60 362.10 L 1384.00 368.20 L 1400.10 374.60 L 1416.10 381.50 L 1431.90 388.80 L 1447.50 396.50 L 1462.80 404.60 L 1477.90 413.00 L 1492.70 421.90 L 1507.30 431.10 L 1521.70 440.80 L 1535.80 450.70 L 1549.70 461.00 L 1563.20 471.70 L 1576.50 482.80 L 1589.50 494.20 L 1602.20 505.90 L 1614.60 518.00 L 1626.70 530.30 L 1638.50 543.00 L 1649.90 556.10 L 1661.10 569.50 L 1671.80 583.10 L 1682.30 597.00 L 1692.30 611.30 L 1702.10 625.80 L 1711.40 640.70 L 1720.50 655.80 L 1729.10 671.20 L 1737.30 686.80 L 1745.00 702.50 L 1752.30 718.30 L 1759.10 734.30 L 1765.60 750.50 L 1771.60 766.80 L 1777.10 783.30 L 1782.30 799.80 L 1786.90 816.50 L 1791.20 833.20 L 1795.00 850.10 L 1798.40 867.10 L 1801.30 884.10 L 1803.80 901.20 L 1805.80 918.30 L 1807.40 935.50 L 1808.50 952.80 L 1809.20 970.10 L 1809.40 987.30 L 1809.20 1004.60 L 1808.60 1021.90 L 1807.40 1039.30 L 1805.90 1056.60 L 1803.80 1073.90 L 1801.40 1091.10 L 1798.40 1108.30 L 1795.00 1125.40 L 1791.20 1142.60 L 1786.80 1159.70 L 1782.00 1176.70 L 1776.80 1193.50 L 1771.20 1210.00 L 1765.10 1226.40 L 1758.70 1242.50 L 1751.80 1258.50 L 1744.50 1274.30 L 1736.80 1289.90 L 1728.70 1305.20 L 1720.20 1320.30 L 1711.40 1335.10 L 1702.10 1349.70 L 1692.50 1364.10 L 1682.60 1378.20 L 1672.20 1392.10 L 1661.50 1405.60 L 1650.50 1418.90 L 1639.10 1431.90 L 1627.40 1444.60 L 1615.30 1457.00 L 1602.90 1469.10 L 1590.20 1480.80 L 1577.20 1492.30 L 1563.80 1503.50 L 1550.20 1514.20 L 1536.20 1524.70 L 1522.00 1534.70 L 1507.50 1544.50 L 1492.60 1553.80 L 1477.40 1562.90 Z"
         fill="#ffffff"
         fill-rule="evenodd"
         node-id="182"
         stroke="none"
         target-height="1328"
         target-width="1328"
         target-x="481.4"
         target-y="323.8"
         id="path24" />
    </mask>
    <mask
       height="123.730225"
       id="mask4"
       maskUnits="userSpaceOnUse"
       node-id="186"
       width="136.99744"
       x="-976.6576"
       y="2906.6921">
      <path
         d="M -126.50 3659.70 L -141.90 3668.30 L -157.40 3676.50 L -173.10 3684.20 L -188.90 3691.50 L -204.90 3698.40 L -221.10 3704.80 L -237.40 3710.80 L -253.90 3716.40 L -270.40 3721.50 L -287.10 3726.20 L -303.80 3730.40 L -320.70 3734.20 L -337.70 3737.60 L -354.70 3740.50 L -371.80 3743.00 L -388.90 3745.00 L -406.10 3746.60 L -423.40 3747.70 L -440.70 3748.40 L -458.00 3748.70 L -475.30 3748.40 L -492.60 3747.80 L -509.90 3746.70 L -527.20 3745.10 L -544.50 3743.10 L -561.70 3740.60 L -578.90 3737.60 L -596.10 3734.20 L -613.20 3730.40 L -630.30 3726.00 L -647.30 3721.20 L -664.10 3716.00 L -680.60 3710.40 L -697.00 3704.30 L -713.20 3697.90 L -729.10 3691.00 L -744.90 3683.70 L -760.50 3676.00 L -775.80 3667.90 L -790.90 3659.50 L -805.70 3650.60 L -820.40 3641.40 L -834.80 3631.70 L -848.90 3621.80 L -862.70 3611.40 L -876.20 3600.80 L -889.50 3589.70 L -902.50 3578.30 L -915.20 3566.60 L -927.60 3554.50 L -939.70 3542.20 L -951.50 3529.40 L -962.90 3516.40 L -974.10 3503.00 L -984.90 3489.40 L -995.30 3475.40 L -1005.40 3461.20 L -1015.10 3446.70 L -1024.50 3431.80 L -1033.50 3416.70 L -1042.10 3401.20 L -1050.30 3385.70 L -1058.00 3370.00 L -1065.30 3354.20 L -1072.20 3338.20 L -1078.60 3322.00 L -1084.60 3305.70 L -1090.20 3289.20 L -1095.30 3272.70 L -1100.00 3256.00 L -1104.20 3239.30 L -1108.00 3222.40 L -1111.40 3205.40 L -1114.30 3188.40 L -1116.80 3171.30 L -1118.80 3154.20 L -1120.40 3137.00 L -1121.50 3119.70 L -1122.20 3102.40 L -1122.50 3085.20 L -1122.30 3067.90 L -1121.60 3050.60 L -1120.50 3033.20 L -1118.90 3015.90 L -1116.90 2998.60 L -1114.40 2981.40 L -1111.40 2964.20 L -1108.00 2947.00 L -1104.20 2929.90 L -1099.80 2912.80 L -1095.00 2895.80 L -1089.80 2879.00 L -1084.20 2862.50 L -1078.10 2846.10 L -1071.70 2830.00 L -1064.80 2814.00 L -1057.50 2798.20 L -1049.80 2782.60 L -1041.70 2767.30 L -1033.30 2752.20 L -1024.40 2737.40 L -1015.20 2722.80 L -1005.50 2708.40 L -995.60 2694.30 L -985.20 2680.40 L -974.60 2666.90 L -963.50 2653.60 L -952.10 2640.60 L -940.40 2627.90 L -928.30 2615.50 L -916.00 2603.40 L -903.20 2591.60 L -890.20 2580.20 L -876.80 2569.00 L -863.20 2558.30 L -849.30 2547.80 L -835.00 2537.80 L -820.50 2528.00 L -805.60 2518.60 L -790.50 2509.60 L -775.10 2501.00 L -759.50 2492.80 L -743.80 2485.10 L -728.00 2477.80 L -712.00 2471.00 L -695.80 2464.50 L -679.50 2458.50 L -663.00 2453.00 L -646.50 2447.80 L -629.80 2443.20 L -613.10 2438.90 L -596.20 2435.10 L -579.20 2431.70 L -562.20 2428.80 L -545.10 2426.30 L -528.00 2424.30 L -510.80 2422.70 L -493.50 2421.60 L -476.20 2420.90 L -459.00 2420.70 L -441.70 2420.90 L -424.40 2421.50 L -407.00 2422.70 L -389.70 2424.20 L -372.40 2426.20 L -355.20 2428.70 L -338.00 2431.70 L -320.90 2435.10 L -303.70 2438.90 L -286.60 2443.30 L -269.60 2448.10 L -252.80 2453.30 L -236.30 2458.90 L -219.90 2465.00 L -203.80 2471.40 L -187.80 2478.30 L -172.00 2485.60 L -156.40 2493.30 L -141.10 2501.40 L -126.00 2509.90 L -111.20 2518.70 L -96.60 2527.90 L -82.20 2537.60 L -68.10 2547.50 L -54.20 2557.90 L -40.70 2568.60 L -27.40 2579.60 L -14.40 2591.00 L -1.70 2602.70 L 10.70 2614.80 L 22.80 2627.20 L 34.60 2639.90 L 46.00 2652.90 L 57.20 2666.30 L 67.90 2679.90 L 78.40 2693.90 L 88.40 2708.10 L 98.20 2722.60 L 107.50 2737.50 L 116.60 2752.70 L 125.20 2768.10 L 133.40 2783.60 L 141.10 2799.30 L 148.40 2815.10 L 155.20 2831.10 L 161.70 2847.30 L 167.70 2863.60 L 173.20 2880.10 L 178.40 2896.60 L 183.00 2913.30 L 187.30 2930.00 L 191.10 2946.90 L 194.50 2963.90 L 197.40 2980.90 L 199.90 2998.00 L 201.90 3015.10 L 203.50 3032.30 L 204.60 3049.60 L 205.30 3066.90 L 205.50 3084.20 L 205.30 3101.50 L 204.70 3118.80 L 203.50 3136.10 L 202.00 3153.40 L 199.90 3170.70 L 197.50 3187.90 L 194.50 3205.10 L 191.10 3222.30 L 187.30 3239.40 L 182.90 3256.50 L 178.10 3273.50 L 172.90 3290.30 L 167.30 3306.80 L 161.20 3323.20 L 154.80 3339.30 L 147.90 3355.30 L 140.60 3371.10 L 132.90 3386.70 L 124.80 3402.00 L 116.30 3417.10 L 107.50 3431.90 L 98.20 3446.60 L 88.60 3460.90 L 78.70 3475.00 L 68.30 3488.90 L 57.60 3502.40 L 46.60 3515.70 L 35.20 3528.70 L 23.50 3541.40 L 11.40 3553.80 L -1.00 3565.90 L -13.70 3577.70 L -26.70 3589.10 L -40.10 3600.30 L -53.70 3611.10 L -67.70 3621.50 L -81.90 3631.60 L -96.40 3641.30 L -111.30 3650.70 L -126.50 3659.70 Z"
         fill="#ffffff"
         fill-rule="evenodd"
         node-id="190"
         stroke="none"
         target-height="1328"
         target-width="1328"
         target-x="-1122.5"
         target-y="2420.7"
         id="path25" />
    </mask>
    <mask
       height="107.52734"
       id="mask5"
       maskUnits="userSpaceOnUse"
       node-id="194"
       width="119.929565"
       x="511.44824"
       y="4247.455">
      <path
         d="M 983.00 4337.90 L 967.60 4346.50 L 952.10 4354.70 L 936.40 4362.40 L 920.50 4369.70 L 904.50 4376.50 L 888.40 4383.00 L 872.00 4389.00 L 855.60 4394.50 L 839.10 4399.70 L 822.40 4404.30 L 805.60 4408.60 L 788.80 4412.40 L 771.80 4415.80 L 754.80 4418.70 L 737.70 4421.20 L 720.60 4423.20 L 703.40 4424.80 L 686.10 4425.90 L 668.80 4426.60 L 651.50 4426.80 L 634.20 4426.60 L 616.90 4426.00 L 599.60 4424.80 L 582.30 4423.30 L 565.00 4421.20 L 547.80 4418.80 L 530.60 4415.80 L 513.40 4412.40 L 496.30 4408.50 L 479.20 4404.20 L 462.20 4399.40 L 445.40 4394.20 L 428.80 4388.60 L 412.50 4382.50 L 396.30 4376.10 L 380.40 4369.20 L 364.60 4361.90 L 349.00 4354.20 L 333.70 4346.10 L 318.60 4337.60 L 303.70 4328.80 L 289.10 4319.50 L 274.70 4309.90 L 260.60 4299.90 L 246.80 4289.60 L 233.30 4278.90 L 220.00 4267.90 L 207.00 4256.50 L 194.20 4244.80 L 181.90 4232.70 L 169.80 4220.30 L 158.00 4207.60 L 146.60 4194.60 L 135.40 4181.20 L 124.60 4167.60 L 114.20 4153.60 L 104.10 4139.40 L 94.40 4124.90 L 85.00 4110.00 L 76.00 4094.80 L 67.40 4079.40 L 59.20 4063.90 L 51.50 4048.20 L 44.20 4032.30 L 37.30 4016.40 L 30.90 4000.20 L 24.90 3983.80 L 19.30 3967.40 L 14.20 3950.90 L 9.50 3934.20 L 5.30 3917.50 L 1.50 3900.60 L -1.90 3883.60 L -4.80 3866.60 L -7.30 3849.50 L -9.30 3832.40 L -10.90 3815.20 L -12.00 3797.90 L -12.70 3780.60 L -13.00 3763.30 L -12.80 3746.00 L -12.10 3728.70 L -11.00 3711.40 L -9.40 3694.10 L -7.40 3676.80 L -4.90 3659.60 L -2.00 3642.40 L 1.40 3625.20 L 5.30 3608.10 L 9.70 3591.00 L 14.50 3574.00 L 19.70 3557.20 L 25.30 3540.70 L 31.30 3524.30 L 37.80 3508.10 L 44.70 3492.20 L 52.00 3476.40 L 59.70 3460.80 L 67.80 3445.50 L 76.20 3430.40 L 85.10 3415.60 L 94.30 3400.90 L 103.90 3386.50 L 113.90 3372.40 L 124.20 3358.60 L 134.90 3345.10 L 146.00 3331.80 L 157.40 3318.80 L 169.10 3306.10 L 181.20 3293.70 L 193.50 3281.60 L 206.20 3269.80 L 219.30 3258.40 L 232.70 3247.20 L 246.30 3236.40 L 260.20 3226.00 L 274.50 3215.90 L 289.00 3206.20 L 303.90 3196.80 L 319.00 3187.80 L 334.40 3179.20 L 350.00 3171.00 L 365.70 3163.30 L 381.50 3156.00 L 397.50 3149.10 L 413.70 3142.70 L 430.00 3136.70 L 446.50 3131.10 L 463.00 3126.00 L 479.60 3121.30 L 496.40 3117.10 L 513.30 3113.30 L 530.30 3109.90 L 547.30 3107.00 L 564.40 3104.50 L 581.50 3102.50 L 598.70 3100.90 L 616.00 3099.80 L 633.20 3099.10 L 650.50 3098.80 L 667.80 3099.00 L 685.10 3099.70 L 702.50 3100.80 L 719.80 3102.40 L 737.10 3104.40 L 754.30 3106.90 L 771.50 3109.90 L 788.60 3113.30 L 805.80 3117.10 L 822.90 3121.50 L 839.90 3126.30 L 856.60 3131.50 L 873.20 3137.10 L 889.60 3143.20 L 905.70 3149.60 L 921.70 3156.50 L 937.50 3163.80 L 953.10 3171.50 L 968.40 3179.60 L 983.50 3188.00 L 998.30 3196.90 L 1012.90 3206.10 L 1027.30 3215.80 L 1041.40 3225.70 L 1055.20 3236.00 L 1068.80 3246.70 L 1082.10 3257.80 L 1095.10 3269.20 L 1107.80 3280.90 L 1120.20 3293.00 L 1132.30 3305.30 L 1144.00 3318.10 L 1155.50 3331.10 L 1166.70 3344.50 L 1177.40 3358.10 L 1187.90 3372.00 L 1197.90 3386.30 L 1207.70 3400.80 L 1217.00 3415.70 L 1226.10 3430.80 L 1234.70 3446.20 L 1242.90 3461.80 L 1250.60 3477.50 L 1257.90 3493.30 L 1264.70 3509.30 L 1271.20 3525.50 L 1277.20 3541.80 L 1282.70 3558.30 L 1287.90 3574.80 L 1292.50 3591.50 L 1296.80 3608.20 L 1300.60 3625.10 L 1304.00 3642.10 L 1306.90 3659.10 L 1309.30 3676.20 L 1311.40 3693.30 L 1313.00 3710.50 L 1314.10 3727.80 L 1314.80 3745.10 L 1315.00 3762.30 L 1314.80 3779.60 L 1314.20 3796.90 L 1313.00 3814.30 L 1311.50 3831.60 L 1309.40 3848.90 L 1307.00 3866.10 L 1304.00 3883.30 L 1300.60 3900.40 L 1296.70 3917.60 L 1292.40 3934.70 L 1287.60 3951.70 L 1282.40 3968.50 L 1276.80 3985.00 L 1270.70 4001.40 L 1264.20 4017.50 L 1257.40 4033.50 L 1250.10 4049.30 L 1242.40 4064.90 L 1234.30 4080.20 L 1225.80 4095.30 L 1217.00 4110.10 L 1207.70 4124.70 L 1198.10 4139.10 L 1188.10 4153.20 L 1177.80 4167.10 L 1167.10 4180.60 L 1156.10 4193.90 L 1144.70 4206.90 L 1133.00 4219.60 L 1120.90 4232.00 L 1108.50 4244.10 L 1095.80 4255.80 L 1082.80 4267.30 L 1069.40 4278.50 L 1055.80 4289.20 L 1041.80 4299.70 L 1027.60 4309.70 L 1013.00 4319.50 L 998.20 4328.80 L 983.00 4337.90 Z"
         fill="#ffffff"
         fill-rule="evenodd"
         node-id="198"
         stroke="none"
         target-height="1327.9998"
         target-width="1328"
         target-x="-13"
         target-y="3098.8"
         id="path26" />
    </mask>
    <mask
       height="142.68555"
       id="mask6"
       maskUnits="userSpaceOnUse"
       node-id="202"
       width="160.03516"
       x="279.43127"
       y="4015.2778">
      <path
         d="M 835.10 4219.00 L 819.70 4227.60 L 804.10 4235.80 L 788.40 4243.50 L 772.60 4250.80 L 756.60 4257.60 L 740.40 4264.10 L 724.10 4270.10 L 707.60 4275.60 L 691.10 4280.70 L 674.40 4285.40 L 657.70 4289.70 L 640.80 4293.50 L 623.80 4296.80 L 606.80 4299.80 L 589.70 4302.20 L 572.60 4304.30 L 555.40 4305.90 L 538.10 4307.00 L 520.80 4307.70 L 503.60 4307.90 L 486.30 4307.70 L 469.00 4307.00 L 451.60 4305.90 L 434.30 4304.40 L 417.00 4302.30 L 399.80 4299.90 L 382.60 4296.90 L 365.50 4293.50 L 348.30 4289.60 L 331.20 4285.30 L 314.20 4280.50 L 297.40 4275.30 L 280.90 4269.70 L 264.50 4263.60 L 248.40 4257.10 L 232.40 4250.30 L 216.60 4243.00 L 201.00 4235.30 L 185.70 4227.20 L 170.60 4218.70 L 155.80 4209.90 L 141.20 4200.60 L 126.80 4191.00 L 112.70 4181.00 L 98.80 4170.70 L 85.30 4160.00 L 72.00 4149.00 L 59.00 4137.60 L 46.30 4125.90 L 33.90 4113.80 L 21.80 4101.40 L 10.00 4088.70 L -1.40 4075.70 L -12.60 4062.30 L -23.30 4048.60 L -33.80 4034.70 L -43.80 4020.50 L -53.60 4005.90 L -62.90 3991.10 L -72.00 3975.90 L -80.60 3960.50 L -88.80 3945.00 L -96.50 3929.30 L -103.80 3913.40 L -110.60 3897.40 L -117.10 3881.30 L -123.10 3864.90 L -128.60 3848.50 L -133.80 3831.90 L -138.40 3815.30 L -142.70 3798.50 L -146.50 3781.70 L -149.90 3764.70 L -152.80 3747.70 L -155.30 3730.60 L -157.30 3713.50 L -158.90 3696.30 L -160.00 3679.00 L -160.70 3661.70 L -160.90 3644.40 L -160.70 3627.10 L -160.10 3609.80 L -158.90 3592.50 L -157.40 3575.10 L -155.30 3557.90 L -152.90 3540.70 L -149.90 3523.50 L -146.50 3506.30 L -142.70 3489.20 L -138.30 3472.10 L -133.50 3455.10 L -128.30 3438.30 L -122.70 3421.70 L -116.60 3405.40 L -110.20 3389.20 L -103.30 3373.30 L -96.00 3357.50 L -88.30 3341.90 L -80.20 3326.60 L -71.70 3311.50 L -62.90 3296.60 L -53.60 3282.00 L -44.00 3267.60 L -34.10 3253.50 L -23.70 3239.70 L -13.00 3226.20 L -2.00 3212.90 L 9.40 3199.90 L 21.10 3187.10 L 33.20 3174.80 L 45.60 3162.70 L 58.30 3150.90 L 71.30 3139.50 L 84.70 3128.30 L 98.30 3117.50 L 112.30 3107.10 L 126.50 3097.00 L 141.00 3087.30 L 155.90 3077.90 L 171.10 3068.90 L 186.50 3060.30 L 202.00 3052.10 L 217.70 3044.40 L 233.50 3037.10 L 249.50 3030.20 L 265.70 3023.80 L 282.00 3017.80 L 298.50 3012.20 L 315.00 3007.10 L 331.70 3002.40 L 348.40 2998.20 L 365.30 2994.40 L 382.30 2991.00 L 399.30 2988.10 L 416.40 2985.60 L 433.50 2983.60 L 450.70 2982.00 L 468.00 2980.90 L 485.30 2980.20 L 502.60 2979.90 L 519.90 2980.10 L 537.20 2980.80 L 554.50 2981.90 L 571.80 2983.50 L 589.10 2985.50 L 606.30 2988.00 L 623.50 2990.90 L 640.70 2994.30 L 657.80 2998.20 L 674.90 3002.50 L 691.90 3007.40 L 708.70 3012.60 L 725.20 3018.20 L 741.60 3024.20 L 757.80 3030.70 L 773.70 3037.60 L 789.50 3044.90 L 805.10 3052.60 L 820.40 3060.70 L 835.50 3069.10 L 850.30 3078.00 L 865.00 3087.20 L 879.40 3096.80 L 893.50 3106.80 L 907.30 3117.10 L 920.80 3127.80 L 934.10 3138.90 L 947.10 3150.30 L 959.80 3162.00 L 972.20 3174.10 L 984.30 3186.40 L 996.10 3199.10 L 1007.50 3212.20 L 1018.70 3225.60 L 1029.50 3239.20 L 1039.90 3253.10 L 1050.00 3267.40 L 1059.70 3281.90 L 1069.10 3296.80 L 1078.10 3311.90 L 1086.70 3327.30 L 1094.90 3342.90 L 1102.60 3358.60 L 1109.90 3374.40 L 1116.80 3390.40 L 1123.20 3406.60 L 1129.20 3422.90 L 1134.80 3439.40 L 1139.90 3455.90 L 1144.60 3472.50 L 1148.80 3489.30 L 1152.60 3506.20 L 1156.00 3523.20 L 1158.90 3540.20 L 1161.40 3557.30 L 1163.40 3574.40 L 1165.00 3591.60 L 1166.10 3608.90 L 1166.80 3626.10 L 1167.10 3643.40 L 1166.90 3660.70 L 1166.20 3678.00 L 1165.10 3695.40 L 1163.50 3712.70 L 1161.50 3730.00 L 1159.00 3747.20 L 1156.00 3764.40 L 1152.60 3781.50 L 1148.80 3798.70 L 1144.40 3815.80 L 1139.60 3832.80 L 1134.40 3849.50 L 1128.80 3866.10 L 1122.70 3882.50 L 1116.30 3898.60 L 1109.40 3914.60 L 1102.10 3930.40 L 1094.40 3946.00 L 1086.30 3961.30 L 1077.90 3976.40 L 1069.00 3991.20 L 1059.80 4005.80 L 1050.10 4020.20 L 1040.20 4034.30 L 1029.80 4048.10 L 1019.20 4061.70 L 1008.10 4075.00 L 996.70 4088.00 L 985.00 4100.70 L 972.90 4113.10 L 960.60 4125.20 L 947.80 4136.90 L 934.80 4148.40 L 921.40 4159.60 L 907.80 4170.30 L 893.90 4180.80 L 879.60 4190.80 L 865.10 4200.60 L 850.20 4209.90 L 835.10 4219.00 Z"
         fill="#ffffff"
         fill-rule="evenodd"
         node-id="206"
         stroke="none"
         target-height="1328"
         target-width="1328"
         target-x="-160.9"
         target-y="2979.9"
         id="path27" />
    </mask>
    <clipPath
       clipPathUnits="userSpaceOnUse"
       id="clipPath46">
      <ellipse
         style="fill:#000000;stroke-width:1.18674"
         id="ellipse46"
         cx="805.34381"
         cy="795.75201"
         rx="655.62567"
         ry="656.5141" />
    </clipPath>
  </defs>
  <g
     node-id="217"
     id="g45"
     clip-path="url(#clipPath46)"
     transform="matrix(0.60821102,0,0,0.60821102,-89.36247,-83.188816)">
    <g
       node-id="218"
       id="g42">
      <g
         node-id="220"
         id="g28">
        <path
           d="m 1464,800 -0.2,17.7 -0.7,17.5 -1.2,17.5 -1.6,17.3 -2.1,17.3 -2.5,17.2 -2.9,17.2 -3.4,17 -3.9,16.9 -4.3,16.7 -4.7,16.7 -5.1,16.5 -5.6,16.4 -5.9,16.2 -6.4,16 -6.9,15.9 -7.2,15.6 -7.6,15.6 -8.1,15.3 -8.4,15.1 -8.8,14.8 -9.3,14.7 -9.6,14.4 -10,14.3 -10.4,13.9 -10.8,13.7 -11.1,13.4 -11.6,13.2 -11.9,12.9 -12.3,12.6 -12.6,12.3 -12.9,11.9 -13.2,11.6 -13.4,11.1 -13.7,10.8 -13.9,10.4 -14.3,10 -14.4,9.6 -14.7,9.3 -14.8,8.8 -15.1,8.4 -15.3,8.1 -15.6,7.6 -15.6,7.2 -15.9,6.9 -16,6.4 -16.2,5.9 -16.4,5.6 -16.5,5.1 -16.7,4.7 -16.7,4.3 -16.9,3.9 -17,3.4 -17.2,2.9 -17.2,2.5 -17.3,2.1 -17.3,1.6 -17.5,1.2 -17.5,0.7 -17.7,0.2 -17.7,-0.2 -17.5,-0.7 -17.5,-1.2 -17.3,-1.6 -17.3,-2.1 -17.2,-2.5 -17.2,-2.9 -17,-3.4 -16.9,-3.9 -16.7,-4.3 -16.7,-4.7 -16.5,-5.1 -16.4,-5.6 -16.2,-5.9 -16,-6.4 -15.9,-6.9 -15.6,-7.2 -15.6,-7.6 -15.3,-8.1 -15.1,-8.4 -14.8,-8.8 -14.7,-9.3 -14.4,-9.6 -14.3,-10 -13.9,-10.4 -13.7,-10.8 -13.4,-11.1 -13.2,-11.6 -12.9,-11.9 -12.6,-12.3 -12.3,-12.6 -11.9,-12.9 -11.6,-13.2 -11.1,-13.4 -10.8,-13.7 -10.4,-13.9 -10,-14.3 -9.6,-14.4 -9.3,-14.7 -8.8,-14.8 -8.4,-15.1 -8.1,-15.3 -7.6,-15.6 -7.2,-15.6 -6.9,-15.9 -6.4,-16 -5.9,-16.2 -5.6,-16.4 -5.1,-16.5 -4.7,-16.7 -4.3,-16.7 -3.9,-16.9 -3.4,-17 -2.9,-17.2 -2.5,-17.2 -2.1,-17.3 -1.6,-17.3 -1.2,-17.5 -0.7,-17.5 -0.2,-17.7 0.2,-17.7 0.7,-17.5 1.2,-17.5 1.6,-17.3 2.1,-17.3 2.5,-17.2 2.9,-17.2 3.4,-17 3.9,-16.9 4.3,-16.7 4.7,-16.7 5.1,-16.5 5.6,-16.4 5.9,-16.2 6.4,-16 6.9,-15.9 7.2,-15.6 7.6,-15.6 8.1,-15.3 8.4,-15.1 8.8,-14.8 9.3,-14.7 9.6,-14.4 10,-14.3 10.4,-13.9 10.8,-13.7 11.1,-13.4 11.6,-13.2 11.9,-12.9 12.3,-12.6 12.6,-12.3 12.9,-11.9 13.2,-11.6 13.4,-11.1 13.7,-10.8 13.9,-10.4 14.3,-10 14.4,-9.6 14.7,-9.3 14.8,-8.8 15.1,-8.4 15.3,-8.1 15.6,-7.6 15.6,-7.2 15.9,-6.9 16,-6.4 16.2,-5.9 16.4,-5.6 16.5,-5.1 16.7,-4.7 16.7,-4.3 16.9,-3.9 17,-3.4 17.2,-2.9 17.2,-2.5 17.3,-2.1 17.3,-1.6 17.5,-1.2 17.5,-0.7 17.7,-0.2 17.7,0.2 17.5,0.7 17.5,1.2 17.3,1.6 17.3,2.1 17.2,2.5 17.2,2.9 17,3.4 16.9,3.9 16.7,4.3 16.7,4.7 16.5,5.1 16.4,5.6 16.2,5.9 16,6.4 15.9,6.9 15.6,7.2 15.6,7.6 15.3,8.1 15.1,8.4 14.8,8.8 14.7,9.3 14.4,9.6 14.3,10 13.9,10.4 13.7,10.8 13.4,11.1 13.2,11.6 12.9,11.9 12.6,12.3 12.3,12.6 11.9,12.9 11.6,13.2 11.1,13.4 10.8,13.7 10.4,13.9 10,14.3 9.6,14.4 9.3,14.7 8.8,14.8 8.4,15.1 8.1,15.3 7.6,15.6 7.2,15.6 6.9,15.9 6.4,16 5.9,16.2 5.6,16.4 5.1,16.5 4.7,16.7 4.3,16.7 3.9,16.9 3.4,17 2.9,17.2 2.5,17.2 2.1,17.3 1.6,17.3 1.2,17.5 0.7,17.5 z"
           fill="#f0fff1"
           fill-rule="nonzero"
           group-id="1,2,4"
           node-id="215"
           stroke="none"
           target-height="1328"
           target-width="1328"
           target-x="136"
           target-y="136"
           id="path28" />
      </g>
      <g
         node-id="221"
         id="g29">
        <path
           d="m 446,1355 18.5,-0.3 18.6,-0.9 18.7,-1.5 18.7,-2.1 18.6,-2.7 18.4,-3.2 18.4,-3.7 17.9,-4.2 17.6,-4.7 17.5,-5.3 16.8,-5.6 16.1,-6 23.6,-10 21.5,-10.6 10.5,-5.8 9.9,-5.9 9.1,-6.1 8.6,-6.1 8.5,-6.6 7.7,-6.6 6.9,-6.7 6.3,-6.7 4.8,-5.8 4.3,-5.8 3.8,-5.8 3.2,-5.7 2.8,-5.9 2.4,-6 1.9,-6.1 1.3,-6.2 0.8,-6.1 0.3,-6.3 -0.3,-6.2 -0.8,-6.2 -1.3,-6.1 -1.9,-6.1 -2.4,-6.1 -2.8,-5.8 -3.2,-5.8 -3.8,-5.8 -4.3,-5.8 -4.8,-5.8 -6.3,-6.7 -6.9,-6.7 -7.7,-6.6 -8.5,-6.6 -8.6,-6.1 -9.1,-6 -9.9,-6 -10.5,-5.8 -21.5,-10.6 -23.6,-10 -16.1,-6 -16.8,-5.6 -17.5,-5.2 -17.6,-4.7 -17.9,-4.3 -18.4,-3.7 -18.4,-3.2 -18.6,-2.6 -18.7,-2.1 -18.7,-1.6 -18.6,-0.9 -18.5,-0.3 -17.8,0.3 -17.4,0.9 -17,1.4 -16.5,1.9 -16.7,2.5 -16,3 -15.5,3.5 -15,3.9 -14.9,4.5 -14.3,4.9 -13.6,5.2 -12.9,5.6 -10.3,4.9 -9.8,5.2 -9.3,5.3 -8.7,5.4 -8.3,5.7 -8.3,6.1 -7.6,6.2 -7.1,6.4 -6.5,6.4 -5.9,6.6 -5.8,7.1 -5.1,7.1 -4.4,7.2 -4,7.2 -3.3,7.4 -2.8,7.7 -2.3,7.7 -1.5,7.8 -1,7.9 -0.3,8.1 0.3,8.1 1,7.9 1.5,7.8 2.3,7.8 2.8,7.6 3.3,7.4 4,7.3 4.4,7.2 5.1,7.1 5.8,7 5.9,6.6 6.5,6.5 7.1,6.3 7.6,6.2 8.3,6.2 8.3,5.6 8.7,5.5 9.3,5.3 9.8,5.1 10.3,4.9 12.9,5.6 13.6,5.3 14.3,4.8 14.9,4.5 15,3.9 15.5,3.5 16,3 16.7,2.5 16.5,1.9 17,1.4 17.4,0.9 z"
           fill="url(#linearGradient-3)"
           fill-rule="evenodd"
           group-id="1,2,5"
           id="椭圆形"
           node-id="47"
           stroke="none"
           target-height="342"
           target-width="653.9"
           target-x="146.1"
           target-y="1013"
           style="fill:url(#linearGradient-3)" />
      </g>
      <g
         node-id="222"
         id="g30">
        <path
           d="m 1134.5,1058.5 14.4,0.3 14.5,0.9 14.6,1.4 14.6,1.9 14.4,2.5 14.2,3 14,3.4 13.6,3.9 13.1,4.3 12.9,4.8 12.2,5.1 11.3,5.4 16.2,9 13.9,9.5 6.5,5.2 5.8,5.2 5,5.3 4.5,5.3 3.2,4.6 2.8,4.6 2.3,4.6 1.8,4.6 1.3,4.7 H 941.9 l 1.2,-5.5 1.6,-5.4 2.1,-5.3 2.6,-5.3 3.1,-5.3 4.3,-6.1 4.9,-6 5.6,-5.9 6.4,-5.8 6.7,-5.3 7.2,-5.1 7.9,-5 8.6,-4.7 8.7,-4.2 9.2,-4 9.7,-3.8 10.3,-3.4 10.4,-3 10.7,-2.6 11.2,-2.4 11.7,-1.9 11.6,-1.5 12,-1.1 12.3,-0.7 z"
           fill="url(#linearGradient-4)"
           fill-opacity="0.551708"
           fill-rule="evenodd"
           group-id="1,2,6"
           id="形状结合"
           node-id="48"
           stroke="none"
           target-height="99.5"
           target-width="419.69995"
           target-x="941.9"
           target-y="1058.5"
           style="fill:url(#linearGradient-4)" />
      </g>
      <g
         node-id="223"
         id="g31">
        <path
           d="m 94,1158 h 1402 v 306 H 94 Z"
           fill="url(#linearGradient-5)"
           fill-rule="evenodd"
           group-id="1,2,7"
           id="矩形"
           node-id="49"
           stroke="none"
           target-height="306"
           target-width="1402"
           target-x="94"
           target-y="1158"
           style="fill:url(#linearGradient-5)" />
      </g>
      <g
         node-id="224"
         id="g32">
        <path
           d="m 957.3,1004.1 90,155.9 0.8,2 0.3,2.1 -0.3,2 -0.8,1.9 -1.2,1.6 -1.7,1.3 -370.7,214 -2,0.9 -2,0.2 -2.1,-0.3 -1.8,-0.7 -1.7,-1.3 -1.3,-1.7 -90,-155.9 -0.8,-2 -0.3,-2 0.3,-2 0.8,-1.9 1.2,-1.7 1.7,-1.3 370.7,-214 2,-0.8 2,-0.3 2,0.3 1.9,0.8 1.7,1.2 z"
           fill="url(#linearGradient-6)"
           fill-opacity="0.552774"
           fill-rule="evenodd"
           filter="url(#filter-7)"
           group-id="1,2,8"
           id="矩形备份-16"
           node-id="50"
           stroke="none"
           target-height="385.90002"
           target-width="476.7"
           target-x="571.7"
           target-y="1000.1"
           style="fill:url(#linearGradient-6)" />
      </g>
      <g
         node-id="225"
         id="g35">
        <g
           node-id="228"
           id="g34">
          <path
             d="m 472,1140.7 4.2,0.3 1.9,0.8 1.6,1.3 1.2,1.6 0.8,1.9 0.3,2.1 v 22 l -0.3,2.2 -0.8,1.9 -1.2,1.6 -1.6,1.2 -1.9,0.8 -4.2,0.3 -2.1,-0.3 -1.9,-0.8 -1.6,-1.2 -1.3,-1.6 -0.8,-1.9 -0.3,-2.2 v -22 l 0.3,-2.1 0.8,-1.9 1.3,-1.6 1.6,-1.3 1.9,-0.8 z"
             fill="#a6cf98"
             fill-rule="nonzero"
             group-id="1,2,9,12"
             id="path32"
             node-id="53"
             stroke="none"
             target-height="38"
             target-width="18"
             target-x="464"
             target-y="1140.7" />
          <g
             node-id="231"
             id="g33">
            <path
               d="m 504.6,1161.9 0.4,1.1 v 2.3 l -1.1,2 -1,0.7 -13.6,7.7 H 487 l -2,-1.1 -0.7,-1 -0.6,-2.3 0.6,-2.2 1.6,-1.6 13.7,-7.7 1.1,-0.2 2.2,0.6 z"
               fill="#d6efd8"
               fill-rule="nonzero"
               filter="url(#filter-8)"
               group-id="1,2,9,12,15"
               id="矩形备份-3"
               node-id="54"
               stroke="none"
               target-height="16.099976"
               target-width="21.299988"
               target-x="483.7"
               target-y="1159.6" />
          </g>
          <path
             d="m 478.5,1087.6 24.6,53.6 0.5,1.6 0.1,1.5 -1.1,2.9 -2.4,2 -2.5,0.5 h -49.3 l -3,-0.8 -2.2,-2.2 -0.6,-1.4 -0.2,-1.6 0.5,-2.5 24.7,-53.6 0.9,-1.4 1.1,-1 2.9,-1.1 1.5,0.1 1.5,0.4 2.2,1.8 z"
             fill="url(#linearGradient-9)"
             fill-rule="evenodd"
             group-id="1,2,9,12"
             id="三角形"
             node-id="55"
             stroke="none"
             target-height="65.599976"
             target-width="61.30002"
             target-x="442.4"
             target-y="1084.1"
             style="fill:url(#linearGradient-9)" />
        </g>
      </g>
      <g
         node-id="226"
         id="g38">
        <g
           node-id="229"
           id="g37">
          <g
             node-id="232"
             id="g36">
            <path
               d="m 1251.8,1164.3 0.5,1.1 v 2.3 l -1.1,2 -1,0.7 -13.7,7.7 h -2.2 l -2,-1.1 -0.8,-1 -0.6,-2.3 0.6,-2.2 1.7,-1.7 13.6,-7.6 1.1,-0.2 2.3,0.6 z"
               fill="#d6efd8"
               fill-rule="nonzero"
               filter="url(#filter-10)"
               group-id="1,2,10,13,16"
               id="path35"
               node-id="58"
               stroke="none"
               target-height="16.099976"
               target-width="21.400024"
               target-x="1230.9"
               target-y="1162" />
          </g>
          <path
             d="m 1225,1146.4 3.6,0.2 1.7,0.7 1.4,1.1 1.1,1.5 0.7,1.6 0.3,1.9 v 19.4 l -0.3,1.9 -0.7,1.7 -1.1,1.4 -1.4,1.1 -1.7,0.7 -3.6,0.3 -1.9,-0.3 -1.7,-0.7 -1.4,-1.1 -1.1,-1.4 -0.7,-1.7 -0.3,-1.9 v -19.4 l 0.3,-1.9 0.7,-1.6 1.1,-1.5 1.4,-1.1 1.7,-0.7 z"
             fill="#a6cf98"
             fill-rule="nonzero"
             group-id="1,2,10,13"
             id="矩形备份-2"
             node-id="59"
             stroke="none"
             target-height="33.5"
             target-width="15.900024"
             target-x="1217.9"
             target-y="1146.4" />
          <path
             d="m 1230.7,1099.5 21.7,47.3 0.5,2.7 -1,2.5 -0.9,1 -1.2,0.8 -2.2,0.5 h -43.5 l -2.7,-0.7 -1.9,-1.9 -0.7,-2.7 0.5,-2.2 21.7,-47.3 1.8,-2.2 2.5,-0.9 2.8,0.5 1,0.6 z"
             fill="url(#linearGradient-11)"
             fill-rule="evenodd"
             group-id="1,2,10,13"
             id="三角形备份-2"
             node-id="60"
             stroke="none"
             target-height="57.900024"
             target-width="54.099976"
             target-x="1198.8"
             target-y="1096.4"
             style="fill:url(#linearGradient-11)" />
        </g>
      </g>
      <g
         node-id="227"
         id="g41">
        <g
           node-id="230"
           id="g40">
          <g
             node-id="233"
             id="g39">
            <path
               d="m 1140.3,1183.2 0.4,1.1 v 2.3 l -1.1,1.9 -1,0.8 -13.6,7.7 -1.1,0.1 -2.2,-0.6 -1.7,-1.6 -0.5,-1.2 v -2.2 l 1.2,-2 0.9,-0.8 13.7,-7.7 1.1,-0.1 2.2,0.6 z"
               fill="#d6efd8"
               fill-rule="nonzero"
               filter="url(#filter-12)"
               group-id="1,2,11,14,17"
               id="path38"
               node-id="63"
               stroke="none"
               target-height="16.199951"
               target-width="21.199951"
               target-x="1119.5"
               target-y="1180.9" />
          </g>
          <path
             d="m 1110.4,1156.8 4.1,0.1 1.6,0.4 3.4,2.2 1.4,1.9 0.7,1.5 0.6,3.3 -0.1,27.8 -1.2,3.1 -1.4,1.9 -2,1.5 -3,1.1 h -6 l -3.4,-1.4 -2.6,-2.7 -1.4,-3.4 -0.2,-1.8 0.2,-27.9 1.4,-3.4 1.2,-1.5 3.1,-2 z"
             fill="#a6cf98"
             fill-rule="nonzero"
             group-id="1,2,11,14"
             id="矩形备份"
             node-id="64"
             stroke="none"
             target-height="44.799927"
             target-width="21.299927"
             target-x="1100.9"
             target-y="1156.8" />
          <path
             d="m 1118,1093.8 29.2,63.5 0.6,1.9 v 1.8 l -0.4,1.8 -0.8,1.6 -1.2,1.3 -1.7,1.1 -2.9,0.6 h -58.4 l -1.9,-0.2 -1.7,-0.8 -1.4,-1.1 -1.1,-1.4 -0.8,-1.7 -0.2,-1.9 0.6,-3 29.2,-63.5 1.1,-1.6 1.3,-1.2 3.4,-1.3 1.8,0.1 1.8,0.5 1.5,0.9 1.1,1.2 z"
             fill="url(#linearGradient-13)"
             fill-rule="evenodd"
             group-id="1,2,11,14"
             id="三角形备份"
             node-id="65"
             stroke="none"
             target-height="77.70007"
             target-width="72.5"
             target-x="1075.3"
             target-y="1089.7"
             style="fill:url(#linearGradient-13)" />
        </g>
      </g>
    </g>
    <g
       node-id="219"
       id="g44">
      <path
         d="m 1030.2,609.4 13.9,3.2 7.4,12.8 1.1,516.8 -5.3,11.7 -10.7,7.5 -435.6,73.7 -15,-3.2 -7.5,-11.8 -1,-531.7 5.3,-12.8 11.7,-6.4 z"
         fill="none"
         group-id="1,3"
         id="path42"
         node-id="67"
         stroke="#a6cf98"
         stroke-linecap="butt"
         stroke-width="5.55231"
         target-height="625.69995"
         target-width="475.09998"
         target-x="577.5"
         target-y="609.4" />
      <path
         d="m 566.8,644.6 435.6,-60.8 8.6,1 12.8,9.6 3.2,11.8 v 513.6 l -4.3,13.8 -13.9,7.5 -435.6,74.8 h -8.5 l -13.9,-9.6 -3.2,-11.8 V 666 l 5.3,-13.9 z"
         fill="#a6cf98"
         fill-rule="nonzero"
         group-id="1,3"
         id="矩形备份-4"
         node-id="68"
         stroke="none"
         target-height="632.10004"
         target-width="479.40002"
         target-x="547.6"
         target-y="583.8" />
      <path
         d="m 1001.4,583.8 27.7,5.3 17.1,20.3 4.3,19.2 v 32 l -8.6,50.2 -75.8,-13.9 z"
         fill="#a6cf98"
         fill-rule="nonzero"
         group-id="1,3"
         id="路径-15"
         node-id="69"
         stroke="none"
         target-height="127"
         target-width="84.400024"
         target-x="966.1"
         target-y="583.8" />
      <path
         d="m 549.7,1203.1 24.6,26.6 24.5,7.5 11.8,-3.2 10.6,-8.5 9.7,-17.1 9.6,-28.8 z"
         fill="#a6cf98"
         fill-rule="nonzero"
         group-id="1,3"
         id="路径-14"
         node-id="70"
         stroke="none"
         target-height="57.599976"
         target-width="90.79999"
         target-x="549.7"
         target-y="1179.6" />
      <path
         d="m 594.5,666 435.7,-59.8 8.5,1 12.8,9.7 3.2,11.7 v 513.6 l -5.3,13.9 -12.8,7.4 -435.6,74.8 h -8.6 l -13.9,-9.6 -3.2,-12.8 V 688.4 l 5.4,-15 z"
         fill="#e2ffd7"
         fill-rule="nonzero"
         group-id="1,3"
         id="path43"
         node-id="71"
         stroke="none"
         target-height="632.10004"
         target-width="479.39996"
         target-x="575.3"
         target-y="606.2" />
      <path
         d="m 635.1,689.5 369.5,-50.2 12.8,3.2 6.4,12.8 v 166.6 l 4.3,103.5 6.4,73.7 8.5,51.3 10.7,37.3 12.8,24.6 11.7,16 13.9,9.6 -416.4,67.3 -23.5,-26.7 -17.1,-28.8 -13.9,-32.1 -9.6,-36.3 -5.3,-40.5 -1.1,-111.1 5.4,-213.5 7.4,-18.2 z"
         fill="#edfae8"
         fill-rule="nonzero"
         group-id="1,3"
         id="路径-16"
         node-id="72"
         stroke="none"
         target-height="565.89996"
         target-width="486.89996"
         target-x="605.2"
         target-y="639.3" />
      <path
         d="m 942.1,919.6 -2,5.6 -1.7,2.6 -2.2,2.2 -2.6,1.8 -3.9,1.4 h -4 l -3.9,-1.4 -1.8,-1.1 -1.5,-1.4 -2.6,-3.3 -0.9,-1.8 -1.2,-4.6 -0.8,-4.6 -0.2,-4.5 0.2,-4.6 1.4,-7.1 1.5,-3.9 2.6,-3.3 3.3,-2.5 1.9,-0.8 2,-0.5 h 4 l 3.9,1.3 2.6,1.8 2.2,2.3 1.7,2.6 1.2,3 1.5,5.6 0.5,3 v 6.1 z"
         fill="#ffffff"
         fill-rule="evenodd"
         group-id="1,3"
         id="椭圆形备份-10"
         node-id="73"
         stroke="none"
         target-height="45.400024"
         target-width="30.5"
         target-x="912.8"
         target-y="887.8" />
      <path
         d="m 857,933.4 -2,5.7 -1.7,2.6 -2.2,2.2 -2.6,1.8 -3.9,1.4 h -4 l -3.9,-1.4 -1.8,-1.1 -1.5,-1.4 -2.6,-3.3 -0.8,-1.9 -1.3,-4.6 -0.8,-4.5 -0.2,-4.5 0.2,-4.6 1.4,-7.1 1.5,-3.9 2.6,-3.3 3.3,-2.5 1.9,-0.8 2,-0.5 h 4 l 3.9,1.3 2.6,1.8 2.2,2.3 1.7,2.6 1.2,2.9 1.5,5.7 0.5,3 v 6.1 z"
         fill="#ffffff"
         fill-rule="evenodd"
         group-id="1,3"
         id="椭圆形备份-10备份"
         node-id="74"
         stroke="none"
         target-height="45.399963"
         target-width="30.5"
         target-x="827.7"
         target-y="901.7" />
      <path
         d="m 759.9,955.9 -2,5.6 -1.8,2.6 -2.2,2.3 -2.6,1.7 -3.8,1.4 h -4.1 l -3.8,-1.4 -1.8,-1.1 -1.6,-1.4 -2.5,-3.3 -0.9,-1.8 -1.2,-4.6 -0.8,-4.6 -0.3,-4.5 0.3,-4.6 1.4,-7 1.5,-4 2.5,-3.3 3.4,-2.5 1.9,-0.8 1.9,-0.5 h 4.1 l 3.8,1.3 2.6,1.8 2.2,2.3 1.8,2.6 1.2,3 1.5,5.6 0.4,3 v 6.1 z"
         fill="#ffffff"
         fill-rule="evenodd"
         group-id="1,3"
         id="椭圆形备份-10备份-2"
         node-id="75"
         stroke="none"
         target-height="45.400024"
         target-width="30.5"
         target-x="730.5"
         target-y="924.1" />
      <path
         d="m 691.7,627.5 33.1,17.1 2.1,50.2 11.8,11.7 10.7,2.2 133.4,-20.3 9.7,-11.7 1,-7.5 v -47 l -35.2,-13.9 z"
         fill="#a6cf98"
         fill-rule="nonzero"
         group-id="1,3"
         id="路径-17备份"
         node-id="76"
         stroke="none"
         target-height="100.400024"
         target-width="201.79999"
         target-x="691.7"
         target-y="608.3" />
      <path
         d="m 701.3,616.9 34.2,22.4 2.1,54.4 11.8,11.8 11.7,2.1 132.4,-20.3 9.6,-11.7 1.1,-7.5 v -51.2 l -38.4,-20.3 z"
         fill="url(#linearGradient-14)"
         fill-rule="evenodd"
         group-id="1,3"
         id="路径-17"
         node-id="77"
         stroke="none"
         target-height="111"
         target-width="202.90002"
         target-x="701.3"
         target-y="596.6"
         style="fill:url(#linearGradient-14)" />
      <path
         d="m 701.3,616.9 -9.6,2.1 v 8.5 l 33.1,17.1 6.4,-8.5 z"
         fill="#a6cf98"
         fill-rule="nonzero"
         group-id="1,3"
         id="路径-18"
         node-id="78"
         stroke="none"
         target-height="27.699951"
         target-width="39.5"
         target-x="691.7"
         target-y="616.9" />
      <path
         d="m 1008.8,938.2 -34.1,73.7 79,-25.6 z"
         fill="#b7e2a8"
         fill-rule="nonzero"
         group-id="1,3"
         id="路径-20"
         node-id="79"
         stroke="none"
         target-height="73.70001"
         target-width="78.99994"
         target-x="974.7"
         target-y="938.2" />
      <path
         d="m 1008.8,938.2 274.4,-274.4 44.9,63 -274.4,259.5 -18.2,-3.2 -12.8,-9.6 -9.6,-15 z"
         fill="url(#linearGradient-15)"
         fill-rule="evenodd"
         group-id="1,3"
         id="路径-19"
         node-id="80"
         stroke="none"
         target-height="322.5"
         target-width="319.3"
         target-x="1008.8"
         target-y="663.8"
         style="fill:url(#linearGradient-15)" />
      <path
         d="m 1326,680.9 9.6,26.7 -1.1,11.8 -6.4,7.4 -8.5,3.2 -11.8,-2.1 -11.7,-6.4 -18.2,-24.6 -2.1,-13.8 1,-11.8 6.4,-7.5 8.6,-3.2 11.7,2.2 z"
         fill="#c6ebc5"
         fill-rule="nonzero"
         group-id="1,3"
         id="path44"
         node-id="81"
         stroke="none"
         target-height="69.400024"
         target-width="59.799927"
         target-x="1275.8"
         target-y="660.6" />
    </g>
  </g>
</svg>
