<?xml version="1.0"?>
<svg width="1000" height="800" xmlns="http://www.w3.org/2000/svg" xmlns:svg="http://www.w3.org/2000/svg" version="1.1">
 <defs>
  <linearGradient gradientUnits="objectBoundingBox" id="linearGradient-3" spreadMethod="pad" x1="0.17" x2="0.56" y1="0.07" y2="0.76">
   <stop offset="0" stop-color="#9eb384"/>
   <stop offset="1" stop-color="#d6efd8"/>
  </linearGradient>
  <linearGradient gradientUnits="objectBoundingBox" id="linearGradient-4" spreadMethod="pad" x1="0.68" x2="0.45" y1="0.38" y2="0.29">
   <stop offset="0" stop-color="#9eb384"/>
   <stop offset="1" stop-color="#ffd18e"/>
  </linearGradient>
  <linearGradient gradientUnits="objectBoundingBox" id="linearGradient-7" spreadMethod="pad" x1="0.68" x2="0.45" y1="0.38" y2="0.29">
   <stop offset="0" stop-color="#9eb384"/>
   <stop offset="1" stop-color="#ffd18e"/>
  </linearGradient>
  <linearGradient gradientUnits="objectBoundingBox" id="linearGradient-10" spreadMethod="pad" x1="0.5" x2="0.5" y1="0" y2="0.57">
   <stop offset="0" stop-color="#9eb384"/>
   <stop offset="0.52" stop-color="#d6efd8"/>
   <stop offset="1" stop-color="#faf1e4"/>
  </linearGradient>
  <linearGradient gradientUnits="objectBoundingBox" id="linearGradient-11" spreadMethod="pad" x1="0.5" x2="0.5" y1="0" y2="1">
   <stop offset="0" stop-color="#9eb384"/>
   <stop offset="1" stop-color="#d6efd8"/>
  </linearGradient>
  <linearGradient gradientUnits="objectBoundingBox" id="linearGradient1" spreadMethod="pad" x1="0.5" x2="0.5" y1="0" y2="1">
   <stop offset="0" stop-color="#9eb384"/>
   <stop offset="1" stop-color="#d6efd8"/>
  </linearGradient>
  <linearGradient gradientUnits="objectBoundingBox" id="linearGradient-12" spreadMethod="pad" x1="0.5" x2="0.5" y1="0" y2="1">
   <stop offset="0" stop-color="#9eb384"/>
   <stop offset="1" stop-color="#d6efd8"/>
  </linearGradient>
  <linearGradient gradientUnits="objectBoundingBox" id="linearGradient-13" spreadMethod="pad" x1="0.5" x2="0.5" y1="0" y2="1">
   <stop offset="0" stop-color="#faf1e4"/>
   <stop offset="1" stop-color="#ecf2fd" stop-opacity="0.89"/>
  </linearGradient>
  <linearGradient gradientUnits="objectBoundingBox" id="linearGradient-14" spreadMethod="pad" x1="0.45" x2="0.62" y1="0.12" y2="0.84">
   <stop offset="0" stop-color="#d6efd8"/>
   <stop offset="1" stop-color="#9eb384"/>
  </linearGradient>
  <mask height="126.32" id="mask-2" maskUnits="userSpaceOnUse" width="126.32" x="1162.69" y="684.21">
   <path d="m1357,953l-12.6,12.3l-12.9,11.9l-13.2,11.5l-13.4,11.2l-13.7,10.7l-13.9,10.4l-14.2,10.1l-14.5,9.6l-14.6,9.2l-14.9,8.9l-15.1,8.4l-15.3,8l-15.5,7.7l-15.7,7.2l-15.9,6.8l-16,6.4l-16.2,6l-16.4,5.6l-16.5,5.1l-16.7,4.7l-16.7,4.3l-16.9,3.8l-17,3.4l-17.2,3l-17.2,2.5l-17.3,2.1l-17.3,1.6l-17.5,1.1l-17.5,0.7l-17.7,0.3l-17.6,-0.3l-17.6,-0.7l-17.4,-1.1l-17.4,-1.6l-17.3,-2.1l-17.2,-2.5l-17.2,-3l-17,-3.4l-16.9,-3.8l-16.7,-4.3l-16.7,-4.7l-16.5,-5.1l-16.4,-5.6l-16.2,-6l-16,-6.4l-15.8,-6.8l-15.7,-7.2l-15.6,-7.7l-15.3,-8l-15.1,-8.4l-14.8,-8.9l-14.7,-9.2l-14.4,-9.6l-14.3,-10.1l-13.9,-10.4l-13.7,-10.7l-13.4,-11.2l-13.2,-11.5l-12.9,-11.9l-12.6,-12.3l-12.3,-12.7l-11.9,-12.9l-11.6,-13.1l-11.1,-13.4l-10.8,-13.7l-10.4,-14l-10,-14.2l-9.6,-14.4l-9.2,-14.7l-8.9,-14.9l-8.4,-15.1l-8.1,-15.3l-7.6,-15.5l-7.2,-15.7l-6.8,-15.8l-6.4,-16.1l-6,-16.2l-5.6,-16.4l-5.1,-16.5l-4.7,-16.6l-4.3,-16.8l-3.8,-16.8l-3.4,-17.1l-3,-17.1l-2.5,-17.2l-2.1,-17.3l-1.6,-17.4l-1.2,-17.4l-0.6,-17.6l-0.3,-17.6l0.3,-17.7l0.6,-17.5l1.2,-17.5l1.6,-17.4l2.1,-17.2l2.5,-17.2l3,-17.2l3.4,-17l3.8,-16.9l4.3,-16.8l4.7,-16.6l5.1,-16.5l5.6,-16.4l6,-16.2l6.4,-16l6.8,-15.9l7.2,-15.7l7.6,-15.5l8.1,-15.3l8.4,-15.1l8.9,-14.9l9.2,-14.6l9.6,-14.5l10,-14.2l10.4,-14l10.8,-13.6l11.1,-13.4l11.6,-13.2l11.9,-12.9l12.3,-12.7l12.6,-12.3l12.9,-11.9l13.2,-11.5l13.4,-11.2l13.7,-10.7l13.9,-10.4l14.3,-10l14.4,-9.7l14.7,-9.2l14.8,-8.8l15.1,-8.5l15.3,-8l15.6,-7.7l15.7,-7.2l15.8,-6.8l16,-6.4l16.2,-6l16.4,-5.5l16.5,-5.2l16.7,-4.7l16.7,-4.3l16.9,-3.8l17,-3.4l17.2,-3l17.2,-2.5l17.3,-2l17.4,-1.6l17.4,-1.2l17.6,-0.7l17.6,-0.2l17.7,0.2l17.5,0.7l17.5,1.2l17.3,1.6l17.3,2l17.2,2.5l17.2,3l17,3.4l16.9,3.8l16.7,4.3l16.7,4.7l16.5,5.2l16.4,5.5l16.2,6l16,6.4l15.9,6.8l15.7,7.2l15.5,7.7l15.3,8l15.1,8.5l14.9,8.8l14.6,9.2l14.5,9.7l14.2,10l13.9,10.4l13.7,10.7l13.4,11.2l13.2,11.5l12.9,11.9l12.6,12.3l12.3,12.7l12,12.9l11.5,13.2l11.1,13.4l10.8,13.6l10.4,14l10,14.2l9.6,14.5l9.3,14.6l8.8,14.9l8.4,15.1l8.1,15.3l7.6,15.5l7.3,15.7l6.8,15.9l6.4,16l5.9,16.2l5.6,16.4l5.2,16.5l4.7,16.6l4.2,16.8l3.9,16.9l3.4,17l2.9,17.2l2.6,17.2l2,17.2l1.6,17.4l1.2,17.5l0.7,17.5l0.2,17.7l-0.2,17.6l-0.7,17.6l-1.2,17.4l-1.6,17.4l-2,17.3l-2.6,17.2l-2.9,17.1l-3.4,17.1l-3.9,16.8l-4.2,16.8l-4.7,16.6l-5.2,16.5l-5.6,16.4l-5.9,16.2l-6.4,16.1l-6.8,15.8l-7.3,15.7l-7.6,15.5l-8.1,15.3l-8.4,15.1l-8.8,14.9l-9.3,14.7l-9.6,14.4l-10,14.2l-10.4,14l-10.8,13.7l-11.1,13.4l-11.5,13.1l-12,12.9l-12.3,12.7z" fill="#ffffff" fill-rule="evenodd" id="svg_2"/>
  </mask>
  <mask height="34.5" id="mask1" maskUnits="userSpaceOnUse" width="33.36" x="361.6" y="513.1">
   <path d="m1453.4,221l8.6,15.4l8.2,15.6l7.7,15.7l7.3,15.8l6.8,16l6.5,16.2l6,16.3l5.5,16.4l5.2,16.6l4.6,16.6l4.3,16.8l3.8,16.9l3.4,16.9l2.9,17.1l2.4,17l2.1,17.2l1.6,17.2l1.1,17.3l0.7,17.2l0.2,17.3l-0.2,17.3l-0.6,17.3l-1.2,17.3l-1.5,17.4l-2.1,17.3l-2.4,17.2l-3,17.2l-3.4,17.1l-3.9,17.2l-4.3,17.1l-4.8,17l-5.2,16.7l-5.6,16.6l-6.1,16.3l-6.5,16.2l-6.8,16l-7.3,15.8l-7.7,15.5l-8.1,15.4l-8.5,15l-8.8,14.9l-9.3,14.6l-9.6,14.4l-10,14.1l-10.3,13.8l-10.7,13.6l-11,13.3l-11.4,13l-11.7,12.7l-12.1,12.4l-12.4,12.1l-12.7,11.7l-13,11.5l-13.4,11.1l-13.6,10.8l-14,10.4l-14.2,10.1l-14.6,9.7l-14.8,9.4l-15.2,9.1l-15.4,8.6l-15.5,8.1l-15.7,7.8l-15.9,7.3l-16,6.8l-16.1,6.4l-16.4,6.1l-16.4,5.5l-16.5,5.1l-16.7,4.7l-16.8,4.3l-16.8,3.8l-17,3.3l-17,3l-17.1,2.4l-17.1,2.1l-17.2,1.6l-17.3,1.1l-17.3,0.7l-17.3,0.2l-17.3,-0.2l-17.3,-0.7l-17.3,-1.1l-17.4,-1.6l-17.2,-2l-17.2,-2.5l-17.2,-2.9l-17.2,-3.4l-17.1,-3.9l-17.1,-4.3l-17,-4.8l-16.8,-5.2l-16.6,-5.7l-16.3,-6l-16.2,-6.5l-15.9,-6.8l-15.8,-7.4l-15.6,-7.7l-15.3,-8l-15.1,-8.5l-14.9,-8.8l-14.6,-9.3l-14.4,-9.6l-14.1,-10l-13.8,-10.3l-13.5,-10.7l-13.3,-11l-13,-11.4l-12.8,-11.8l-12.3,-12l-12.1,-12.4l-11.8,-12.7l-11.4,-13l-11.2,-13.4l-10.8,-13.7l-10.4,-13.9l-10.1,-14.2l-9.7,-14.6l-9.4,-14.8l-9,-15.2l-8.6,-15.4l-8.2,-15.5l-7.7,-15.7l-7.3,-15.9l-6.9,-16l-6.4,-16.1l-6,-16.4l-5.6,-16.4l-5.1,-16.6l-4.7,-16.6l-4.2,-16.8l-3.8,-16.8l-3.4,-17l-2.9,-17l-2.5,-17.1l-2,-17.2l-1.6,-17.2l-1.1,-17.2l-0.7,-17.3l-0.3,-17.3l0.2,-17.3l0.7,-17.3l1.1,-17.3l1.6,-17.4l2,-17.2l2.5,-17.2l2.9,-17.2l3.4,-17.2l3.9,-17.1l4.4,-17.1l4.8,-17l5.2,-16.8l5.6,-16.6l6,-16.3l6.5,-16.2l6.9,-15.9l7.3,-15.8l7.7,-15.6l8.1,-15.3l8.4,-15.1l8.9,-14.9l9.2,-14.6l9.6,-14.4l10,-14.1l10.3,-13.8l10.7,-13.6l11.1,-13.2l11.4,-13.1l11.7,-12.7l12.1,-12.4l12.3,-12l12.7,-11.8l13.1,-11.5l13.4,-11.1l13.6,-10.8l13.9,-10.4l14.3,-10.1l14.5,-9.7l14.9,-9.4l15.1,-9l15.4,-8.6l15.6,-8.2l15.7,-7.7l15.8,-7.3l16,-6.9l16.2,-6.4l16.3,-6l16.5,-5.6l16.5,-5.1l16.6,-4.7l16.8,-4.2l16.9,-3.8l17,-3.4l17,-2.9l17.1,-2.5l17.1,-2l17.2,-1.6l17.3,-1.2l17.2,-0.6l17.3,-0.3l17.3,0.2l17.3,0.7l17.4,1.1l17.3,1.6l17.3,2l17.2,2.5l17.2,2.9l17.1,3.4l17.2,3.9l17.1,4.3l17,4.8l16.7,5.3l16.6,5.6l16.4,6l16.1,6.5l16,6.9l15.8,7.3l15.6,7.7l15.3,8.1l15.1,8.4l14.8,8.9l14.6,9.2l14.4,9.6l14.1,10l13.8,10.3l13.6,10.7l13.3,11.1l13,11.4l12.7,11.7l12.4,12l12.1,12.4l11.7,12.7l11.5,13.1l11.2,13.4l10.7,13.6l10.5,13.9l10,14.3l9.8,14.5l9.3,14.8l9.1,15.2z" fill="#ffffff" fill-rule="evenodd" id="svg_3"/>
  </mask>
  <mask height="53.32" id="mask2" maskUnits="userSpaceOnUse" width="51.56" x="465.6" y="518.06">
   <path d="m1461.3,279.5l8.6,15.4l8.2,15.5l7.7,15.7l7.3,15.9l6.9,16l6.4,16.1l6,16.4l5.6,16.4l5.1,16.6l4.7,16.6l4.2,16.8l3.8,16.8l3.4,17l2.9,17l2.5,17.1l2,17.2l1.6,17.2l1.2,17.2l0.7,17.3l0.2,17.3l-0.2,17.3l-0.7,17.3l-1.1,17.3l-1.6,17.4l-2,17.2l-2.5,17.3l-2.9,17.1l-3.4,17.2l-3.9,17.1l-4.3,17.1l-4.8,17l-5.3,16.8l-5.6,16.6l-6,16.3l-6.5,16.2l-6.9,15.9l-7.3,15.9l-7.7,15.5l-8.1,15.3l-8.4,15.1l-8.9,14.9l-9.2,14.6l-9.6,14.4l-10,14.1l-10.3,13.8l-10.7,13.6l-11,13.2l-11.5,13.1l-11.7,12.7l-12,12.4l-12.4,12l-12.7,11.8l-13.1,11.5l-13.3,11.1l-13.7,10.8l-13.9,10.4l-14.3,10.1l-14.5,9.7l-14.8,9.4l-15.2,9l-15.4,8.6l-15.6,8.2l-15.7,7.7l-15.8,7.3l-16,6.9l-16.1,6.4l-16.4,6l-16.4,5.6l-16.6,5.1l-16.6,4.7l-16.8,4.2l-16.9,3.8l-16.9,3.4l-17.1,2.9l-17,2.5l-17.2,2l-17.2,1.6l-17.2,1.2l-17.3,0.7l-17.3,0.2l-17.3,-0.2l-17.3,-0.7l-17.3,-1.1l-17.4,-1.6l-17.3,-2l-17.2,-2.5l-17.2,-2.9l-17.1,-3.4l-17.2,-3.9l-17.1,-4.3l-17,-4.8l-16.7,-5.3l-16.6,-5.6l-16.3,-6l-16.2,-6.5l-16,-6.9l-15.8,-7.3l-15.5,-7.7l-15.4,-8.1l-15,-8.4l-14.9,-8.9l-14.6,-9.2l-14.4,-9.6l-14.1,-10l-13.8,-10.3l-13.6,-10.7l-13.3,-11l-13,-11.5l-12.7,-11.7l-12.4,-12l-12.1,-12.4l-11.7,-12.7l-11.5,-13.1l-11.1,-13.3l-10.8,-13.7l-10.4,-13.9l-10.1,-14.3l-9.7,-14.5l-9.4,-14.8l-9.1,-15.2l-8.6,-15.4l-8.1,-15.6l-7.8,-15.7l-7.3,-15.8l-6.8,-16l-6.4,-16.1l-6,-16.4l-5.6,-16.4l-5.1,-16.6l-4.7,-16.6l-4.3,-16.8l-3.8,-16.9l-3.3,-16.9l-3,-17.1l-2.4,-17l-2.1,-17.2l-1.5,-17.2l-1.2,-17.2l-0.7,-17.3l-0.2,-17.3l0.2,-17.3l0.7,-17.3l1.1,-17.3l1.6,-17.4l2,-17.3l2.5,-17.2l2.9,-17.2l3.4,-17.1l3.9,-17.2l4.3,-17.1l4.8,-17l5.2,-16.7l5.7,-16.6l6,-16.3l6.5,-16.2l6.9,-16l7.3,-15.8l7.7,-15.5l8,-15.4l8.5,-15l8.8,-14.9l9.3,-14.6l9.6,-14.4l10,-14.1l10.3,-13.8l10.7,-13.6l11,-13.3l11.4,-13l11.8,-12.7l12,-12.4l12.4,-12.1l12.7,-11.7l13,-11.5l13.4,-11.1l13.7,-10.8l13.9,-10.4l14.2,-10.1l14.6,-9.7l14.8,-9.4l15.2,-9.1l15.4,-8.6l15.5,-8.1l15.7,-7.8l15.9,-7.3l16,-6.8l16.1,-6.4l16.4,-6l16.4,-5.6l16.6,-5.1l16.6,-4.7l16.8,-4.3l16.8,-3.8l17,-3.3l17,-3l17.1,-2.4l17.2,-2.1l17.2,-1.5l17.2,-1.2l17.3,-0.7l17.3,-0.2l17.3,0.2l17.3,0.7l17.3,1.1l17.4,1.6l17.2,2l17.3,2.5l17.1,2.9l17.2,3.4l17.1,3.9l17.1,4.3l17,4.8l16.8,5.2l16.6,5.7l16.3,6l16.2,6.5l15.9,6.9l15.9,7.3l15.5,7.7l15.3,8l15.1,8.5l14.9,8.8l14.6,9.3l14.4,9.6l14.1,10l13.8,10.3l13.6,10.7l13.2,11l13.1,11.4l12.7,11.8l12.4,12l12,12.4l11.8,12.7l11.5,13l11.1,13.4l10.8,13.7l10.4,13.9l10.1,14.2l9.7,14.6l9.4,14.8l9,15.2z" fill="#ffffff" fill-rule="evenodd" id="svg_4"/>
  </mask>
  <mask height="37.38" id="mask3" maskUnits="userSpaceOnUse" width="42.03" x="1065.51" y="354.04">
   <path d="m1500.4,-19.4l17.6,-0.4l17.6,0.1l17.5,0.5l17.4,1l17.3,1.5l17.3,1.9l17.2,2.4l17.2,2.8l17,3.2l16.9,3.7l16.8,4.1l16.7,4.6l16.5,5l16.4,5.4l16.3,5.8l16.1,6.3l15.9,6.6l15.8,7.1l15.6,7.5l15.3,7.9l15.2,8.4l15,8.7l14.7,9.1l14.6,9.5l14.3,9.9l14.1,10.3l13.7,10.7l13.6,11l13.3,11.5l13.1,11.8l12.7,12.3l12.4,12.4l12,12.8l11.6,13l11.2,13.3l10.9,13.6l10.5,13.8l10.1,14.1l9.8,14.4l9.3,14.5l9,14.8l8.5,15l8.2,15.3l7.8,15.4l7.4,15.6l6.9,15.8l6.5,16l6.2,16.2l5.7,16.3l5.3,16.5l4.8,16.6l4.5,16.7l4,16.9l3.5,17l3.1,17.1l2.7,17.2l2.2,17.3l1.8,17.4l1.3,17.6l0.8,17.6l0.4,17.6l-0.1,17.6l-0.5,17.5l-1,17.4l-1.5,17.3l-1.9,17.3l-2.4,17.3l-2.8,17.1l-3.2,17l-3.7,16.9l-4.1,16.8l-4.6,16.7l-5,16.6l-5.4,16.4l-5.8,16.2l-6.3,16.1l-6.6,15.9l-7.1,15.8l-7.5,15.6l-8,15.4l-8.3,15.1l-8.7,15l-9.1,14.8l-9.5,14.5l-9.9,14.3l-10.3,14.1l-10.7,13.8l-11,13.5l-11.5,13.3l-11.8,13.1l-12.3,12.8l-12.4,12.3l-12.8,12l-13,11.6l-13.3,11.2l-13.6,10.9l-13.8,10.5l-14.1,10.2l-14.4,9.7l-14.5,9.3l-14.8,9l-15,8.6l-15.3,8.1l-15.4,7.8l-15.6,7.4l-15.8,6.9l-16,6.6l-16.2,6.1l-16.3,5.7l-16.5,5.3l-16.6,4.9l-16.7,4.4l-16.9,4l-17,3.5l-17.1,3.2l-17.2,2.6l-17.3,2.2l-17.4,1.8l-17.6,1.3l-17.6,0.9l-17.6,0.3l-17.6,0l-17.5,-0.6l-17.4,-1l-17.3,-1.4l-17.3,-2l-17.3,-2.3l-17.1,-2.8l-17,-3.3l-16.9,-3.7l-16.8,-4.1l-16.7,-4.5l-16.6,-5l-16.4,-5.5l-16.2,-5.8l-16.1,-6.2l-15.9,-6.7l-15.8,-7.1l-15.6,-7.5l-15.4,-7.9l-15.1,-8.3l-15,-8.7l-14.8,-9.2l-14.5,-9.5l-14.3,-9.9l-14.1,-10.3l-13.8,-10.6l-13.5,-11.1l-13.3,-11.5l-13.1,-11.8l-12.8,-12.2l-12.3,-12.5l-12,-12.8l-11.6,-13l-11.2,-13.3l-10.9,-13.5l-10.5,-13.9l-10.2,-14.1l-9.7,-14.3l-9.3,-14.6l-9,-14.8l-8.6,-15l-8.1,-15.2l-7.8,-15.5l-7.4,-15.6l-6.9,-15.8l-6.6,-16l-6.1,-16.1l-5.7,-16.4l-5.3,-16.4l-4.9,-16.6l-4.4,-16.8l-4,-16.9l-3.5,-17l-3.2,-17.1l-2.6,-17.2l-2.2,-17.3l-1.8,-17.4l-1.3,-17.5l-0.9,-17.7l-0.3,-17.6l0,-17.6l0.6,-17.5l1,-17.4l1.4,-17.3l2,-17.3l2.3,-17.2l2.8,-17.2l3.3,-17l3.7,-16.9l4.1,-16.8l4.5,-16.7l5,-16.5l5.5,-16.4l5.8,-16.3l6.2,-16.1l6.7,-15.9l7.1,-15.8l7.5,-15.6l7.9,-15.3l8.3,-15.2l8.7,-15l9.2,-14.7l9.5,-14.6l9.9,-14.3l10.3,-14.1l10.6,-13.7l11.1,-13.6l11.5,-13.3l11.8,-13.1l12.2,-12.7l12.5,-12.4l12.8,-12l13,-11.6l13.3,-11.2l13.5,-10.9l13.9,-10.5l14.1,-10.1l14.3,-9.8l14.6,-9.3l14.8,-9l15,-8.5l15.2,-8.2l15.5,-7.8l15.6,-7.4l15.8,-6.9l16,-6.5l16.1,-6.2l16.4,-5.7l16.4,-5.3l16.6,-4.8l16.8,-4.5l16.9,-4l17,-3.5l17.1,-3.1l17.2,-2.7l17.3,-2.2l17.4,-1.8l17.5,-1.3l17.7,-0.8z" fill="#ffffff" fill-rule="evenodd" id="svg_5"/>
  </mask>
  <mask height="26.39" id="mask4" maskUnits="userSpaceOnUse" width="29.67" x="1122.94" y="498.55">
   <path d="m1414.5,175.7l17.6,-0.4l17.6,0.1l17.5,0.5l17.4,1l17.3,1.5l17.3,1.9l17.3,2.3l17.1,2.9l17,3.2l16.9,3.7l16.8,4.1l16.7,4.6l16.5,5l16.4,5.4l16.3,5.8l16.1,6.3l15.9,6.6l15.8,7.1l15.6,7.5l15.3,7.9l15.2,8.3l15,8.8l14.7,9.1l14.6,9.5l14.3,9.9l14.1,10.3l13.8,10.7l13.5,11l13.3,11.5l13.1,11.8l12.7,12.2l12.4,12.5l12,12.8l11.6,13l11.2,13.3l10.9,13.6l10.5,13.8l10.1,14.1l9.8,14.4l9.3,14.5l9,14.8l8.5,15l8.2,15.3l7.8,15.4l7.4,15.6l6.9,15.8l6.6,16l6.1,16.2l5.7,16.3l5.3,16.4l4.8,16.6l4.5,16.8l4,16.9l3.5,17l3.1,17.1l2.7,17.2l2.2,17.3l1.8,17.4l1.3,17.5l0.8,17.7l0.4,17.6l-0.1,17.6l-0.5,17.5l-1,17.4l-1.5,17.3l-1.9,17.3l-2.3,17.3l-2.9,17.1l-3.2,17l-3.7,16.9l-4.1,16.8l-4.6,16.7l-5,16.5l-5.4,16.5l-5.8,16.2l-6.3,16.1l-6.6,15.9l-7.1,15.8l-7.5,15.6l-7.9,15.3l-8.3,15.2l-8.8,15l-9.1,14.8l-9.5,14.5l-9.9,14.3l-10.3,14.1l-10.6,13.8l-11.1,13.5l-11.5,13.3l-11.8,13.1l-12.2,12.7l-12.5,12.4l-12.8,12l-13,11.6l-13.3,11.2l-13.6,10.9l-13.8,10.5l-14.1,10.1l-14.4,9.8l-14.5,9.3l-14.8,9l-15,8.6l-15.3,8.1l-15.4,7.8l-15.6,7.4l-15.8,6.9l-16,6.6l-16.2,6.1l-16.3,5.7l-16.4,5.3l-16.6,4.8l-16.8,4.5l-16.9,4l-17,3.5l-17.1,3.1l-17.2,2.7l-17.3,2.2l-17.4,1.8l-17.5,1.3l-17.7,0.8l-17.6,0.4l-17.6,-0.1l-17.5,-0.5l-17.4,-1l-17.3,-1.5l-17.3,-1.9l-17.3,-2.3l-17.1,-2.8l-17,-3.3l-16.9,-3.7l-16.8,-4.1l-16.7,-4.6l-16.5,-5l-16.4,-5.4l-16.3,-5.8l-16.1,-6.2l-15.9,-6.7l-15.8,-7.1l-15.6,-7.5l-15.3,-7.9l-15.2,-8.3l-15,-8.8l-14.8,-9.1l-14.5,-9.5l-14.3,-9.9l-14.1,-10.3l-13.8,-10.6l-13.5,-11.1l-13.3,-11.5l-13.1,-11.8l-12.7,-12.2l-12.4,-12.5l-12,-12.8l-11.6,-13l-11.2,-13.3l-10.9,-13.5l-10.5,-13.9l-10.1,-14.1l-9.8,-14.3l-9.3,-14.6l-9,-14.8l-8.6,-15l-8.1,-15.3l-7.8,-15.4l-7.4,-15.6l-6.9,-15.8l-6.6,-16l-6.1,-16.2l-5.7,-16.3l-5.3,-16.4l-4.8,-16.6l-4.5,-16.8l-4,-16.9l-3.5,-17l-3.1,-17.1l-2.7,-17.2l-2.2,-17.3l-1.8,-17.4l-1.3,-17.5l-0.8,-17.7l-0.4,-17.6l0.1,-17.6l0.5,-17.5l1,-17.4l1.5,-17.3l1.9,-17.3l2.3,-17.3l2.8,-17.1l3.3,-17l3.7,-16.9l4.1,-16.8l4.6,-16.7l5,-16.5l5.4,-16.4l5.8,-16.3l6.3,-16.1l6.6,-15.9l7.1,-15.8l7.5,-15.6l7.9,-15.3l8.3,-15.2l8.8,-15l9.1,-14.7l9.5,-14.6l9.9,-14.3l10.3,-14.1l10.6,-13.8l11.1,-13.5l11.5,-13.3l11.8,-13.1l12.2,-12.7l12.5,-12.4l12.8,-12l13,-11.6l13.3,-11.2l13.5,-10.9l13.9,-10.5l14.1,-10.1l14.3,-9.8l14.6,-9.3l14.8,-9l15,-8.5l15.3,-8.2l15.4,-7.8l15.6,-7.4l15.8,-6.9l16,-6.6l16.2,-6.1l16.3,-5.7l16.4,-5.3l16.6,-4.8l16.8,-4.5l16.9,-4l17,-3.5l17.1,-3.1l17.2,-2.7l17.3,-2.2l17.4,-1.8l17.5,-1.3l17.7,-0.8z" fill="#ffffff" fill-rule="evenodd" id="svg_6"/>
  </mask>
  <mask height="26.39" id="mask5" maskUnits="userSpaceOnUse" width="29.67" x="1197.19" y="655.09">
   <path d="m1334.9,411.9l17.6,-0.4l17.6,0.1l17.5,0.5l17.4,1l17.3,1.5l17.3,1.9l17.2,2.4l17.2,2.8l17,3.2l16.9,3.7l16.8,4.1l16.7,4.6l16.5,5l16.4,5.4l16.3,5.8l16.1,6.3l15.9,6.6l15.8,7.1l15.6,7.5l15.3,7.9l15.2,8.4l15,8.7l14.7,9.1l14.6,9.5l14.3,9.9l14.1,10.3l13.7,10.7l13.6,11l13.3,11.5l13.1,11.8l12.7,12.3l12.4,12.4l12,12.8l11.6,13l11.2,13.3l10.9,13.6l10.5,13.8l10.1,14.1l9.8,14.4l9.3,14.5l9,14.8l8.5,15l8.2,15.3l7.8,15.4l7.4,15.6l6.9,15.8l6.5,16l6.2,16.2l5.7,16.3l5.3,16.4l4.8,16.6l4.5,16.8l4,16.9l3.5,17l3.1,17.1l2.7,17.2l2.2,17.3l1.8,17.4l1.3,17.6l0.8,17.6l0.4,17.6l-0.1,17.6l-0.5,17.5l-1,17.4l-1.5,17.3l-1.9,17.3l-2.4,17.3l-2.8,17.1l-3.2,17l-3.7,16.9l-4.1,16.8l-4.6,16.7l-5,16.6l-5.4,16.4l-5.8,16.2l-6.3,16.1l-6.6,15.9l-7.1,15.8l-7.5,15.6l-8,15.4l-8.3,15.1l-8.7,15l-9.1,14.8l-9.5,14.5l-9.9,14.3l-10.3,14.1l-10.7,13.8l-11,13.5l-11.5,13.3l-11.8,13.1l-12.3,12.8l-12.4,12.3l-12.8,12l-13,11.6l-13.3,11.2l-13.6,10.9l-13.8,10.5l-14.1,10.2l-14.4,9.7l-14.5,9.3l-14.8,9l-15,8.6l-15.3,8.1l-15.4,7.8l-15.6,7.4l-15.8,6.9l-16,6.6l-16.2,6.1l-16.3,5.7l-16.5,5.3l-16.6,4.9l-16.7,4.4l-16.9,4l-17,3.5l-17.1,3.2l-17.2,2.6l-17.3,2.2l-17.4,1.8l-17.6,1.3l-17.6,0.9l-17.6,0.3l-17.6,-0.1l-17.5,-0.5l-17.4,-1l-17.3,-1.5l-17.3,-1.9l-17.3,-2.3l-17.1,-2.8l-17,-3.3l-16.9,-3.7l-16.8,-4.1l-16.7,-4.5l-16.6,-5l-16.4,-5.5l-16.2,-5.8l-16.1,-6.2l-15.9,-6.7l-15.8,-7.1l-15.6,-7.5l-15.4,-7.9l-15.1,-8.3l-15,-8.7l-14.8,-9.2l-14.5,-9.5l-14.3,-9.9l-14.1,-10.3l-13.8,-10.6l-13.5,-11.1l-13.3,-11.5l-13.1,-11.8l-12.8,-12.2l-12.3,-12.5l-12,-12.8l-11.6,-13l-11.2,-13.3l-10.9,-13.5l-10.5,-13.9l-10.2,-14.1l-9.7,-14.3l-9.3,-14.6l-9,-14.8l-8.6,-15l-8.1,-15.2l-7.8,-15.5l-7.4,-15.6l-6.9,-15.8l-6.6,-16l-6.1,-16.1l-5.7,-16.4l-5.3,-16.4l-4.9,-16.6l-4.4,-16.8l-4,-16.9l-3.5,-17l-3.2,-17.1l-2.6,-17.2l-2.2,-17.3l-1.8,-17.4l-1.3,-17.5l-0.9,-17.7l-0.3,-17.6l0,-17.6l0.6,-17.5l1,-17.4l1.4,-17.3l2,-17.3l2.3,-17.3l2.8,-17.1l3.3,-17l3.7,-16.9l4.1,-16.8l4.5,-16.7l5,-16.5l5.5,-16.4l5.8,-16.3l6.2,-16.1l6.7,-15.9l7.1,-15.8l7.5,-15.6l7.9,-15.3l8.3,-15.2l8.7,-15l9.2,-14.7l9.5,-14.6l9.9,-14.3l10.3,-14.1l10.6,-13.8l11.1,-13.5l11.5,-13.3l11.8,-13.1l12.2,-12.7l12.5,-12.4l12.8,-12l13,-11.6l13.3,-11.2l13.5,-10.9l13.9,-10.5l14.1,-10.1l14.3,-9.8l14.6,-9.3l14.8,-9l15,-8.5l15.2,-8.2l15.5,-7.8l15.6,-7.4l15.8,-6.9l16,-6.5l16.1,-6.2l16.4,-5.7l16.4,-5.3l16.6,-4.8l16.8,-4.5l16.9,-4l17,-3.5l17.1,-3.1l17.2,-2.7l17.3,-2.2l17.4,-1.8l17.5,-1.3l17.7,-0.8z" fill="#ffffff" fill-rule="evenodd" id="svg_7"/>
  </mask>
  <mask height="21.99" id="mask6" maskUnits="userSpaceOnUse" width="24.72" x="1285.84" y="725.22">
   <path d="m1356.2,568.3l17.6,-0.4l17.6,0.1l17.5,0.5l17.4,1l17.3,1.5l17.3,1.9l17.2,2.4l17.2,2.8l17,3.2l16.9,3.7l16.8,4.1l16.7,4.6l16.5,5l16.4,5.4l16.3,5.8l16.1,6.3l15.9,6.7l15.8,7.1l15.5,7.5l15.4,7.9l15.2,8.3l15,8.7l14.7,9.1l14.6,9.5l14.3,9.9l14,10.3l13.8,10.7l13.6,11l13.3,11.5l13.1,11.9l12.7,12.2l12.4,12.5l12,12.7l11.6,13l11.2,13.3l10.9,13.6l10.5,13.9l10.1,14.1l9.8,14.3l9.3,14.5l9,14.8l8.5,15l8.2,15.3l7.8,15.4l7.3,15.6l7,15.8l6.5,16l6.2,16.2l5.7,16.3l5.3,16.5l4.8,16.6l4.4,16.7l4,16.9l3.6,17.1l3.1,17.1l2.7,17.2l2.2,17.3l1.8,17.4l1.3,17.5l0.8,17.6l0.4,17.7l-0.1,17.5l-0.5,17.5l-1,17.4l-1.5,17.4l-1.9,17.2l-2.4,17.3l-2.8,17.1l-3.2,17l-3.7,16.9l-4.1,16.8l-4.6,16.7l-5,16.6l-5.4,16.4l-5.8,16.2l-6.3,16.1l-6.6,15.9l-7.1,15.8l-7.6,15.6l-7.9,15.4l-8.3,15.1l-8.7,15l-9.1,14.8l-9.5,14.6l-9.9,14.3l-10.3,14l-10.7,13.8l-11,13.5l-11.5,13.4l-11.9,13l-12.2,12.8l-12.4,12.3l-12.8,12l-13,11.6l-13.3,11.3l-13.6,10.8l-13.8,10.5l-14.1,10.2l-14.4,9.7l-14.5,9.4l-14.8,8.9l-15,8.6l-15.3,8.2l-15.4,7.7l-15.6,7.4l-15.8,7l-16,6.5l-16.2,6.1l-16.3,5.7l-16.5,5.3l-16.6,4.9l-16.7,4.4l-16.9,4l-17,3.6l-17.2,3.1l-17.1,2.6l-17.3,2.3l-17.4,1.7l-17.6,1.3l-17.6,0.9l-17.6,0.4l-17.6,-0.1l-17.5,-0.6l-17.4,-1l-17.3,-1.4l-17.3,-1.9l-17.3,-2.4l-17.1,-2.8l-17,-3.3l-16.9,-3.6l-16.8,-4.2l-16.7,-4.5l-16.6,-5l-16.4,-5.4l-16.2,-5.9l-16.1,-6.2l-15.9,-6.7l-15.8,-7.1l-15.6,-7.5l-15.4,-7.9l-15.1,-8.3l-15,-8.7l-14.8,-9.1l-14.5,-9.6l-14.3,-9.9l-14.1,-10.2l-13.8,-10.7l-13.5,-11.1l-13.3,-11.4l-13.1,-11.9l-12.8,-12.2l-12.3,-12.5l-12,-12.7l-11.6,-13.1l-11.2,-13.2l-10.9,-13.6l-10.5,-13.9l-10.2,-14.1l-9.7,-14.3l-9.3,-14.6l-9,-14.8l-8.6,-15l-8.2,-15.2l-7.7,-15.4l-7.4,-15.7l-6.9,-15.8l-6.6,-15.9l-6.1,-16.2l-5.7,-16.3l-5.3,-16.5l-4.9,-16.6l-4.4,-16.7l-4,-16.9l-3.6,-17.1l-3.1,-17.1l-2.6,-17.2l-2.2,-17.3l-1.8,-17.4l-1.3,-17.5l-0.9,-17.6l-0.3,-17.7l0,-17.6l0.6,-17.4l1,-17.4l1.4,-17.4l2,-17.3l2.3,-17.2l2.8,-17.2l3.3,-17l3.7,-16.9l4.1,-16.8l4.5,-16.6l5,-16.6l5.4,-16.4l5.9,-16.3l6.2,-16l6.7,-16l7.1,-15.7l7.5,-15.6l7.9,-15.4l8.3,-15.2l8.7,-14.9l9.2,-14.8l9.5,-14.6l9.9,-14.3l10.3,-14l10.6,-13.8l11.1,-13.6l11.4,-13.3l11.9,-13.1l12.2,-12.7l12.5,-12.4l12.8,-11.9l13,-11.6l13.3,-11.3l13.5,-10.8l13.9,-10.6l14.1,-10.1l14.3,-9.7l14.6,-9.4l14.8,-8.9l15,-8.6l15.2,-8.2l15.5,-7.8l15.6,-7.3l15.8,-7l16,-6.5l16.1,-6.2l16.4,-5.7l16.4,-5.3l16.6,-4.8l16.8,-4.4l16.9,-4l17,-3.6l17.1,-3.1l17.2,-2.7l17.3,-2.2l17.4,-1.7l17.5,-1.4l17.7,-0.8z" fill="#ffffff" fill-rule="evenodd" id="svg_8"/>
  </mask>
  <mask height="34.5" id="mask7" maskUnits="userSpaceOnUse" width="33.36" x="618.37" y="586.92">
   <path d="m1450.9,359.3l8.6,15.4l8.1,15.5l7.8,15.7l7.3,15.9l6.8,16l6.4,16.1l6.1,16.4l5.5,16.4l5.1,16.6l4.7,16.6l4.3,16.8l3.8,16.8l3.3,17l3,17l2.4,17.1l2.1,17.2l1.5,17.2l1.2,17.2l0.7,17.3l0.2,17.3l-0.2,17.3l-0.7,17.3l-1.1,17.3l-1.6,17.4l-2,17.2l-2.5,17.3l-2.9,17.1l-3.4,17.2l-3.9,17.1l-4.3,17.1l-4.8,17l-5.2,16.8l-5.7,16.6l-6,16.3l-6.5,16.2l-6.8,15.9l-7.4,15.9l-7.7,15.5l-8,15.3l-8.5,15.1l-8.8,14.9l-9.3,14.6l-9.6,14.4l-10,14.1l-10.3,13.8l-10.7,13.6l-11,13.2l-11.4,13.1l-11.8,12.7l-12,12.4l-12.4,12l-12.7,11.8l-13,11.5l-13.4,11.1l-13.7,10.8l-13.9,10.4l-14.2,10.1l-14.6,9.7l-14.8,9.4l-15.2,9l-15.4,8.6l-15.5,8.2l-15.7,7.7l-15.9,7.3l-16,6.9l-16.1,6.4l-16.4,6l-16.4,5.6l-16.6,5.1l-16.6,4.7l-16.8,4.2l-16.8,3.8l-17,3.4l-17,2.9l-17.1,2.5l-17.2,2l-17.2,1.6l-17.2,1.2l-17.3,0.7l-17.3,0.2l-17.3,-0.2l-17.3,-0.7l-17.3,-1.1l-17.4,-1.6l-17.2,-2l-17.3,-2.5l-17.1,-2.9l-17.2,-3.4l-17.1,-3.9l-17.1,-4.3l-17,-4.8l-16.8,-5.3l-16.6,-5.6l-16.3,-6l-16.2,-6.5l-15.9,-6.9l-15.9,-7.3l-15.5,-7.7l-15.3,-8.1l-15.1,-8.4l-14.9,-8.9l-14.6,-9.2l-14.4,-9.6l-14.1,-10l-13.8,-10.3l-13.6,-10.7l-13.2,-11l-13.1,-11.5l-12.7,-11.7l-12.4,-12l-12,-12.4l-11.8,-12.7l-11.5,-13.1l-11.1,-13.3l-10.8,-13.7l-10.4,-13.9l-10.1,-14.3l-9.7,-14.5l-9.4,-14.8l-9,-15.2l-8.6,-15.4l-8.2,-15.6l-7.7,-15.7l-7.3,-15.8l-6.9,-16l-6.4,-16.1l-6,-16.4l-5.6,-16.4l-5.1,-16.6l-4.7,-16.6l-4.2,-16.8l-3.8,-16.9l-3.4,-16.9l-2.9,-17.1l-2.5,-17l-2,-17.2l-1.6,-17.2l-1.2,-17.2l-0.7,-17.3l-0.2,-17.3l0.2,-17.3l0.7,-17.3l1.1,-17.3l1.6,-17.4l2,-17.3l2.5,-17.2l2.9,-17.2l3.4,-17.1l3.9,-17.2l4.3,-17.1l4.8,-17l5.3,-16.7l5.6,-16.6l6,-16.3l6.5,-16.2l6.9,-16l7.3,-15.8l7.7,-15.5l8.1,-15.4l8.4,-15l8.9,-14.9l9.2,-14.6l9.6,-14.4l10,-14.1l10.3,-13.8l10.7,-13.6l11,-13.3l11.5,-13l11.7,-12.7l12,-12.4l12.4,-12.1l12.7,-11.7l13.1,-11.5l13.3,-11.1l13.7,-10.8l13.9,-10.4l14.3,-10.1l14.5,-9.7l14.8,-9.4l15.2,-9.1l15.4,-8.6l15.6,-8.1l15.7,-7.8l15.8,-7.3l16,-6.8l16.1,-6.4l16.4,-6l16.4,-5.6l16.6,-5.1l16.6,-4.7l16.8,-4.3l16.9,-3.8l16.9,-3.3l17.1,-3l17,-2.4l17.2,-2.1l17.2,-1.5l17.2,-1.2l17.3,-0.7l17.3,-0.2l17.3,0.2l17.3,0.7l17.3,1.1l17.4,1.6l17.3,2l17.2,2.5l17.2,2.9l17.1,3.4l17.2,3.9l17.1,4.3l17,4.8l16.7,5.2l16.6,5.7l16.3,6l16.2,6.5l16,6.8l15.8,7.4l15.5,7.7l15.4,8l15,8.5l14.9,8.8l14.6,9.3l14.4,9.6l14.1,10l13.8,10.3l13.6,10.7l13.3,11l13,11.4l12.7,11.8l12.4,12l12.1,12.4l11.7,12.7l11.5,13l11.1,13.4l10.8,13.7l10.4,13.9l10.1,14.2l9.7,14.6l9.4,14.8l9.1,15.2z" fill="#ffffff" fill-rule="evenodd" id="svg_9"/>
  </mask>
  <mask height="34.5" id="mask8" maskUnits="userSpaceOnUse" width="33.36" x="526.43" y="640.88">
   <path d="m1411.6,320.5l8.6,15.5l8.2,15.5l7.7,15.7l7.3,15.8l6.8,16l6.4,16.2l6.1,16.3l5.5,16.5l5.1,16.5l4.7,16.7l4.3,16.7l3.8,16.9l3.3,17l3,17l2.4,17.1l2.1,17.1l1.6,17.2l1.1,17.3l0.7,17.3l0.2,17.3l-0.2,17.2l-0.7,17.3l-1.1,17.4l-1.5,17.3l-2.1,17.3l-2.5,17.2l-2.9,17.2l-3.4,17.2l-3.9,17.1l-4.3,17.1l-4.8,17l-5.2,16.8l-5.7,16.5l-6,16.4l-6.5,16.1l-6.8,16l-7.4,15.8l-7.6,15.6l-8.1,15.3l-8.5,15.1l-8.8,14.8l-9.3,14.7l-9.6,14.3l-10,14.1l-10.3,13.9l-10.7,13.5l-11,13.3l-11.4,13l-11.8,12.7l-12,12.4l-12.4,12.1l-12.7,11.8l-13,11.4l-13.4,11.2l-13.7,10.8l-13.9,10.4l-14.2,10.1l-14.6,9.7l-14.8,9.4l-15.2,9l-15.4,8.6l-15.5,8.2l-15.7,7.7l-15.9,7.3l-16,6.9l-16.1,6.4l-16.4,6l-16.4,5.6l-16.6,5.1l-16.6,4.7l-16.8,4.2l-16.8,3.8l-17,3.4l-17,2.9l-17.1,2.5l-17.1,2l-17.2,1.6l-17.3,1.1l-17.3,0.7l-17.3,0.3l-17.3,-0.3l-17.3,-0.6l-17.3,-1.1l-17.4,-1.6l-17.2,-2l-17.2,-2.5l-17.2,-3l-17.2,-3.4l-17.1,-3.8l-17.1,-4.4l-17,-4.8l-16.8,-5.2l-16.6,-5.6l-16.3,-6.1l-16.2,-6.4l-15.9,-6.9l-15.8,-7.3l-15.6,-7.7l-15.3,-8.1l-15.1,-8.5l-14.9,-8.8l-14.6,-9.2l-14.4,-9.7l-14.1,-9.9l-13.8,-10.4l-13.6,-10.6l-13.2,-11.1l-13.1,-11.4l-12.7,-11.7l-12.4,-12.1l-12,-12.4l-11.8,-12.7l-11.5,-13l-11.1,-13.4l-10.8,-13.6l-10.4,-14l-10.1,-14.2l-9.7,-14.5l-9.4,-14.9l-9,-15.2l-8.6,-15.4l-8.2,-15.5l-7.7,-15.7l-7.3,-15.8l-6.9,-16l-6.4,-16.2l-6,-16.3l-5.6,-16.5l-5.1,-16.5l-4.7,-16.7l-4.2,-16.7l-3.8,-16.9l-3.4,-17l-2.9,-17l-2.5,-17.1l-2,-17.1l-1.6,-17.2l-1.2,-17.3l-0.6,-17.3l-0.3,-17.3l0.2,-17.2l0.7,-17.4l1.1,-17.3l1.6,-17.3l2,-17.3l2.5,-17.2l2.9,-17.2l3.4,-17.2l3.9,-17.1l4.3,-17.1l4.8,-17l5.3,-16.8l5.6,-16.5l6,-16.4l6.5,-16.1l6.9,-16l7.3,-15.8l7.7,-15.6l8.1,-15.3l8.4,-15.1l8.9,-14.8l9.2,-14.7l9.6,-14.3l10,-14.1l10.3,-13.9l10.7,-13.5l11.1,-13.3l11.4,-13l11.7,-12.7l12,-12.4l12.4,-12.1l12.7,-11.8l13.1,-11.4l13.4,-11.2l13.6,-10.8l13.9,-10.4l14.3,-10.1l14.5,-9.7l14.9,-9.4l15.1,-9l15.4,-8.6l15.6,-8.2l15.7,-7.7l15.8,-7.3l16,-6.9l16.2,-6.4l16.3,-6l16.5,-5.6l16.5,-5.1l16.6,-4.7l16.8,-4.2l16.9,-3.8l16.9,-3.4l17.1,-2.9l17,-2.5l17.2,-2l17.2,-1.6l17.3,-1.1l17.2,-0.7l17.3,-0.3l17.3,0.3l17.3,0.6l17.3,1.1l17.4,1.6l17.3,2l17.2,2.5l17.2,3l17.1,3.4l17.2,3.8l17.1,4.4l17,4.8l16.7,5.2l16.6,5.6l16.4,6.1l16.1,6.4l16,6.9l15.8,7.3l15.5,7.7l15.4,8.1l15.1,8.5l14.8,8.8l14.6,9.2l14.4,9.7l14.1,9.9l13.8,10.4l13.6,10.6l13.3,11.1l13,11.4l12.7,11.7l12.4,12.1l12.1,12.4l11.7,12.7l11.5,13l11.1,13.4l10.8,13.6l10.4,14l10.1,14.2l9.7,14.5l9.4,14.9l9.1,15.1z" fill="#ffffff" fill-rule="evenodd" id="svg_10"/>
  </mask>
  <mask height="21.96" id="mask9" maskUnits="userSpaceOnUse" width="21.23" x="395.15" y="725.92">
   <path d="m1353.8,262.4l8.6,15.4l8.2,15.6l7.7,15.7l7.3,15.8l6.8,16l6.5,16.2l6,16.3l5.5,16.5l5.2,16.5l4.6,16.7l4.3,16.7l3.8,16.9l3.4,17l2.9,17l2.5,17.1l2,17.1l1.6,17.2l1.1,17.3l0.7,17.2l0.2,17.3l-0.2,17.3l-0.6,17.3l-1.2,17.4l-1.5,17.3l-2.1,17.3l-2.4,17.2l-3,17.2l-3.4,17.1l-3.9,17.2l-4.3,17.1l-4.8,17l-5.2,16.7l-5.6,16.6l-6.1,16.4l-6.4,16.1l-6.9,16l-7.3,15.8l-7.7,15.6l-8.1,15.3l-8.5,15.1l-8.8,14.8l-9.3,14.6l-9.6,14.4l-10,14.1l-10.3,13.8l-10.7,13.6l-11,13.3l-11.4,13l-11.7,12.7l-12.1,12.4l-12.4,12.1l-12.7,11.7l-13,11.5l-13.4,11.2l-13.6,10.7l-14,10.5l-14.2,10l-14.6,9.8l-14.8,9.3l-15.2,9.1l-15.4,8.6l-15.5,8.2l-15.7,7.7l-15.9,7.3l-16,6.8l-16.1,6.5l-16.4,6l-16.4,5.5l-16.5,5.2l-16.7,4.6l-16.7,4.3l-16.9,3.8l-17,3.4l-17,2.9l-17.1,2.4l-17.1,2.1l-17.2,1.6l-17.3,1.1l-17.3,0.7l-17.3,0.2l-17.3,-0.2l-17.3,-0.6l-17.3,-1.2l-17.3,-1.5l-17.3,-2.1l-17.2,-2.4l-17.2,-3l-17.2,-3.4l-17.1,-3.9l-17.1,-4.3l-17,-4.8l-16.8,-5.2l-16.5,-5.6l-16.4,-6.1l-16.2,-6.5l-15.9,-6.8l-15.8,-7.3l-15.6,-7.7l-15.3,-8.1l-15.1,-8.5l-14.8,-8.8l-14.7,-9.3l-14.4,-9.6l-14.1,-10l-13.8,-10.3l-13.5,-10.7l-13.3,-11l-13,-11.4l-12.7,-11.7l-12.4,-12.1l-12.1,-12.4l-11.8,-12.7l-11.4,-13l-11.2,-13.4l-10.8,-13.6l-10.4,-14l-10.1,-14.2l-9.7,-14.6l-9.4,-14.8l-9,-15.2l-8.6,-15.4l-8.2,-15.5l-7.7,-15.7l-7.3,-15.9l-6.9,-16l-6.4,-16.1l-6,-16.4l-5.6,-16.4l-5.1,-16.5l-4.7,-16.7l-4.2,-16.8l-3.8,-16.8l-3.4,-17l-2.9,-17l-2.5,-17.1l-2,-17.1l-1.6,-17.2l-1.1,-17.3l-0.7,-17.3l-0.3,-17.3l0.2,-17.3l0.7,-17.3l1.1,-17.3l1.6,-17.3l2,-17.3l2.5,-17.2l2.9,-17.2l3.5,-17.2l3.8,-17.1l4.4,-17.1l4.8,-17l5.2,-16.8l5.6,-16.5l6,-16.4l6.5,-16.2l6.9,-15.9l7.3,-15.8l7.7,-15.6l8.1,-15.3l8.4,-15.1l8.9,-14.9l9.2,-14.6l9.6,-14.4l10,-14.1l10.3,-13.8l10.7,-13.5l11.1,-13.3l11.4,-13l11.7,-12.8l12.1,-12.3l12.3,-12.1l12.7,-11.8l13.1,-11.4l13.4,-11.2l13.6,-10.8l13.9,-10.4l14.3,-10.1l14.5,-9.7l14.9,-9.4l15.1,-9l15.4,-8.6l15.6,-8.2l15.7,-7.7l15.8,-7.3l16,-6.9l16.2,-6.4l16.3,-6l16.5,-5.6l16.5,-5.1l16.7,-4.7l16.7,-4.2l16.9,-3.8l17,-3.4l17,-2.9l17.1,-2.5l17.1,-2l17.2,-1.6l17.3,-1.1l17.3,-0.7l17.2,-0.3l17.3,0.2l17.3,0.7l17.4,1.1l17.3,1.6l17.3,2l17.2,2.5l17.2,2.9l17.1,3.4l17.2,3.9l17.1,4.4l17,4.8l16.7,5.2l16.6,5.6l16.4,6l16.1,6.5l16,6.9l15.8,7.3l15.6,7.7l15.3,8.1l15.1,8.4l14.8,8.9l14.6,9.2l14.4,9.6l14.1,10l13.8,10.3l13.6,10.7l13.3,11.1l13,11.4l12.7,11.7l12.4,12.1l12.1,12.3l11.7,12.7l11.5,13.1l11.2,13.4l10.7,13.6l10.5,13.9l10,14.3l9.8,14.5l9.3,14.9l9.1,15.1z" fill="#ffffff" fill-rule="evenodd" id="svg_11"/>
  </mask>
  <mask height="634.9" id="mask10" maskUnits="userSpaceOnUse" width="525.89" x="837.39" y="1948.4">
   <path d="m2051.5,2116.3l-0.3,17.6l-0.7,17.6l-1.1,17.4l-1.6,17.4l-2.1,17.3l-2.5,17.2l-3,17.1l-3.4,17l-3.8,16.9l-4.3,16.8l-4.7,16.6l-5.1,16.5l-5.6,16.4l-6,16.2l-6.4,16.1l-6.8,15.8l-7.2,15.7l-7.7,15.5l-8,15.3l-8.4,15.1l-8.9,14.9l-9.2,14.7l-9.6,14.4l-10.1,14.2l-10.3,14l-10.8,13.7l-11.1,13.4l-11.6,13.1l-11.9,12.9l-12.3,12.7l-12.7,12.3l-12.9,11.9l-13.1,11.5l-13.4,11.2l-13.7,10.7l-13.9,10.4l-14.3,10.1l-14.4,9.6l-14.7,9.2l-14.9,8.9l-15,8.4l-15.3,8l-15.6,7.7l-15.7,7.2l-15.8,6.8l-16,6.4l-16.3,6l-16.3,5.6l-16.6,5.1l-16.6,4.7l-16.7,4.3l-16.9,3.8l-17.1,3.4l-17.1,3l-17.2,2.5l-17.3,2.1l-17.4,1.6l-17.4,1.1l-17.6,0.7l-17.6,0.3l-17.7,-0.3l-17.5,-0.7l-17.5,-1.1l-17.3,-1.6l-17.3,-2.1l-17.2,-2.5l-17.2,-3l-17,-3.4l-16.9,-3.8l-16.8,-4.3l-16.6,-4.7l-16.5,-5.1l-16.4,-5.6l-16.2,-6l-16,-6.4l-15.9,-6.8l-15.7,-7.2l-15.5,-7.7l-15.3,-8l-15.1,-8.4l-14.9,-8.9l-14.6,-9.2l-14.5,-9.6l-14.2,-10.1l-13.9,-10.4l-13.7,-10.7l-13.4,-11.2l-13.2,-11.5l-12.9,-11.9l-12.6,-12.3l-12.4,-12.7l-11.9,-12.9l-11.5,-13.1l-11.1,-13.4l-10.8,-13.7l-10.4,-14l-10,-14.2l-9.7,-14.4l-9.2,-14.7l-8.8,-14.9l-8.4,-15.1l-8.1,-15.3l-7.6,-15.5l-7.3,-15.7l-6.8,-15.8l-6.4,-16.1l-6,-16.2l-5.5,-16.4l-5.2,-16.5l-4.7,-16.6l-4.2,-16.8l-3.9,-16.9l-3.4,-17l-2.9,-17.1l-2.6,-17.2l-2,-17.3l-1.6,-17.4l-1.2,-17.4l-0.7,-17.6l-0.2,-17.6l0.2,-17.7l0.7,-17.5l1.2,-17.5l1.6,-17.4l2,-17.2l2.6,-17.2l2.9,-17.2l3.4,-17l3.9,-16.9l4.2,-16.8l4.7,-16.6l5.2,-16.5l5.5,-16.4l6,-16.2l6.4,-16l6.8,-15.9l7.3,-15.7l7.6,-15.5l8.1,-15.3l8.4,-15.1l8.8,-14.9l9.2,-14.6l9.7,-14.5l10,-14.2l10.4,-14l10.8,-13.6l11.1,-13.4l11.5,-13.2l11.9,-12.9l12.4,-12.7l12.6,-12.3l12.9,-11.9l13.2,-11.5l13.4,-11.2l13.7,-10.7l13.9,-10.4l14.2,-10l14.5,-9.7l14.6,-9.2l14.9,-8.8l15.1,-8.5l15.3,-8l15.5,-7.7l15.7,-7.2l15.9,-6.8l16,-6.4l16.2,-6l16.4,-5.5l16.5,-5.2l16.6,-4.7l16.8,-4.3l16.9,-3.8l17,-3.4l17.2,-3l17.2,-2.5l17.3,-2l17.3,-1.7l17.5,-1.1l17.5,-0.7l17.7,-0.2l17.6,0.2l17.6,0.7l17.4,1.1l17.4,1.7l17.3,2l17.2,2.5l17.1,3l17.1,3.4l16.9,3.8l16.7,4.3l16.6,4.7l16.6,5.2l16.3,5.5l16.3,6l16,6.4l15.8,6.8l15.7,7.2l15.6,7.7l15.3,8l15,8.5l14.9,8.8l14.7,9.2l14.4,9.7l14.3,10l13.9,10.4l13.7,10.7l13.4,11.2l13.1,11.5l12.9,11.9l12.7,12.3l12.3,12.7l11.9,12.9l11.6,13.2l11.1,13.4l10.8,13.6l10.3,14l10.1,14.2l9.6,14.5l9.2,14.6l8.9,14.9l8.4,15.1l8,15.3l7.7,15.5l7.2,15.7l6.8,15.9l6.4,16l6,16.2l5.6,16.4l5.1,16.5l4.7,16.6l4.3,16.8l3.8,16.9l3.4,17l3,17.2l2.5,17.2l2.1,17.2l1.6,17.4l1.1,17.5l0.7,17.5l0.3,17.7z" fill="#ffffff" fill-rule="evenodd" id="svg_12"/>
  </mask>
  <mask height="987.4" id="mask11" maskUnits="userSpaceOnUse" width="828" x="1441.18" y="1465.57">
   <path d="m2470.8,1796.9l-0.3,17.6l-0.6,17.6l-1.2,17.4l-1.6,17.4l-2.1,17.3l-2.5,17.2l-3,17.1l-3.4,17l-3.8,16.9l-4.3,16.8l-4.7,16.6l-5.1,16.5l-5.6,16.4l-6,16.2l-6.4,16.1l-6.8,15.8l-7.2,15.7l-7.6,15.5l-8.1,15.3l-8.4,15.1l-8.9,14.9l-9.2,14.6l-9.6,14.5l-10,14.2l-10.4,14l-10.8,13.6l-11.1,13.5l-11.6,13.1l-11.9,12.9l-12.3,12.7l-12.6,12.3l-12.9,11.9l-13.2,11.5l-13.4,11.2l-13.7,10.7l-13.9,10.4l-14.3,10.1l-14.4,9.6l-14.7,9.2l-14.8,8.8l-15.1,8.5l-15.3,8l-15.6,7.7l-15.7,7.2l-15.8,6.8l-16,6.4l-16.2,6l-16.4,5.6l-16.5,5.1l-16.7,4.7l-16.7,4.3l-16.9,3.8l-17,3.4l-17.2,3l-17.2,2.5l-17.3,2.1l-17.4,1.6l-17.4,1.1l-17.6,0.7l-17.6,0.3l-17.7,-0.3l-17.5,-0.7l-17.5,-1.1l-17.3,-1.6l-17.3,-2.1l-17.2,-2.5l-17.2,-3l-17,-3.4l-16.9,-3.8l-16.7,-4.3l-16.7,-4.7l-16.5,-5.1l-16.4,-5.6l-16.2,-6l-16,-6.4l-15.9,-6.8l-15.7,-7.2l-15.5,-7.7l-15.3,-8l-15.1,-8.5l-14.9,-8.8l-14.6,-9.2l-14.5,-9.6l-14.2,-10.1l-13.9,-10.4l-13.7,-10.7l-13.4,-11.2l-13.2,-11.5l-12.9,-11.9l-12.6,-12.3l-12.3,-12.7l-12,-12.9l-11.5,-13.1l-11.1,-13.5l-10.8,-13.6l-10.4,-14l-10,-14.2l-9.6,-14.5l-9.3,-14.6l-8.8,-14.9l-8.4,-15.1l-8.1,-15.3l-7.6,-15.5l-7.3,-15.7l-6.8,-15.8l-6.4,-16.1l-5.9,-16.2l-5.6,-16.4l-5.2,-16.5l-4.7,-16.6l-4.2,-16.8l-3.9,-16.9l-3.4,-17l-2.9,-17.1l-2.6,-17.2l-2,-17.3l-1.6,-17.4l-1.2,-17.4l-0.7,-17.6l-0.2,-17.6l0.2,-17.7l0.7,-17.5l1.2,-17.5l1.6,-17.4l2,-17.2l2.6,-17.2l2.9,-17.2l3.4,-17l3.9,-16.9l4.2,-16.8l4.7,-16.6l5.2,-16.5l5.6,-16.4l5.9,-16.2l6.4,-16l6.8,-15.9l7.3,-15.7l7.6,-15.5l8.1,-15.3l8.4,-15.1l8.8,-14.9l9.3,-14.6l9.6,-14.5l10,-14.2l10.4,-14l10.8,-13.6l11.1,-13.5l11.5,-13.1l12,-12.9l12.3,-12.7l12.6,-12.3l12.9,-11.9l13.2,-11.5l13.4,-11.2l13.7,-10.7l13.9,-10.4l14.2,-10l14.5,-9.7l14.6,-9.2l14.9,-8.8l15.1,-8.5l15.3,-8l15.5,-7.7l15.7,-7.2l15.9,-6.8l16,-6.4l16.2,-6l16.4,-5.6l16.5,-5.1l16.7,-4.7l16.7,-4.3l16.9,-3.8l17,-3.4l17.2,-3l17.2,-2.5l17.3,-2.1l17.3,-1.6l17.5,-1.1l17.5,-0.7l17.7,-0.2l17.6,0.2l17.6,0.7l17.4,1.1l17.4,1.6l17.3,2.1l17.2,2.5l17.2,3l17,3.4l16.9,3.8l16.7,4.3l16.7,4.7l16.5,5.1l16.4,5.6l16.2,6l16,6.4l15.8,6.8l15.7,7.2l15.6,7.7l15.3,8l15.1,8.5l14.8,8.8l14.7,9.2l14.4,9.7l14.3,10l13.9,10.4l13.7,10.7l13.4,11.2l13.2,11.5l12.9,11.9l12.6,12.3l12.3,12.7l11.9,12.9l11.6,13.1l11.1,13.5l10.8,13.6l10.4,14l10,14.2l9.6,14.5l9.2,14.6l8.9,14.9l8.4,15.1l8.1,15.3l7.6,15.5l7.2,15.7l6.8,15.9l6.4,16l6,16.2l5.6,16.4l5.1,16.5l4.7,16.6l4.3,16.8l3.8,16.9l3.4,17l3,17.2l2.5,17.2l2.1,17.2l1.6,17.4l1.2,17.5l0.6,17.5l0.3,17.7z" fill="#ffffff" fill-rule="evenodd" id="svg_13"/>
  </mask>
  <mask height="1311.45" id="mask12" maskUnits="userSpaceOnUse" width="1649.45" x="134.55" y="1762.97">
   <path d="m1600,1736.1l-0.2,17.7l-0.7,17.5l-1.2,17.5l-1.6,17.3l-2.1,17.3l-2.5,17.2l-2.9,17.2l-3.4,17l-3.9,16.9l-4.3,16.8l-4.7,16.6l-5.1,16.5l-5.6,16.4l-5.9,16.2l-6.4,16l-6.9,15.9l-7.2,15.7l-7.6,15.5l-8.1,15.3l-8.4,15.1l-8.8,14.9l-9.3,14.6l-9.6,14.5l-10,14.2l-10.4,13.9l-10.8,13.7l-11.1,13.4l-11.6,13.2l-11.9,12.9l-12.3,12.6l-12.6,12.4l-12.9,11.9l-13.2,11.5l-13.4,11.1l-13.7,10.8l-13.9,10.4l-14.3,10l-14.4,9.7l-14.7,9.2l-14.8,8.8l-15.1,8.5l-15.3,8l-15.6,7.6l-15.6,7.3l-15.9,6.8l-16,6.4l-16.2,6l-16.4,5.5l-16.5,5.2l-16.7,4.7l-16.7,4.2l-16.9,3.9l-17,3.4l-17.2,3l-17.2,2.5l-17.3,2l-17.3,1.6l-17.5,1.2l-17.5,0.7l-17.7,0.2l-17.7,-0.2l-17.5,-0.7l-17.5,-1.2l-17.3,-1.6l-17.3,-2l-17.2,-2.5l-17.2,-3l-17,-3.4l-16.9,-3.9l-16.7,-4.2l-16.7,-4.7l-16.5,-5.2l-16.4,-5.5l-16.2,-6l-16,-6.4l-15.9,-6.8l-15.6,-7.3l-15.6,-7.6l-15.3,-8l-15.1,-8.5l-14.8,-8.8l-14.7,-9.2l-14.4,-9.7l-14.3,-10l-13.9,-10.4l-13.7,-10.8l-13.4,-11.1l-13.2,-11.5l-12.9,-11.9l-12.6,-12.4l-12.3,-12.6l-11.9,-12.9l-11.6,-13.2l-11.1,-13.4l-10.8,-13.7l-10.4,-13.9l-10,-14.2l-9.6,-14.5l-9.3,-14.6l-8.8,-14.9l-8.4,-15.1l-8.1,-15.3l-7.6,-15.5l-7.2,-15.7l-6.9,-15.9l-6.4,-16l-5.9,-16.2l-5.6,-16.4l-5.1,-16.5l-4.7,-16.6l-4.3,-16.8l-3.9,-16.9l-3.4,-17l-2.9,-17.2l-2.5,-17.2l-2.1,-17.3l-1.6,-17.3l-1.2,-17.5l-0.7,-17.5l-0.2,-17.7l0.2,-17.6l0.7,-17.6l1.2,-17.4l1.6,-17.4l2.1,-17.3l2.5,-17.2l2.9,-17.1l3.4,-17.1l3.9,-16.8l4.3,-16.8l4.7,-16.6l5.1,-16.6l5.6,-16.3l5.9,-16.2l6.4,-16.1l6.9,-15.8l7.2,-15.7l7.6,-15.5l8.1,-15.4l8.4,-15l8.8,-14.9l9.3,-14.7l9.6,-14.4l10,-14.2l10.4,-14l10.8,-13.7l11.1,-13.4l11.6,-13.1l11.9,-12.9l12.3,-12.7l12.6,-12.3l12.9,-11.9l13.2,-11.5l13.4,-11.2l13.7,-10.7l13.9,-10.4l14.3,-10.1l14.4,-9.6l14.7,-9.2l14.8,-8.9l15.1,-8.4l15.3,-8l15.6,-7.7l15.6,-7.2l15.9,-6.8l16,-6.4l16.2,-6l16.4,-5.6l16.5,-5.1l16.7,-4.7l16.7,-4.3l16.9,-3.8l17,-3.4l17.2,-3l17.2,-2.5l17.3,-2.1l17.3,-1.6l17.5,-1.1l17.5,-0.7l17.7,-0.3l17.7,0.3l17.5,0.7l17.5,1.1l17.3,1.6l17.3,2.1l17.2,2.5l17.2,3l17,3.4l16.9,3.8l16.7,4.3l16.7,4.7l16.5,5.1l16.4,5.6l16.2,6l16,6.4l15.9,6.8l15.6,7.2l15.6,7.7l15.3,8l15.1,8.4l14.8,8.9l14.7,9.2l14.4,9.6l14.3,10.1l13.9,10.4l13.7,10.7l13.4,11.2l13.2,11.5l12.9,11.9l12.6,12.3l12.3,12.7l11.9,12.9l11.6,13.1l11.1,13.4l10.8,13.7l10.4,14l10,14.2l9.6,14.4l9.3,14.7l8.8,14.9l8.4,15l8.1,15.4l7.6,15.5l7.2,15.7l6.9,15.8l6.4,16.1l5.9,16.2l5.6,16.3l5.1,16.6l4.7,16.6l4.3,16.8l3.9,16.8l3.4,17.1l2.9,17.1l2.5,17.2l2.1,17.3l1.6,17.4l1.2,17.4l0.7,17.6l0.2,17.6z" fill="#ffffff" fill-rule="evenodd" id="svg_14"/>
  </mask>
  <mask height="178.39" id="mask13" maskUnits="userSpaceOnUse" width="312.43" x="435.96" y="1044.12">
   <path d="m-163.7,1680.9l-4.3,-17.1l-3.9,-17.1l-3.4,-17.2l-2.9,-17.2l-2.5,-17.2l-2,-17.3l-1.6,-17.3l-1.1,-17.3l-0.7,-17.3l-0.2,-17.3l0.2,-17.3l0.7,-17.3l1.2,-17.3l1.6,-17.2l2,-17.1l2.5,-17.1l2.9,-17l3.3,-17l3.8,-16.8l4.3,-16.8l4.7,-16.7l5.1,-16.5l5.6,-16.4l6,-16.4l6.4,-16.1l6.8,-16l7.3,-15.9l7.8,-15.7l8.1,-15.5l8.7,-15.4l9,-15.2l9.4,-14.8l9.7,-14.6l10.1,-14.2l10.4,-14l10.8,-13.6l11.1,-13.4l11.5,-13l11.8,-12.7l12,-12.4l12.4,-12.1l12.7,-11.7l13,-11.4l13.3,-11l13.6,-10.7l13.8,-10.3l14.1,-10l14.4,-9.6l14.6,-9.3l14.9,-8.8l15,-8.5l15.4,-8.1l15.5,-7.7l15.8,-7.3l16,-6.8l16.2,-6.5l16.3,-6.1l16.6,-5.6l16.8,-5.2l16.9,-4.8l17.2,-4.3l17.1,-3.9l17.1,-3.4l17.2,-3l17.3,-2.4l17.2,-2.1l17.4,-1.5l17.3,-1.2l17.3,-0.6l17.3,-0.2l17.3,0.2l17.3,0.7l17.2,1.1l17.2,1.6l17.2,2.1l17,2.4l17.1,2.9l16.9,3.4l16.9,3.8l16.8,4.3l16.6,4.6l16.6,5.2l16.4,5.5l16.4,6l16.1,6.5l16,6.8l15.9,7.3l15.6,7.7l15.6,8.2l15.4,8.6l15.2,9.1l14.8,9.3l14.6,9.8l14.2,10l13.9,10.5l13.7,10.7l13.3,11.2l13.1,11.5l12.7,11.7l12.4,12.1l12,12.4l11.8,12.7l11.4,13l11,13.3l10.7,13.6l10.3,13.8l10,14.1l9.6,14.4l9.2,14.6l8.9,14.8l8.5,15.1l8,15.3l7.7,15.6l7.3,15.8l6.9,16l6.5,16.1l6,16.4l5.7,16.6l5.2,16.7l4.8,17l4.3,17.1l3.9,17.2l3.4,17.1l2.9,17.2l2.5,17.2l2,17.3l1.6,17.3l1.1,17.4l0.7,17.3l0.2,17.3l-0.2,17.3l-0.7,17.2l-1.2,17.3l-1.6,17.2l-2,17.1l-2.5,17.1l-2.9,17l-3.3,17l-3.9,16.9l-4.2,16.8l-4.7,16.6l-5.1,16.5l-5.6,16.5l-6,16.3l-6.4,16.2l-6.9,16l-7.2,15.8l-7.8,15.7l-8.1,15.6l-8.7,15.4l-9,15.1l-9.4,14.9l-9.7,14.5l-10.1,14.3l-10.4,13.9l-10.8,13.6l-11.1,13.4l-11.5,13.1l-11.8,12.7l-12,12.3l-12.4,12.1l-12.7,11.7l-13,11.4l-13.3,11.1l-13.6,10.7l-13.8,10.3l-14.1,10l-14.4,9.6l-14.6,9.2l-14.9,8.9l-15.1,8.4l-15.3,8.1l-15.5,7.7l-15.8,7.3l-16,6.9l-16.2,6.5l-16.3,6l-16.6,5.6l-16.8,5.2l-16.9,4.8l-17.2,4.4l-17.1,3.9l-17.1,3.4l-17.2,2.9l-17.3,2.5l-17.2,2l-17.4,1.6l-17.3,1.1l-17.3,0.7l-17.3,0.2l-17.3,-0.3l-17.3,-0.7l-17.2,-1.1l-17.2,-1.6l-17.2,-2l-17,-2.5l-17.1,-2.9l-16.9,-3.4l-16.9,-3.8l-16.8,-4.2l-16.6,-4.7l-16.6,-5.1l-16.4,-5.6l-16.4,-6l-16.1,-6.4l-16,-6.9l-15.9,-7.3l-15.6,-7.7l-15.6,-8.2l-15.4,-8.6l-15.2,-9l-14.8,-9.4l-14.6,-9.7l-14.2,-10.1l-13.9,-10.4l-13.7,-10.8l-13.3,-11.2l-13.1,-11.4l-12.7,-11.8l-12.4,-12.1l-12,-12.3l-11.8,-12.8l-11.4,-13l-11,-13.3l-10.7,-13.5l-10.3,-13.8l-10,-14.1l-9.6,-14.4l-9.2,-14.6l-8.9,-14.9l-8.5,-15.1l-8,-15.3l-7.7,-15.6l-7.3,-15.8l-6.9,-15.9l-6.5,-16.2l-6,-16.3l-5.7,-16.6l-5.2,-16.8l-4.8,-17z" fill="#ffffff" fill-rule="evenodd" id="svg_15"/>
  </mask>
  <mask height="119.51" id="mask14" maskUnits="userSpaceOnUse" width="154.2" x="401.76" y="939.73">
   <path d="m-274.6,1664.8l-8.6,-15.4l-8.1,-15.5l-7.8,-15.7l-7.3,-15.9l-6.8,-16l-6.4,-16.1l-6,-16.4l-5.6,-16.4l-5.1,-16.6l-4.7,-16.6l-4.3,-16.8l-3.8,-16.8l-3.3,-17l-3,-17l-2.4,-17.1l-2.1,-17.2l-1.5,-17.2l-1.2,-17.2l-0.7,-17.3l-0.2,-17.3l0.2,-17.3l0.7,-17.3l1.1,-17.3l1.6,-17.4l2,-17.2l2.5,-17.2l2.9,-17.2l3.4,-17.2l3.9,-17.1l4.3,-17.1l4.8,-17l5.2,-16.8l5.7,-16.6l6,-16.3l6.5,-16.2l6.8,-15.9l7.4,-15.9l7.7,-15.5l8,-15.3l8.5,-15.1l8.8,-14.9l9.3,-14.6l9.6,-14.4l10,-14.1l10.3,-13.8l10.7,-13.6l11,-13.2l11.4,-13.1l11.8,-12.7l12,-12.4l12.4,-12l12.7,-11.8l13,-11.5l13.4,-11.1l13.7,-10.8l13.9,-10.4l14.2,-10.1l14.6,-9.7l14.8,-9.4l15.2,-9l15.4,-8.6l15.5,-8.2l15.7,-7.7l15.9,-7.3l16,-6.9l16.1,-6.4l16.4,-6l16.4,-5.6l16.6,-5.1l16.6,-4.7l16.8,-4.2l16.8,-3.8l17,-3.4l17,-2.9l17.1,-2.5l17.2,-2l17.2,-1.6l17.2,-1.2l17.3,-0.6l17.3,-0.3l17.3,0.2l17.3,0.7l17.3,1.1l17.4,1.6l17.2,2l17.3,2.5l17.1,2.9l17.2,3.4l17.1,3.9l17.1,4.3l17,4.8l16.8,5.3l16.6,5.6l16.3,6l16.2,6.5l15.9,6.9l15.9,7.3l15.5,7.7l15.3,8.1l15.1,8.4l14.9,8.9l14.6,9.2l14.4,9.6l14.1,10l13.8,10.3l13.6,10.7l13.2,11.1l13.1,11.4l12.7,11.7l12.4,12l12,12.4l11.8,12.7l11.5,13.1l11.1,13.4l10.8,13.6l10.4,13.9l10.1,14.3l9.7,14.5l9.4,14.8l9,15.2l8.6,15.4l8.2,15.6l7.7,15.7l7.3,15.8l6.9,16l6.4,16.2l6,16.3l5.6,16.4l5.1,16.6l4.7,16.6l4.2,16.8l3.8,16.9l3.4,16.9l2.9,17.1l2.5,17l2,17.2l1.6,17.2l1.2,17.3l0.7,17.2l0.2,17.3l-0.2,17.3l-0.7,17.3l-1.1,17.3l-1.6,17.4l-2,17.3l-2.5,17.2l-2.9,17.2l-3.4,17.1l-3.9,17.2l-4.3,17.1l-4.8,17l-5.3,16.7l-5.6,16.6l-6,16.3l-6.5,16.2l-6.9,16l-7.3,15.8l-7.7,15.5l-8.1,15.4l-8.4,15l-8.9,14.9l-9.2,14.6l-9.6,14.4l-10,14.1l-10.3,13.8l-10.7,13.6l-11,13.3l-11.5,13l-11.7,12.7l-12,12.4l-12.4,12.1l-12.7,11.7l-13.1,11.5l-13.3,11.1l-13.7,10.8l-13.9,10.4l-14.3,10.1l-14.5,9.7l-14.8,9.4l-15.2,9.1l-15.4,8.6l-15.6,8.1l-15.7,7.8l-15.8,7.3l-16,6.8l-16.1,6.4l-16.4,6.1l-16.4,5.5l-16.6,5.1l-16.6,4.7l-16.8,4.3l-16.9,3.8l-16.9,3.3l-17.1,3l-17,2.4l-17.2,2.1l-17.2,1.6l-17.2,1.1l-17.3,0.7l-17.3,0.2l-17.3,-0.2l-17.3,-0.7l-17.3,-1.1l-17.4,-1.6l-17.3,-2l-17.2,-2.5l-17.2,-2.9l-17.1,-3.4l-17.2,-3.9l-17.1,-4.3l-17,-4.8l-16.7,-5.2l-16.6,-5.7l-16.3,-6l-16.2,-6.5l-16,-6.8l-15.8,-7.4l-15.5,-7.7l-15.4,-8l-15,-8.5l-14.9,-8.8l-14.6,-9.3l-14.4,-9.6l-14.1,-10l-13.8,-10.3l-13.6,-10.7l-13.3,-11l-13,-11.4l-12.7,-11.8l-12.4,-12l-12.1,-12.4l-11.7,-12.7l-11.5,-13l-11.1,-13.4l-10.8,-13.7l-10.4,-13.9l-10.1,-14.2l-9.7,-14.6l-9.4,-14.8l-9.1,-15.2z" fill="#ffffff" fill-rule="evenodd" id="svg_16"/>
  </mask>
  <mask height="119.51" id="mask15" maskUnits="userSpaceOnUse" width="154.2" x="1146.54" y="985.83">
   <path d="m892.7,1138.1l9,-15.2l9.4,-14.8l9.7,-14.6l10.1,-14.2l10.4,-13.9l10.8,-13.7l11.2,-13.3l11.4,-13.1l11.8,-12.7l12.1,-12.4l12.4,-12l12.7,-11.8l13,-11.4l13.3,-11l13.5,-10.7l13.8,-10.3l14.1,-10l14.4,-9.6l14.7,-9.2l14.8,-8.9l15.1,-8.5l15.3,-8l15.6,-7.7l15.8,-7.3l15.9,-6.9l16.2,-6.5l16.4,-6l16.5,-5.7l16.8,-5.2l17,-4.8l17.1,-4.3l17.1,-3.9l17.2,-3.4l17.2,-2.9l17.2,-2.5l17.3,-2l17.3,-1.6l17.3,-1.1l17.3,-0.7l17.3,-0.2l17.3,0.2l17.3,0.7l17.3,1.2l17.2,1.6l17.1,2l17.1,2.5l17,2.9l17,3.3l16.9,3.9l16.7,4.2l16.7,4.7l16.5,5.1l16.5,5.6l16.3,6l16.2,6.4l16,6.9l15.8,7.2l15.7,7.8l15.5,8.1l15.4,8.7l15.2,9l14.9,9.4l14.5,9.7l14.2,10.1l14,10.4l13.6,10.8l13.4,11.1l13,11.5l12.7,11.8l12.4,12l12.1,12.4l11.7,12.7l11.4,13l11,13.3l10.7,13.6l10.4,13.8l9.9,14.1l9.6,14.4l9.3,14.6l8.8,14.9l8.5,15.1l8.1,15.3l7.7,15.5l7.3,15.8l6.9,16l6.4,16.2l6.1,16.3l5.6,16.6l5.2,16.8l4.8,16.9l4.4,17.2l3.8,17.1l3.4,17.1l3,17.2l2.4,17.3l2.1,17.2l1.5,17.4l1.2,17.3l0.6,17.3l0.2,17.3l-0.2,17.3l-0.7,17.3l-1.1,17.2l-1.6,17.2l-2,17.2l-2.5,17l-2.9,17.1l-3.4,17l-3.8,16.8l-4.3,16.8l-4.6,16.6l-5.2,16.6l-5.5,16.4l-6,16.4l-6.5,16.1l-6.8,16l-7.3,15.9l-7.7,15.6l-8.2,15.6l-8.6,15.4l-9.1,15.2l-9.3,14.8l-9.8,14.6l-10,14.2l-10.5,13.9l-10.7,13.7l-11.2,13.3l-11.4,13.1l-11.8,12.7l-12.1,12.4l-12.4,12l-12.7,11.8l-13,11.4l-13.3,11l-13.5,10.7l-13.9,10.3l-14.1,10l-14.4,9.6l-14.6,9.2l-14.8,8.9l-15.1,8.5l-15.3,8l-15.6,7.7l-15.8,7.3l-16,6.9l-16.1,6.5l-16.4,6l-16.5,5.7l-16.8,5.2l-17,4.8l-17.1,4.3l-17.2,3.9l-17.1,3.4l-17.2,2.9l-17.2,2.5l-17.3,2l-17.3,1.6l-17.4,1.1l-17.3,0.7l-17.3,0.2l-17.2,-0.2l-17.3,-0.7l-17.3,-1.2l-17.2,-1.5l-17.1,-2.1l-17.1,-2.5l-17,-2.9l-17,-3.3l-16.9,-3.8l-16.7,-4.3l-16.7,-4.7l-16.5,-5.1l-16.5,-5.6l-16.3,-6l-16.2,-6.4l-16,-6.8l-15.8,-7.3l-15.7,-7.8l-15.6,-8.1l-15.4,-8.7l-15.1,-9l-14.9,-9.4l-14.5,-9.7l-14.3,-10.1l-13.9,-10.4l-13.6,-10.8l-13.4,-11.1l-13,-11.5l-12.8,-11.8l-12.3,-12l-12.1,-12.4l-11.7,-12.7l-11.4,-13l-11.1,-13.3l-10.6,-13.6l-10.4,-13.8l-9.9,-14.1l-9.7,-14.4l-9.2,-14.6l-8.9,-14.9l-8.4,-15l-8.1,-15.4l-7.7,-15.5l-7.3,-15.8l-6.9,-16l-6.4,-16.2l-6.1,-16.3l-5.6,-16.6l-5.2,-16.8l-4.8,-16.9l-4.4,-17.2l-3.8,-17.1l-3.4,-17.1l-3,-17.2l-2.5,-17.3l-2,-17.2l-1.6,-17.4l-1.1,-17.3l-0.7,-17.3l-0.2,-17.3l0.3,-17.3l0.7,-17.3l1.1,-17.2l1.6,-17.2l2,-17.2l2.5,-17l2.9,-17.1l3.4,-16.9l3.8,-16.9l4.2,-16.8l4.7,-16.6l5.1,-16.6l5.6,-16.4l6,-16.4l6.4,-16.1l6.9,-16l7.3,-15.9l7.7,-15.6l8.2,-15.6l8.6,-15.4z" fill="#ffffff" fill-rule="evenodd" id="svg_17"/>
  </mask>
  <mask height="163.9" id="mask16" maskUnits="userSpaceOnUse" width="161.66" x="1090.56" y="1147.7">
   <path d="m1087.8,1742.7l-7.3,-16.1l-6.7,-16.2l-6.4,-16.3l-5.9,-16.4l-5.4,-16.5l-5,-16.7l-4.5,-16.8l-4.2,-16.9l-3.6,-16.9l-3.2,-17l-2.8,-17.1l-2.3,-17.1l-1.9,-17.2l-1.4,-17.2l-1,-17.2l-0.5,-17.3l-0.1,-17.3l0.4,-17.3l0.8,-17.2l1.3,-17.3l1.7,-17.2l2.1,-17.2l2.7,-17.1l3,-17.2l3.6,-17l3.9,-17l4.5,-16.8l4.9,-16.8l5.3,-16.7l5.8,-16.7l6.3,-16.5l6.6,-16.3l7.1,-16l7.4,-15.7l7.9,-15.6l8.2,-15.3l8.7,-15.1l9,-14.8l9.4,-14.6l9.7,-14.3l10.1,-14l10.5,-13.8l10.9,-13.4l11.1,-13.2l11.5,-12.9l11.8,-12.6l12.2,-12.2l12.5,-12l12.8,-11.7l13.1,-11.2l13.4,-11l13.6,-10.6l14,-10.3l14.3,-9.9l14.6,-9.6l14.8,-9.2l15,-8.8l15.3,-8.4l15.7,-8l15.9,-7.7l16.1,-7.2l16.2,-6.8l16.3,-6.4l16.4,-5.8l16.5,-5.5l16.7,-5l16.8,-4.5l16.8,-4.1l17,-3.7l17,-3.2l17,-2.8l17.2,-2.3l17.2,-1.9l17.2,-1.4l17.2,-1l17.3,-0.5l17.2,-0.1l17.3,0.4l17.3,0.8l17.2,1.3l17.3,1.7l17.1,2.2l17.2,2.6l17.1,3.1l17.1,3.5l16.9,4l16.9,4.4l16.8,4.9l16.7,5.3l16.7,5.8l16.5,6.3l16.2,6.7l16,7l15.8,7.5l15.5,7.8l15.3,8.2l15.2,8.7l14.8,9l14.5,9.4l14.3,9.8l14.1,10.1l13.7,10.4l13.5,10.9l13.2,11.1l12.9,11.5l12.5,11.9l12.3,12.1l12,12.5l11.6,12.8l11.3,13.1l11,13.4l10.6,13.7l10.3,14l9.9,14.3l9.5,14.5l9.2,14.8l8.8,15l8.4,15.4l8.1,15.6l7.7,15.9l7.2,16.1l6.8,16.2l6.3,16.3l5.9,16.4l5.4,16.5l5,16.7l4.6,16.8l4.1,16.9l3.7,16.9l3.2,17l2.7,17l2.4,17.2l1.8,17.2l1.5,17.2l0.9,17.2l0.6,17.3l0,17.2l-0.3,17.4l-0.8,17.2l-1.3,17.3l-1.7,17.2l-2.2,17.2l-2.6,17.1l-3.1,17.2l-3.5,17l-4,16.9l-4.4,16.9l-4.9,16.8l-5.4,16.7l-5.8,16.7l-6.2,16.5l-6.7,16.3l-7,16l-7.5,15.7l-7.8,15.6l-8.3,15.3l-8.7,15.1l-9,14.8l-9.4,14.6l-9.7,14.3l-10.1,14l-10.5,13.7l-10.8,13.5l-11.2,13.2l-11.5,12.9l-11.8,12.6l-12.2,12.2l-12.5,12l-12.7,11.6l-13.1,11.3l-13.4,11l-13.7,10.6l-14,10.3l-14.3,9.9l-14.5,9.6l-14.8,9.1l-15.1,8.8l-15.3,8.5l-15.6,8l-15.9,7.7l-16.1,7.2l-16.2,6.8l-16.3,6.3l-16.4,5.9l-16.6,5.5l-16.6,4.9l-16.8,4.6l-16.9,4.1l-16.9,3.7l-17,3.2l-17.1,2.8l-17.1,2.3l-17.2,1.9l-17.2,1.4l-17.3,1l-17.2,0.5l-17.3,0.1l-17.3,-0.4l-17.3,-0.8l-17.2,-1.3l-17.2,-1.7l-17.2,-2.2l-17.2,-2.6l-17.1,-3.1l-17,-3.5l-17,-4l-16.8,-4.4l-16.8,-4.9l-16.8,-5.3l-16.6,-5.9l-16.5,-6.2l-16.3,-6.7l-16,-7l-15.8,-7.5l-15.5,-7.8l-15.3,-8.3l-15.1,-8.6l-14.8,-9.1l-14.6,-9.3l-14.3,-9.8l-14,-10.1l-13.8,-10.5l-13.5,-10.8l-13.1,-11.2l-12.9,-11.5l-12.6,-11.8l-12.3,-12.1l-11.9,-12.5l-11.7,-12.8l-11.3,-13.1l-10.9,-13.4l-10.6,-13.7l-10.3,-14l-10,-14.3l-9.5,-14.5l-9.2,-14.8l-8.8,-15.1l-8.4,-15.3l-8,-15.6l-7.7,-15.9z" fill="#ffffff" fill-rule="evenodd" id="svg_18"/>
  </mask>
  <mask height="105.6" id="mask17" maskUnits="userSpaceOnUse" width="124.8" x="532.71" y="1342.03">
   <path d="m1189.9,2263.7l-17.6,-0.2l-17.6,-0.7l-17.4,-1.2l-17.4,-1.6l-17.3,-2l-17.2,-2.6l-17.1,-2.9l-17,-3.4l-16.9,-3.9l-16.8,-4.2l-16.6,-4.7l-16.5,-5.2l-16.4,-5.5l-16.2,-6l-16.1,-6.4l-15.8,-6.8l-15.7,-7.3l-15.5,-7.6l-15.3,-8.1l-15.1,-8.4l-14.9,-8.8l-14.7,-9.3l-14.4,-9.6l-14.2,-10l-14,-10.4l-13.7,-10.8l-13.4,-11.1l-13.1,-11.5l-12.9,-12l-12.7,-12.3l-12.3,-12.6l-11.9,-12.9l-11.5,-13.2l-11.2,-13.4l-10.7,-13.7l-10.4,-13.9l-10.1,-14.2l-9.6,-14.5l-9.2,-14.6l-8.9,-14.9l-8.4,-15.1l-8,-15.3l-7.7,-15.5l-7.2,-15.7l-6.8,-15.9l-6.4,-16l-6,-16.2l-5.6,-16.4l-5.1,-16.5l-4.7,-16.6l-4.3,-16.8l-3.8,-16.9l-3.4,-17l-3,-17.2l-2.5,-17.2l-2.1,-17.3l-1.6,-17.3l-1.1,-17.5l-0.7,-17.5l-0.3,-17.7l0.3,-17.6l0.7,-17.6l1.1,-17.4l1.6,-17.4l2.1,-17.3l2.5,-17.2l3,-17.1l3.4,-17.1l3.8,-16.9l4.3,-16.7l4.7,-16.7l5.1,-16.5l5.6,-16.4l6,-16.2l6.4,-16l6.8,-15.8l7.2,-15.7l7.7,-15.6l8,-15.3l8.4,-15.1l8.9,-14.8l9.2,-14.7l9.6,-14.4l10.1,-14.3l10.4,-13.9l10.7,-13.7l11.2,-13.4l11.5,-13.1l11.9,-13l12.3,-12.6l12.7,-12.3l12.9,-11.9l13.1,-11.6l13.4,-11.1l13.7,-10.8l14,-10.3l14.2,-10.1l14.4,-9.6l14.7,-9.2l14.9,-8.9l15.1,-8.4l15.3,-8.1l15.5,-7.6l15.7,-7.2l15.8,-6.8l16.1,-6.4l16.2,-6l16.4,-5.6l16.5,-5.1l16.6,-4.7l16.8,-4.3l16.9,-3.8l17,-3.4l17.1,-3l17.2,-2.5l17.3,-2.1l17.4,-1.6l17.4,-1.1l17.6,-0.7l17.6,-0.3l17.7,0.3l17.5,0.7l17.5,1.1l17.4,1.6l17.2,2.1l17.2,2.5l17.2,3l17,3.4l16.9,3.8l16.8,4.3l16.6,4.7l16.5,5.1l16.4,5.6l16.2,6l16,6.4l15.9,6.8l15.7,7.2l15.5,7.6l15.3,8.1l15.1,8.4l14.9,8.9l14.6,9.2l14.5,9.6l14.2,10.1l14,10.3l13.6,10.8l13.4,11.1l13.2,11.6l12.9,11.9l12.7,12.3l12.3,12.6l11.9,13l11.5,13.1l11.2,13.4l10.7,13.7l10.4,13.9l10,14.3l9.7,14.4l9.2,14.7l8.8,14.8l8.5,15.1l8,15.3l7.7,15.6l7.2,15.7l6.8,15.8l6.4,16l6,16.2l5.5,16.4l5.2,16.5l4.7,16.7l4.3,16.7l3.8,16.9l3.4,17.1l3,17.1l2.5,17.2l2,17.3l1.7,17.4l1.1,17.4l0.7,17.6l0.2,17.6l-0.2,17.7l-0.7,17.5l-1.1,17.5l-1.7,17.3l-2,17.3l-2.5,17.2l-3,17.2l-3.4,17l-3.8,16.9l-4.3,16.8l-4.7,16.6l-5.2,16.5l-5.5,16.4l-6,16.2l-6.4,16l-6.8,15.9l-7.2,15.7l-7.7,15.5l-8,15.3l-8.5,15.1l-8.8,14.9l-9.2,14.6l-9.7,14.5l-10,14.2l-10.4,13.9l-10.7,13.7l-11.2,13.4l-11.5,13.2l-11.9,12.9l-12.3,12.6l-12.7,12.3l-12.9,12l-13.2,11.5l-13.4,11.1l-13.6,10.8l-14,10.4l-14.2,10l-14.5,9.6l-14.6,9.3l-14.9,8.8l-15.1,8.4l-15.3,8.1l-15.5,7.6l-15.7,7.3l-15.9,6.8l-16,6.4l-16.2,6l-16.4,5.5l-16.5,5.2l-16.6,4.7l-16.8,4.2l-16.9,3.9l-17,3.4l-17.2,2.9l-17.2,2.6l-17.2,2l-17.4,1.6l-17.5,1.2l-17.5,0.7l-17.7,0.2z" fill="#ffffff" fill-rule="evenodd" id="svg_19"/>
  </mask>
 </defs>
 <g class="layer">
  <title>Layer 1</title>
  <g id="svg_20">
   <g id="svg_23">
    <path d="m791.37,270.38l8.76,26.49l29.34,7.98l-29.34,7.91l-8.76,26.49l-8.84,-26.49l-29.34,-7.91l29.34,-7.98l8.84,-26.49z" fill="url(#linearGradient-3)" fill-rule="evenodd" id="矩形"/>
   </g>
   <g id="svg_24">
    <path d="m183.56,159.73l1.02,2.35l0.07,2.42l-0.65,2.16l-0.65,0.98l-1.89,1.5l-2.39,0.72l-1.23,0l-2.47,-0.53l-2.25,-1.31l-1.74,-1.96l-1.02,-2.35l-0.15,-2.42l0.73,-2.16l0.65,-0.98l1.89,-1.5l2.39,-0.72l1.23,0l2.39,0.53l2.25,1.31l1.81,1.96l0.01,0z" fill="#d6efd8" fill-rule="nonzero" id="椭圆形"/>
   </g>
   <g id="svg_25">
    <path d="m268.81,167.38l0.94,1.89l0.58,1.83l0.29,1.83l-0.07,1.83l-0.44,1.76l-0.65,1.63l-1.02,1.44l-1.31,1.25l-1.6,1.04l-1.81,0.78l-1.89,0.32l-1.89,0.06l-1.96,-0.26l-1.81,-0.53l-1.81,-0.91l-1.67,-1.11l-1.45,-1.37l-1.31,-1.7l-0.94,-1.83l-0.65,-1.83l-0.22,-1.83l0.07,-1.89l0.36,-1.7l0.73,-1.63l1.02,-1.5l1.31,-1.25l1.6,-1.04l1.81,-0.72l1.81,-0.4l1.96,-0.06l1.89,0.26l1.89,0.59l1.81,0.85l1.67,1.11l1.45,1.44l1.31,1.63l0,0.01z" fill="#d6efd8" fill-rule="nonzero" id="椭圆形备份-11"/>
   </g>
   <g id="svg_26">
    <path d="m690.05,49.99l2.25,0.13l2.1,0.4l1.89,0.65l1.81,0.91l1.52,1.11l1.23,1.37l1.02,1.44l0.58,1.63l0.29,1.76l-0.15,1.83l-0.51,1.63l-0.8,1.57l-1.16,1.37l-1.45,1.25l-1.74,1.04l-1.81,0.78l-2.03,0.46l-2.32,0.26l-2.25,-0.06l-2.03,-0.4l-1.96,-0.65l-1.81,-0.98l-1.45,-1.11l-1.31,-1.31l-0.94,-1.5l-0.65,-1.63l-0.29,-1.76l0.15,-1.76l0.51,-1.63l0.87,-1.57l1.16,-1.44l1.38,-1.18l1.74,-1.04l1.89,-0.78l2.03,-0.53l2.25,-0.26l-0.01,0z" fill="#d6efd8" fill-rule="nonzero" id="椭圆形备份-15"/>
   </g>
   <g id="svg_27">
    <path d="m727.27,143.83l1.74,0.06l1.6,0.32l1.52,0.59l1.38,0.85l1.16,0.98l0.8,1.18l0.58,1.31l0.22,1.31l-0.15,1.37l-0.44,1.31l-0.73,1.18l-1.09,1.11l-1.31,0.91l-1.45,0.72l-1.6,0.4l-1.74,0.19l-3.34,-0.4l-1.52,-0.59l-1.31,-0.85l-1.16,-1.04l-0.87,-1.11l-0.51,-1.31l-0.22,-1.31l0.07,-1.37l0.51,-1.31l0.73,-1.25l1.02,-1.04l1.31,-0.91l1.45,-0.72l1.67,-0.4l1.67,-0.19l0.01,0z" fill="#d6efd8" fill-rule="nonzero" id="椭圆形备份-16"/>
   </g>
   <g id="svg_28">
    <path d="m781.09,246.18l3.05,0.32l2.61,1.11l1.96,1.76l0.65,1.04l0.65,2.42l-0.44,2.42l-1.45,2.09l-2.18,1.57l-2.76,0.91l-3.19,0.13l-1.45,-0.32l-2.61,-1.11l-1.96,-1.7l-0.73,-1.04l-0.65,-2.42l0.44,-2.42l0.65,-1.11l1.81,-1.83l2.54,-1.31l3.05,-0.53l0.01,0z" fill="#d6efd8" fill-rule="nonzero" id="椭圆形备份-17"/>
   </g>
   <g id="svg_29">
    <path d="m843.52,291.77l2.76,0.32l2.39,1.18l1.67,1.83l0.65,2.22l-0.44,2.22l-1.52,1.89l-2.32,1.31l-2.76,0.53l-2.76,-0.32l-2.39,-1.18l-1.67,-1.83l-0.65,-2.16l0.44,-2.22l1.52,-1.96l2.32,-1.31l2.76,-0.53l0,0.01z" fill="#d6efd8" fill-rule="nonzero" id="椭圆形备份-18"/>
   </g>
   <g id="svg_30">
    <path d="m369.49,207.99l1.09,2.61l0,2.75l-1.16,2.35l-0.87,0.98l-1.16,0.72l-1.23,0.53l-1.38,0.19l-2.83,-0.32l-2.61,-1.31l-2.03,-2.16l-1.02,-2.61l0,-2.68l0.44,-1.31l0.73,-1.11l0.87,-0.91l1.09,-0.78l1.31,-0.46l1.38,-0.26l1.38,0.06l1.45,0.26l2.61,1.31l1.96,2.16l-0.02,0z" fill="#d6efd8" fill-rule="nonzero" id="椭圆形备份-12"/>
   </g>
   <g id="svg_31">
    <path d="m302.92,243.31l1.09,2.61l-0.07,2.68l-0.44,1.31l-0.65,1.11l-0.87,0.91l-1.16,0.78l-1.23,0.46l-1.38,0.26l-2.83,-0.32l-2.61,-1.31l-2.03,-2.16l-1.09,-2.61l0.07,-2.75l1.09,-2.35l0.94,-0.98l1.09,-0.72l1.31,-0.53l1.31,-0.19l1.45,0l1.45,0.32l2.61,1.31l1.96,2.16l-0.01,0z" fill="#d6efd8" fill-rule="nonzero" id="椭圆形备份-13"/>
   </g>
   <g id="svg_32">
    <path d="m201.24,295.96l0.58,1.18l0.15,1.11l-0.07,1.11l-0.36,1.04l-0.65,0.85l-0.94,0.72l-1.16,0.4l-1.16,0.06l-1.16,-0.19l-1.16,-0.53l-0.94,-0.72l-0.87,-0.98l-0.51,-1.18l-0.22,-1.11l0.07,-1.11l0.44,-1.04l0.65,-0.85l0.94,-0.72l1.09,-0.4l1.16,-0.06l1.23,0.19l1.09,0.53l0.94,0.72l0.87,0.98l-0.01,0z" fill="#d6efd8" fill-rule="nonzero" id="椭圆形备份-14"/>
   </g>
   <g id="svg_33">
    <g id="svg_34">
     <g id="svg_35">
      <path d="m116.21,610.06l134.71,-231.64l0.94,-1.37l1.16,-1.18l1.38,-0.85l1.52,-0.72l3.19,-0.65l1.74,0.06l1.67,0.32l2.39,0.98l13.9,8.11l2.47,1.11l2.47,0.78l2.61,0.4l2.61,0l2.54,-0.4l2.47,-0.72l2.32,-1.11l2.1,-1.37l1.96,-1.83l1.31,-1.76l0.94,-1.89l0.51,-1.96l0.15,-1.96l-0.22,-2.03l-0.58,-1.96l-0.94,-1.83l-1.31,-1.63l-1.74,-1.5l-12.53,-7.46l-2.47,-2.03l-0.87,-1.25l-1.02,-2.75l0,-2.94l0.44,-1.44l0.73,-1.37l46.21,-73.45l1.6,-1.96l1.81,-1.63l2.03,-1.31l2.32,-0.98l2.39,-0.59l2.54,-0.26l2.54,0.19l2.47,0.59l2.47,0.98l2.1,1.31l1.74,1.57l1.52,1.83l1.09,2.03l78.14,182.01l-14.12,94.57l-303.33,60.95l-0.02,0.02z" fill="url(#linearGradient-4)" fill-rule="evenodd" id="svg_36"/>
     </g>
    </g>
   </g>
   <g id="svg_37">
    <g id="svg_38">
     <g id="svg_39">
      <path d="m268.09,714.51l211.27,-363.56l2.47,-3.07l3.05,-2.29l2.39,-1.04l2.47,-0.72l2.68,-0.32l3.91,0.32l1.96,0.53l3.19,1.37l5.94,3.92l2.03,0.91l2.18,0.59l4.35,0.53l4.35,-0.53l4.13,-1.5l1.81,-1.04l1.74,-1.37l1.6,-1.57l2.18,-3.33l73.01,-153.23l1.45,-2.55l1.74,-2.29l2.03,-2.03l2.32,-1.76l2.54,-1.44l2.68,-1.11l2.83,-0.85l2.9,-0.46l2.97,-0.19l3.05,0.19l2.97,0.59l3.05,0.91l2.76,1.31l2.54,1.57l2.25,1.83l1.96,2.09l1.67,2.35l1.31,2.55l120.16,279.84l-22.24,148.91l-477.51,95.94l-0.05,0z" fill="url(#linearGradient-7)" fill-rule="evenodd" id="svg_40"/>
     </g>
    </g>
   </g>
   <g id="svg_41">
    <g id="svg_42">
     <path d="m281.85,434.66l17.02,17.86l12.97,-3.53l13.4,-3.2l13.83,-3.01l14.27,-2.75l14.77,-2.42l15.21,-2.22l14.84,-1.76l15.35,-1.5l15.79,-1.18l16.22,-0.85l16.8,-0.53l17.31,-0.19l17.09,0.19l16.73,0.46l16.22,0.72l15.86,0.98l15.5,1.31l15.13,1.57l15.42,1.83l14.99,2.16l14.7,2.35l14.19,2.61l13.9,2.81l13.54,3.07l13.76,3.4l13.4,3.6l12.97,3.86l12.68,3.99l12.24,4.19l11.95,4.45l24.69,-24.13l2.25,-1.89l2.54,-1.57l2.68,-1.18l2.83,-0.78l2.9,-0.4l2.97,-0.06l2.9,0.4l2.9,0.72l2.83,1.18l53.74,27.08l2.1,1.18l3.48,2.88l2.61,3.53l1.6,3.86l0.44,2.09l0.07,4.19l-1.02,4.32l-11.74,30.28l10.29,7.19l9.92,7.33l9.56,7.52l9.2,7.65l8.76,7.78l8.4,7.91l8.26,8.31l7.89,8.37l7.46,8.5l7.1,8.57l6.81,8.69l6.37,8.9l6.15,9.09l5.79,9.16l5.43,9.22l5.07,9.35l4.71,9.41l4.35,9.55l4.06,9.68l3.7,9.75l3.34,9.75l2.97,9.88l2.61,9.88l2.32,9.94l1.96,10.07l1.52,10.07l1.23,10.07l0.94,10.13l0.51,10.13l0.15,10.2l-0.15,10l-0.51,9.88l-0.87,9.88l-1.16,9.75l-1.52,9.62l-1.89,9.62l-2.18,9.55l-2.54,9.48l-2.9,9.35l-3.19,9.29l-3.55,9.16l-3.84,9.09l-4.2,9.03l-4.56,8.9l-4.85,8.77l-5.14,8.57l-5.5,8.5l-5.86,8.37l-6.23,8.31l-6.52,8.18l-6.95,8.05l-7.1,7.78l-7.39,7.65l-7.82,7.46l-8.18,7.39l-8.47,7.26l-8.91,7.13l-9.27,6.93l-9.34,6.61l-9.63,6.48l-10.07,6.28l-10.43,6.15l-10.79,5.95l-11.23,5.82l-11.66,5.62l-11.45,5.23l-11.88,5.04l-12.32,4.84l-12.68,4.71l-13.11,4.45l-13.54,4.25l-13.98,4.05l-13.62,3.66l-14.05,3.47l-14.48,3.2l-14.92,2.94l-15.35,2.75l-15.79,2.48l-16.29,2.22l-15.79,1.89l-16.22,1.57l-16.66,1.31l-17.09,1.04l-17.6,0.78l-18.03,0.46l-18.61,0.19l-21.66,-0.19l-20.86,-0.53l-20.06,-0.91l-19.34,-1.18l-18.54,-1.5l-17.74,-1.83l-15.93,-1.89l-15.28,-2.16l-14.84,-2.35l-14.19,-2.55l-13.76,-2.75l-13.26,-2.94l-12.75,-3.14l-13.18,-3.53l-12.75,-3.73l-12.24,-3.92l-11.74,-4.12l-11.3,-4.19l-10.87,-4.45l-10.43,-4.51l-10.65,-5.04l-10.21,-5.17l-9.78,-5.3l-9.34,-5.43l-8.98,-5.62l-8.55,-5.76l-8.26,-5.89l-8.18,-6.28l-7.75,-6.41l-7.46,-6.54l-7.1,-6.67l-6.81,-6.87l-6.37,-7l-6.08,-7.13l-5.86,-7.33l-5.57,-7.52l-5.21,-7.65l-5,-7.85l-4.63,-7.91l-4.35,-8.11l-3.99,-8.24l-4.35,-9.75l-3.91,-9.88l-3.55,-10.13l-3.19,-10.34l-2.83,-10.53l-2.39,-10.79l-2.03,-10.66l-1.67,-10.92l-1.23,-11.06l-0.94,-11.31l-0.58,-11.51l-0.15,-11.7l0.22,-13.08l0.73,-13.14l1.09,-13.21l1.67,-13.34l1.6,-10.53l1.96,-10.6l2.25,-10.53l2.61,-10.53l2.9,-10.53l3.19,-10.47l3.48,-10.34l3.84,-10.34l4.13,-10.27l4.56,-10.2l4.78,-10.07l5.14,-9.94l5.5,-9.88l5.79,-9.75l6.15,-9.68l6.52,-9.41l6.81,-9.35l7.17,-9.16l7.6,-9.03l7.89,-8.9l8.26,-8.63l8.55,-8.44l8.98,-8.24l9.34,-8.11l9.78,-7.91l10,-7.52l10.43,-7.39l10.79,-7.13l11.23,-6.87l11.74,-6.74l-4.35,-12.62l-0.73,-2.75l-0.22,-2.68l0.22,-2.68l0.65,-2.61l1.09,-2.42l1.45,-2.35l1.81,-2.16l2.1,-1.83l2.61,-1.63l52.8,-28.52l4.42,-1.76l4.56,-0.78l2.39,0l4.49,0.65l4.35,1.57l1.96,1.18l3.62,2.94l-0.01,-0.01z" fill="url(#linearGradient-10)" fill-rule="evenodd" id="svg_43"/>
    </g>
   </g>
   <g id="svg_44">
    <path d="m246.36,578.08l-0.36,-1.83l0,-1.89l0.29,-1.96l0.73,-2.03l1.09,-2.16l1.67,-2.48l2.18,-2.55l2.76,-2.68l3.41,-2.88l7.39,-5.17l9.42,-5.36l6.73,-3.27l7.46,-3.2l8.26,-3.2l8.4,-2.81l8.91,-2.68l9.49,-2.48l9.56,-2.09l9.2,-1.76l8.84,-1.31l8.91,-0.98l8.26,-0.59l7.6,-0.19l11.23,0.4l9.2,1.11l4.56,0.98l3.84,1.11l3.34,1.25l2.76,1.37l2.18,1.37l1.74,1.44l1.38,1.57l1.02,1.57l0.73,1.76l0.29,1.83l0.07,1.83l-0.36,1.96l-0.73,2.03l-1.09,2.16l-1.67,2.48l-2.18,2.55l-2.68,2.75l-3.41,2.81l-7.39,5.17l-9.49,5.36l-6.73,3.27l-7.46,3.27l-8.26,3.14l-8.33,2.81l-8.91,2.68l-9.49,2.48l-9.63,2.16l-9.2,1.7l-8.84,1.31l-8.84,0.98l-8.26,0.59l-7.68,0.19l-11.16,-0.4l-9.27,-1.11l-4.49,-0.91l-3.91,-1.11l-3.26,-1.25l-2.83,-1.37l-2.1,-1.37l-1.74,-1.5l-1.38,-1.5l-1.02,-1.63l-0.73,-1.7l-0.01,0z" fill="url(#linearGradient-11)" fill-rule="evenodd" id="svg_1"/>
   </g>
   <g id="svg_45">
    <path d="m211.74,489.8l-0.58,-1.31l-0.22,-1.44l0.15,-1.7l0.58,-1.96l1.23,-2.42l1.89,-2.75l2.61,-3.07l2.9,-2.88l3.55,-3.01l4.13,-3.2l9.13,-5.89l5.28,-2.94l5.43,-2.68l10.21,-4.12l5.07,-1.7l4.63,-1.18l4.2,-0.85l4.35,-0.53l3.55,-0.13l2.9,0.26l2.18,0.53l1.74,0.72l1.31,0.91l0.94,1.11l0.58,1.37l0.22,1.44l-0.15,1.7l-0.58,1.96l-1.23,2.42l-1.89,2.75l-2.61,3.07l-2.9,2.88l-3.48,3.01l-4.2,3.2l-9.05,5.89l-5.28,2.88l-5.43,2.68l-10.21,4.19l-5.14,1.63l-4.63,1.25l-4.2,0.85l-4.27,0.53l-3.62,0.06l-2.9,-0.26l-2.18,-0.46l-1.74,-0.78l-1.31,-0.91l-0.94,-1.11l0.01,-0.01z" fill="url(#linearGradient1)" fill-rule="evenodd" id="椭圆形备份-9"/>
   </g>
   <g id="svg_46">
    <path d="m751.18,479.73l0.94,-1.11l1.31,-0.91l1.74,-0.72l2.18,-0.53l2.9,-0.26l3.62,0.13l4.27,0.53l4.2,0.85l4.63,1.18l5.14,1.7l4.92,1.89l5.21,2.29l5.43,2.61l5.28,2.94l9.13,5.89l4.13,3.2l3.55,3.01l2.9,2.88l2.61,3.07l1.89,2.75l1.23,2.42l0.58,1.96l0.15,1.7l-0.22,1.44l-0.58,1.31l-0.94,1.11l-1.31,0.91l-1.74,0.78l-2.18,0.46l-2.9,0.26l-3.62,-0.06l-4.27,-0.53l-4.2,-0.85l-4.63,-1.18l-5.14,-1.7l-10.14,-4.19l-5.5,-2.68l-5.21,-2.88l-9.13,-5.89l-4.13,-3.2l-3.55,-3.01l-2.9,-2.88l-2.61,-3.07l-1.89,-2.75l-1.23,-2.42l-0.58,-1.96l-0.15,-1.7l0.22,-1.44l0.58,-1.37l0,0.01z" fill="url(#linearGradient-12)" fill-rule="evenodd" id="椭圆形备份-10"/>
   </g>
   <g id="svg_47">
    <path d="m719.02,634.07l-1.45,-3.14l-1.02,-3.2l-0.73,-3.2l-0.36,-3.27l-0.07,-3.33l0.29,-3.27l0.73,-3.2l1.02,-3.2l1.38,-3.07l1.67,-2.94l1.89,-2.68l2.25,-2.48l2.54,-2.29l2.68,-2.03l2.97,-1.76l3.19,-1.57l3.41,-1.18l3.41,-0.91l3.41,-0.59l3.62,-0.26l3.55,0.06l3.55,0.4l3.48,0.72l3.48,1.04l3.41,1.31l3.19,1.63l2.97,1.89l2.76,2.16l2.54,2.35l2.32,2.55l2.03,2.81l1.74,3.01l1.38,3.14l1.09,3.2l0.73,3.2l0.36,3.27l0.07,3.33l-0.36,3.27l-0.65,3.2l-1.02,3.2l-1.38,3.07l-1.67,2.94l-1.89,2.68l-2.25,2.48l-2.54,2.29l-2.68,2.03l-2.97,1.76l-3.19,1.57l-3.41,1.18l-3.41,0.91l-3.48,0.59l-3.55,0.26l-3.55,-0.06l-3.55,-0.4l-3.48,-0.72l-3.55,-1.04l-3.34,-1.31l-3.19,-1.63l-2.97,-1.89l-2.76,-2.16l-2.54,-2.35l-2.32,-2.55l-2.03,-2.81l-1.74,-3.01l-0.02,0z" fill="url(#linearGradient-13)" fill-opacity="0.35" fill-rule="evenodd" id="椭圆形备份-7"/>
   </g>
   <path d="m334.51,757.02l-3.91,-0.13l-3.77,-0.46l-3.55,-0.72l-3.41,-0.91l-3.41,-1.25l-3.05,-1.44l-2.9,-1.63l-2.68,-1.89l-2.47,-2.03l-2.1,-2.22l-1.89,-2.35l-1.6,-2.48l-1.31,-2.68l-0.87,-2.75l-0.58,-2.81l-0.22,-3.01l0.22,-2.94l0.58,-2.88l0.87,-2.75l1.31,-2.61l1.6,-2.48l1.89,-2.35l2.1,-2.22l2.47,-2.09l2.68,-1.83l2.9,-1.63l3.05,-1.44l3.41,-1.25l3.41,-0.98l3.55,-0.72l3.77,-0.4l3.91,-0.19l3.91,0.19l3.77,0.4l3.55,0.72l3.48,0.98l3.34,1.25l3.12,1.44l2.83,1.63l2.68,1.83l2.47,2.09l2.18,2.22l1.81,2.35l1.6,2.48l1.31,2.61l0.87,2.75l0.58,2.88l0.22,2.94l-0.22,3.01l-0.58,2.81l-0.87,2.75l-1.31,2.68l-1.6,2.48l-1.81,2.35l-2.18,2.22l-2.47,2.03l-2.68,1.89l-2.83,1.63l-3.12,1.44l-3.34,1.25l-3.48,0.91l-3.55,0.72l-3.77,0.46l-3.91,0.13z" fill="url(#linearGradient-14)" fill-opacity="0.49" fill-rule="evenodd" id="椭圆形备份-8"/>
  </g>
 </g>
</svg>
